<?xml version="1.0" standalone="no"?>
<!DOCTYPE svg PUBLIC "-//W3C//DTD SVG 1.1//EN" "http://www.w3.org/Graphics/SVG/1.1/DTD/svg11.dtd" >
<svg xmlns="http://www.w3.org/2000/svg" xmlns:xlink="http://www.w3.org/1999/xlink" version="1.1">
<metadata>
Created by FontForge 20170731 at Sun Jul  5 22:17:11 2020
 By Aleksey,,,
Copyright 2015 Google Inc. All Rights Reserved.
</metadata>
<defs>
<font id="NotoSansDisplay-Bold" horiz-adv-x="0" >
  <font-face 
    font-family="Noto Sans Display"
    font-weight="700"
    font-stretch="normal"
    units-per-em="1000"
    panose-1="2 11 8 2 4 5 4 2 2 4"
    ascent="800"
    descent="-200"
    x-height="546"
    cap-height="714"
    bbox="-643 -389 2744 1069"
    underline-thickness="50"
    underline-position="-175"
    unicode-range="U+000D-FFFD"
  />
<missing-glyph horiz-adv-x="555" 
d="M84 0v714h386v-714h-386zM132 51h290v612h-290v-612z" />
    <glyph glyph-name="f_f" unicode="ff" horiz-adv-x="752" 
d="M369 434h-116v-434h-160v434h-73v72l75 40v40q0 70 20 108.5t60 54.5t99 16q41 0 74 -7t61 -16l-37 -109q-15 5 -32.5 9.5t-38.5 4.5q-25 0 -36.5 -19t-11.5 -48v-34h116v-112zM745 434h-116v-434h-160v434h-73v72l75 40v40q0 70 20 108.5t60 54.5t99 16q41 0 74 -7
t61 -16l-37 -109q-15 5 -32.5 9.5t-38.5 4.5q-25 0 -36.5 -19t-11.5 -48v-34h116v-112z" />
    <glyph glyph-name="fi" unicode="fi" horiz-adv-x="672" 
d="M369 434h-116v-434h-160v434h-73v72l75 40v40q0 70 20 108.5t60 54.5t99 16q41 0 74 -7t61 -16l-37 -109q-15 5 -32.5 9.5t-38.5 4.5q-25 0 -36.5 -19t-11.5 -48v-34h116v-112zM525 760q35 0 60 -15.5t25 -57.5q0 -41 -25 -57t-60 -16q-36 0 -61 16t-25 57q0 42 25 57.5
t61 15.5zM604 546v-546h-160v546h160z" />
    <glyph glyph-name="fl" unicode="fl" horiz-adv-x="672" 
d="M369 434h-116v-434h-160v434h-73v72l75 40v40q0 70 20 108.5t60 54.5t99 16q41 0 74 -7t61 -16l-37 -109q-15 5 -32.5 9.5t-38.5 4.5q-25 0 -36.5 -19t-11.5 -48v-34h116v-112zM604 0h-160v760h160v-760z" />
    <glyph glyph-name="f_f_i" unicode="ffi" horiz-adv-x="1048" 
d="M369 434h-116v-434h-160v434h-73v72l75 40v40q0 70 20 108.5t60 54.5t99 16q41 0 74 -7t61 -16l-37 -109q-15 5 -32.5 9.5t-38.5 4.5q-25 0 -36.5 -19t-11.5 -48v-34h116v-112zM745 434h-116v-434h-160v434h-73v72l75 40v40q0 70 20 108.5t60 54.5t99 16q41 0 74 -7
t61 -16l-37 -109q-15 5 -32.5 9.5t-38.5 4.5q-25 0 -36.5 -19t-11.5 -48v-34h116v-112zM901 760q35 0 60 -15.5t25 -57.5q0 -41 -25 -57t-60 -16q-36 0 -61 16t-25 57q0 42 25 57.5t61 15.5zM980 546v-546h-160v546h160z" />
    <glyph glyph-name="f_f_l" unicode="ffl" horiz-adv-x="1048" 
d="M369 434h-116v-434h-160v434h-73v72l75 40v40q0 70 20 108.5t60 54.5t99 16q41 0 74 -7t61 -16l-37 -109q-15 5 -32.5 9.5t-38.5 4.5q-25 0 -36.5 -19t-11.5 -48v-34h116v-112zM745 434h-116v-434h-160v434h-73v72l75 40v40q0 70 20 108.5t60 54.5t99 16q41 0 74 -7
t61 -16l-37 -109q-15 5 -32.5 9.5t-38.5 4.5q-25 0 -36.5 -19t-11.5 -48v-34h116v-112zM980 0h-160v760h160v-760z" />
    <glyph glyph-name=".notdef" horiz-adv-x="555" 
d="M84 0v714h386v-714h-386zM132 51h290v612h-290v-612z" />
    <glyph glyph-name=".null" 
 />
    <glyph glyph-name="nonmarkingreturn" horiz-adv-x="333" 
 />
    <glyph glyph-name="NULL" 
 />
    <glyph glyph-name="NULL" 
 />
    <glyph glyph-name="CR" unicode="&#xd;" horiz-adv-x="244" 
 />
    <glyph glyph-name="space" unicode=" " horiz-adv-x="244" 
 />
    <glyph glyph-name="exclam" unicode="!" horiz-adv-x="272" 
d="M202 237h-131l-24 477h179zM47 70q0 46 26 64.5t63 18.5q35 0 61 -18.5t26 -64.5q0 -44 -26 -63.5t-61 -19.5q-37 0 -63 19.5t-26 63.5z" />
    <glyph glyph-name="quotedbl" unicode="&#x22;" horiz-adv-x="467" 
d="M204 714l-19 -258h-108l-19 258h146zM409 714l-18 -258h-108l-19 258h145z" />
    <glyph glyph-name="numbersign" unicode="#" horiz-adv-x="615" 
d="M469 412l-18 -113h115v-101h-135l-35 -198h-111l34 198h-83l-34 -198h-110l33 198h-106v101h126l18 113h-112v102h132l34 199h112l-35 -199h84l34 199h111l-35 -199h108v-102h-127zM256 299h84l17 113h-83z" />
    <glyph glyph-name="dollar" unicode="$" horiz-adv-x="544" 
d="M232 40q-61 2 -106.5 12.5t-85.5 29.5v129q41 -20 93.5 -36.5t98.5 -19.5v151q-65 30 -110 58.5t-67.5 63.5t-22.5 84q0 75 55.5 119.5t144.5 52.5v75h75v-73q109 -4 189 -45l-42 -114q-35 17 -73.5 26t-73.5 12v-144q58 -20 104 -43.5t72.5 -59.5t26.5 -95
q0 -73 -49.5 -122t-153.5 -59v-100h-75v98zM232 563q-55 -9 -55 -51q0 -21 13 -35t42 -29v115zM307 158q58 12 58 58q0 20 -13.5 34.5t-44.5 29.5v-122z" />
    <glyph glyph-name="percent" unicode="%" horiz-adv-x="869" 
d="M187 724q80 0 124 -58.5t44 -164.5t-41.5 -165.5t-126.5 -59.5q-76 0 -120 59.5t-44 165.5t41 164.5t123 58.5zM680 714l-372 -714h-123l372 714h123zM189 622q-39 0 -39 -122q0 -123 39 -123t39 123q0 122 -39 122zM678 439q79 0 123 -58.5t44 -164.5t-41.5 -165.5
t-125.5 -59.5q-77 0 -121 59.5t-44 165.5t41.5 164.5t123.5 58.5zM679 337q-39 0 -39 -122q0 -123 39 -123q40 0 40 123q0 122 -40 122z" />
    <glyph glyph-name="ampersand" unicode="&#x26;" horiz-adv-x="728" 
d="M301 724q88 0 142 -40.5t54 -114.5q0 -69 -36 -116t-92 -82l111 -135q18 34 31 71.5t21 75.5h166q-14 -56 -43 -120t-67 -120l142 -143h-202l-49 55q-40 -30 -85 -47.5t-116 -17.5q-116 0 -179.5 56t-63.5 147q0 76 32.5 121.5t91.5 80.5q-32 45 -47.5 83t-15.5 81
q0 76 54.5 120.5t150.5 44.5zM299 609q-22 0 -39.5 -12.5t-17.5 -47.5q0 -25 12 -48t30 -47q32 23 49.5 46t17.5 53t-16 43t-36 13zM249 306q-23 -21 -35.5 -44.5t-12.5 -54.5q0 -43 25.5 -67.5t65.5 -24.5q55 0 90 30z" />
    <glyph glyph-name="quotesingle" unicode="'" horiz-adv-x="262" 
d="M204 714l-19 -258h-108l-19 258h146z" />
    <glyph glyph-name="parenleft" unicode="(" horiz-adv-x="328" 
d="M36 274q0 122 31.5 235.5t102.5 204.5h131q-64 -94 -94.5 -207t-30.5 -232q0 -116 30.5 -228.5t94.5 -204.5h-131q-71 88 -102.5 199.5t-31.5 232.5z" />
    <glyph glyph-name="parenright" unicode=")" horiz-adv-x="328" 
d="M292 274q0 -121 -31 -232.5t-102 -199.5h-131q63 92 94 204.5t31 228.5q0 119 -31 232t-95 207h132q71 -91 102 -204.5t31 -235.5z" />
    <glyph glyph-name="asterisk" unicode="*" horiz-adv-x="508" 
d="M319 760l-18 -180l167 51l16 -123l-150 -12l99 -145l-112 -59l-69 153l-59 -152l-117 58l98 145l-149 13l19 122l164 -51l-18 180h129z" />
    <glyph glyph-name="plus" unicode="+" horiz-adv-x="536" 
d="M323 406h175v-107h-175v-188h-112v188h-174v107h174v190h112v-190z" />
    <glyph glyph-name="comma" unicode="," horiz-adv-x="270" 
d="M223 105q-13 -53 -35.5 -116t-45.5 -118h-114q14 59 26.5 126t19.5 119h142z" />
    <glyph glyph-name="hyphen" unicode="-" horiz-adv-x="301" 
d="M24 207v122h253v-122h-253z" />
    <glyph glyph-name="period" unicode="." horiz-adv-x="270" 
d="M47 70q0 46 26 64.5t63 18.5q35 0 61 -18.5t26 -64.5q0 -44 -26 -63.5t-61 -19.5q-37 0 -63 19.5t-26 63.5z" />
    <glyph glyph-name="slash" unicode="/" horiz-adv-x="402" 
d="M399 714l-250 -714h-143l250 714h143z" />
    <glyph glyph-name="zero" unicode="0" horiz-adv-x="544" 
d="M510 357q0 -115 -23 -197t-75.5 -126t-140.5 -44q-124 0 -181 97.5t-57 269.5q0 116 23 198t75.5 126t139.5 44q123 0 181 -97t58 -271zM194 357q0 -122 15.5 -183.5t61.5 -61.5q45 0 61.5 61t16.5 184q0 122 -16.5 184t-61.5 62q-46 0 -61.5 -62t-15.5 -184z" />
    <glyph glyph-name="one" unicode="1" horiz-adv-x="544" 
d="M410 0h-163v413q0 26 1 68t2 74q-8 -6 -20.5 -22t-25.5 -27l-75 -66l-82 91l223 183h140v-714z" />
    <glyph glyph-name="two" unicode="2" horiz-adv-x="544" 
d="M511 0h-478v105l166 181q51 56 80.5 93.5t42 68t12.5 65.5q0 43 -20.5 64t-52.5 21q-35 0 -69.5 -19t-75.5 -54l-88 97q30 27 63 50t78 37.5t108 14.5q67 0 116 -25.5t75.5 -69t26.5 -98.5q0 -59 -23 -107t-64.5 -96.5t-97.5 -112.5l-72 -81l-1 -7h274v-127z" />
    <glyph glyph-name="three" unicode="3" horiz-adv-x="544" 
d="M487 554q0 -74 -43 -118t-104 -60v-3q80 -10 123 -52t43 -113q0 -62 -29 -111.5t-89.5 -78t-156.5 -28.5q-60 0 -107 10t-90 29v128q44 -23 90.5 -35t85.5 -12q71 0 98.5 28t27.5 79q0 30 -13 50.5t-45.5 31t-93.5 10.5h-46v116h47q57 0 88 12.5t43.5 34t12.5 49.5
q0 38 -21 59.5t-64 21.5q-47 0 -83 -17.5t-56 -34.5l-70 104q41 30 94.5 50t133.5 20q104 0 164 -44.5t60 -125.5z" />
    <glyph glyph-name="four" unicode="4" horiz-adv-x="544" 
d="M529 148h-77v-148h-159v148h-277v105l287 461h149v-449h77v-117zM293 386q0 23 1 56t2.5 61.5t1.5 37.5h-4q-9 -20 -17.5 -38.5t-19.5 -39.5l-101 -198h137v121z" />
    <glyph glyph-name="five" unicode="5" horiz-adv-x="544" 
d="M294 456q59 0 105.5 -25t74 -73t27.5 -119q0 -116 -67.5 -182.5t-202.5 -66.5q-114 0 -186 39v130q35 -19 84.5 -32.5t91.5 -13.5q56 0 86.5 27.5t30.5 85.5q0 108 -122 108q-26 0 -52 -5.5t-45 -10.5l-62 32l26 364h373v-128h-234l-11 -140q16 3 32.5 6.5t50.5 3.5z" />
    <glyph glyph-name="six" unicode="6" horiz-adv-x="544" 
d="M32 303q0 62 8.5 122t30 113.5t60 95t99 65t146.5 23.5q20 0 47.5 -1.5t45.5 -5.5v-121q-19 5 -41 7.5t-49 2.5q-76 0 -118.5 -28t-60.5 -78.5t-21 -116.5h6q18 35 51 59t88 24q88 0 139 -59t51 -167q0 -116 -63 -182t-170 -66q-70 0 -126.5 33.5t-89.5 103t-33 176.5z
M278 111q35 0 57 30.5t22 94.5q0 52 -18.5 82t-58.5 30q-27 0 -46.5 -14.5t-30 -37.5t-10.5 -47q0 -33 9 -64.5t28 -52.5t48 -21z" />
    <glyph glyph-name="seven" unicode="7" horiz-adv-x="544" 
d="M101 0l241 587h-311v127h483v-95l-245 -619h-168z" />
    <glyph glyph-name="eight" unicode="8" horiz-adv-x="544" 
d="M273 723q62 0 111.5 -19t78.5 -57t29 -96q0 -64 -33.5 -105.5t-84.5 -68.5q34 -20 65.5 -46.5t52 -62t20.5 -83.5q0 -89 -62 -142t-178 -53q-120 0 -180 51t-60 140q0 74 36.5 119t89.5 73q-44 30 -75 72.5t-31 106.5q0 57 29.5 95t80 57t111.5 19zM272 613
q-28 0 -48 -19t-20 -54q0 -37 20 -60t48 -40q26 16 47 38.5t21 61.5q0 35 -19.5 54t-48.5 19zM181 190q0 -39 23 -64t66 -25q47 0 70 24t23 64q0 27 -13 48t-32 37.5t-38 28.5l-12 8q-37 -22 -62 -51t-25 -70z" />
    <glyph glyph-name="nine" unicode="9" horiz-adv-x="544" 
d="M512 409q0 -83 -16 -158.5t-54.5 -134t-106 -92.5t-170.5 -34q-20 0 -46.5 1.5t-45.5 5.5v121q19 -4 39 -7t41 -3q83 0 127.5 28.5t63 78.5t20.5 116h-5q-13 -23 -30 -42t-44 -30t-71 -11q-84 0 -133.5 59t-49.5 167q0 116 62.5 183t168.5 67q71 0 127.5 -34t89.5 -104
t33 -177zM266 603q-34 0 -56.5 -31t-22.5 -96q0 -52 19 -82t56 -30q27 0 47 15t31 37.5t11 46.5q0 37 -9.5 69t-28.5 51.5t-47 19.5z" />
    <glyph glyph-name="colon" unicode=":" horiz-adv-x="270" 
d="M47 473q0 46 26 64.5t63 18.5q35 0 61 -18.5t26 -64.5q0 -44 -26 -63.5t-61 -19.5q-37 0 -63 19.5t-26 63.5zM47 70q0 46 26 64.5t63 18.5q35 0 61 -18.5t26 -64.5q0 -44 -26 -63.5t-61 -19.5q-37 0 -63 19.5t-26 63.5z" />
    <glyph glyph-name="semicolon" unicode=";" horiz-adv-x="270" 
d="M48 473q0 46 26 64.5t63 18.5q35 0 61 -18.5t26 -64.5q0 -44 -26 -63.5t-61 -19.5q-37 0 -63 19.5t-26 63.5zM223 105q-13 -53 -35.5 -116t-45.5 -118h-114q14 59 26.5 126t19.5 119h142z" />
    <glyph glyph-name="less" unicode="&#x3c;" horiz-adv-x="535" 
d="M497 99l-460 214v70l460 242v-117l-299 -155l299 -137v-117z" />
    <glyph glyph-name="equal" unicode="=" horiz-adv-x="535" 
d="M37 394v106h461v-106h-461zM37 204v107h461v-107h-461z" />
    <glyph glyph-name="greater" unicode="&#x3e;" horiz-adv-x="535" 
d="M37 216l299 137l-299 155v117l460 -242v-70l-460 -214v117z" />
    <glyph glyph-name="question" unicode="?" horiz-adv-x="461" 
d="M131 273q0 50 18.5 84.5t67.5 70.5q44 32 59 55.5t15 55.5t-20 48.5t-54 16.5q-37 0 -76.5 -13t-82.5 -35l-57 107q49 27 105 44t123 17q101 0 156.5 -50t55.5 -127q0 -41 -12 -70.5t-36 -55.5t-61 -55q-27 -21 -42.5 -36t-21.5 -29t-6 -35v-29h-131v36zM113 70
q0 46 26 64.5t63 18.5q36 0 62 -18.5t26 -64.5q0 -44 -26 -63.5t-62 -19.5q-37 0 -63 19.5t-26 63.5z" />
    <glyph glyph-name="at" unicode="@" horiz-adv-x="843" 
d="M801 358q0 -46 -11 -91t-32.5 -82t-53.5 -58.5t-75 -21.5q-34 0 -62.5 17.5t-42.5 45.5h-7q-20 -25 -51 -44t-72 -19q-85 0 -129.5 53.5t-44.5 140.5q0 67 27 118.5t78 81t123 29.5q45 0 91 -8.5t74 -18.5l-9 -205q-1 -10 -1.5 -20.5t-0.5 -13.5q0 -41 8.5 -54.5
t20.5 -13.5q19 0 32 22.5t20 60t7 82.5q0 125 -65 194t-176 69q-96 0 -161.5 -43.5t-99 -118.5t-33.5 -172q0 -135 65.5 -207t191.5 -72q53 0 115 13t114 32v-94q-46 -20 -103.5 -32t-119.5 -12q-118 0 -202.5 44t-129 126.5t-44.5 198.5q0 91 28.5 169t81.5 136.5t127.5 91
t167.5 32.5q105 0 184.5 -43t124.5 -123t45 -190zM337 297q0 -55 19.5 -79t50.5 -24q43 0 60.5 36.5t21.5 95.5l5 108q-10 2 -20 3.5t-22 1.5q-41 0 -66.5 -20.5t-37 -53t-11.5 -68.5z" />
    <glyph glyph-name="A" unicode="A" horiz-adv-x="665" 
d="M490 0l-41 170h-231l-42 -170h-176l228 717h208l229 -717h-175zM367 463q-9 32 -18 67.5t-16 75.5q-7 -40 -16 -76.5t-17 -66.5l-46 -166h160z" />
    <glyph glyph-name="B" unicode="B" horiz-adv-x="633" 
d="M300 714q140 0 205.5 -40t65.5 -141q0 -61 -30 -103t-74 -51v-5q30 -7 57.5 -25t44.5 -52t17 -90q0 -97 -67.5 -152t-183.5 -55h-256v714h221zM309 431q54 0 75 21t21 61q0 41 -24.5 59t-76.5 18h-63v-159h68zM241 311v-186h78q56 0 78 26.5t22 70.5q0 40 -22.5 64.5
t-81.5 24.5h-74z" />
    <glyph glyph-name="C" unicode="C" horiz-adv-x="604" 
d="M370 598q-73 0 -113 -65t-40 -178q0 -114 38.5 -176.5t119.5 -62.5q43 0 84.5 10t86.5 28v-127q-44 -19 -89 -28t-98 -9q-107 0 -175 45.5t-100.5 128t-32.5 192.5q0 108 37 191t108.5 130t174.5 47q50 0 105.5 -13.5t96.5 -36.5l-51 -123q-37 19 -74.5 33t-77.5 14z" />
    <glyph glyph-name="D" unicode="D" horiz-adv-x="693" 
d="M642 364q0 -181 -96.5 -272.5t-263.5 -91.5h-203v714h221q161 0 251.5 -89t90.5 -261zM474 360q0 119 -43 174.5t-126 55.5h-64v-465h50q94 0 138.5 59t44.5 176z" />
    <glyph glyph-name="E" unicode="E" horiz-adv-x="521" 
d="M471 0h-392v714h392v-124h-230v-157h214v-124h-214v-184h230v-125z" />
    <glyph glyph-name="F" unicode="F" horiz-adv-x="512" 
d="M238 0h-159v714h391v-124h-232v-184h215v-124h-215v-282z" />
    <glyph glyph-name="G" unicode="G" horiz-adv-x="688" 
d="M341 401h277v-370q-52 -19 -114 -30t-135 -11q-148 0 -233 94t-85 274q0 112 40.5 194t119 127t192.5 45q58 0 112 -12t96 -32l-52 -121q-34 17 -73 28t-83 11q-92 0 -138.5 -66.5t-46.5 -176.5q0 -70 17.5 -124t54 -84.5t91.5 -30.5q23 0 45 3t38 7v149h-123v126z" />
    <glyph glyph-name="H" unicode="H" horiz-adv-x="721" 
d="M642 0h-163v308h-238v-308h-162v714h162v-280h238v280h163v-714z" />
    <glyph glyph-name="I" unicode="I" horiz-adv-x="389" 
d="M358 0h-327v86l83 40v462l-83 40v86h327v-86l-82 -40v-462l82 -40v-86z" />
    <glyph glyph-name="J" unicode="J" horiz-adv-x="321" 
d="M17 -210q-29 0 -51 3.5t-38 7.5v126q15 -4 31.5 -7t35.5 -3q29 0 47.5 10t28 38t9.5 80v669h162v-668q0 -92 -28.5 -148.5t-79 -82t-117.5 -25.5z" />
    <glyph glyph-name="K" unicode="K" horiz-adv-x="635" 
d="M635 0h-183l-154 301l-57 -46v-255h-162v714h162v-327q13 21 27.5 42t28.5 42l161 243h178l-222 -316z" />
    <glyph glyph-name="L" unicode="L" horiz-adv-x="539" 
d="M79 0v714h162v-589h265v-125h-427z" />
    <glyph glyph-name="M" unicode="M" horiz-adv-x="899" 
d="M367 0l-149 560h-4l3 -60t4 -85.5t2 -82.5v-332h-144v714h218l149 -546h3l153 546h218v-714h-150v338q0 34 1 78t3 83.5t3 59.5h-4l-154 -559h-152z" />
    <glyph glyph-name="N" unicode="N" horiz-adv-x="775" 
d="M696 0h-209l-269 540h-4q2 -51 5 -102t4 -102v-336h-144v714h208l268 -535h3q-1 50 -3.5 99t-3.5 98v338h145v-714z" />
    <glyph glyph-name="O" unicode="O" horiz-adv-x="749" 
d="M697 358q0 -111 -34 -193.5t-105 -128.5t-184 -46q-111 0 -182.5 46t-106 129t-34.5 194t34.5 193t106.5 127.5t183 45.5q112 0 183 -45.5t105 -128t34 -193.5zM221 358q0 -112 36 -176.5t117 -64.5q83 0 118 64.5t35 176.5q0 113 -35 177t-117 64t-118 -64t-36 -177z
" />
    <glyph glyph-name="P" unicode="P" horiz-adv-x="593" 
d="M302 714q129 0 190.5 -59.5t61.5 -163.5q0 -62 -24 -116.5t-80 -87.5t-153 -33h-56v-254h-162v714h223zM297 590h-56v-212h41q48 0 79 25.5t31 82.5q0 104 -95 104z" />
    <glyph glyph-name="Q" unicode="Q" horiz-adv-x="748" 
d="M697 358q0 -120 -37.5 -207.5t-117.5 -128.5l162 -192h-204l-118 160h-8q-111 0 -182.5 46t-106 129t-34.5 194t34.5 193t106.5 127.5t183 45.5q112 0 183 -45.5t105 -128t34 -193.5zM221 358q0 -112 36 -176.5t117 -64.5q83 0 118 64.5t35 176.5q0 113 -35 177t-117 64
t-118 -64t-36 -177z" />
    <glyph glyph-name="R" unicode="R" horiz-adv-x="628" 
d="M287 714q270 0 270 -214q0 -73 -34 -119t-85 -70l196 -311h-181l-151 274h-61v-274h-162v714h208zM280 590h-39v-193h40q113 0 113 99q0 51 -27.5 72.5t-86.5 21.5z" />
    <glyph glyph-name="S" unicode="S" horiz-adv-x="529" 
d="M495 198q0 -95 -63.5 -151.5t-191.5 -56.5q-60 0 -107 11t-91 32v141q51 -22 104.5 -40.5t101.5 -18.5q46 0 66.5 21.5t20.5 54.5q0 40 -32 65t-94 50q-40 17 -77 42t-60.5 66.5t-23.5 106.5q0 96 65.5 149.5t174.5 53.5q59 0 109.5 -13t96.5 -37l-51 -118
q-44 20 -83.5 31t-76.5 11t-56.5 -20t-19.5 -52q0 -25 13.5 -42.5t42.5 -34t74 -39.5q50 -25 85.5 -52.5t54 -65.5t18.5 -94z" />
    <glyph glyph-name="T" unicode="T" horiz-adv-x="550" 
d="M356 0h-162v588h-173v126h508v-126h-173v-588z" />
    <glyph glyph-name="U" unicode="U" horiz-adv-x="711" 
d="M637 252q0 -74 -31.5 -133.5t-94.5 -94t-158 -34.5q-136 0 -207.5 72.5t-71.5 191.5v460h162v-437q0 -88 30.5 -124t89.5 -36q63 0 91 39t28 122v436h162v-462z" />
    <glyph glyph-name="V" unicode="V" horiz-adv-x="632" 
d="M632 714l-225 -714h-184l-223 714h173l110 -425q3 -11 10 -40.5t14 -62t9 -54.5q3 22 9.5 54t13 61.5t9.5 41.5l110 425h174z" />
    <glyph glyph-name="W" unicode="W" horiz-adv-x="943" 
d="M936 714l-169 -714h-188l-79 375l-6 33t-8.5 48t-8 49.5t-5.5 36.5q-1 -13 -5 -36.5t-8.5 -49t-8.5 -48t-7 -34.5l-79 -374h-188l-169 714h158l79 -390q5 -23 11.5 -58l13 -70t8.5 -59q4 25 10.5 60t12.5 68t10 51l87 398h150l85 -400q4 -18 10.5 -50.5t13 -67.5t9.5 -59
q3 25 9 59.5t13 69.5t12 58l79 390h158z" />
    <glyph glyph-name="X" unicode="X" horiz-adv-x="653" 
d="M652 0h-186l-144 270l-143 -270h-178l223 368l-209 346h179l133 -257l129 257h180l-212 -354z" />
    <glyph glyph-name="Y" unicode="Y" horiz-adv-x="605" 
d="M303 420l128 294h174l-222 -436v-278h-161v273l-222 441h176z" />
    <glyph glyph-name="Z" unicode="Z" horiz-adv-x="559" 
d="M536 0h-511v98l306 491h-298v125h495v-98l-306 -491h314v-125z" />
    <glyph glyph-name="bracketleft" unicode="[" horiz-adv-x="309" 
d="M286 -158h-226v872h226v-103h-94v-666h94v-103z" />
    <glyph glyph-name="backslash" unicode="\" horiz-adv-x="402" 
d="M147 714l250 -714h-143l-250 714h143z" />
    <glyph glyph-name="bracketright" unicode="]" horiz-adv-x="309" 
d="M23 -55h93v666h-93v103h226v-872h-226v103z" />
    <glyph glyph-name="asciicircum" unicode="^" horiz-adv-x="516" 
d="M7 254l202 464h72l230 -464h-123l-140 314l-121 -314h-120z" />
    <glyph glyph-name="underscore" unicode="_" horiz-adv-x="428" 
d="M430 -158h-432v68h432v-68z" />
    <glyph glyph-name="grave" unicode="`" horiz-adv-x="371" 
d="M217 766q15 -22 36 -49.5t42 -53t36 -44.5v-13h-106q-18 13 -43.5 32.5t-52.5 41.5t-50.5 42t-38.5 34v10h177z" />
    <glyph glyph-name="a" unicode="a" horiz-adv-x="577" 
d="M300 557q101 0 156.5 -47.5t55.5 -145.5v-364h-111l-31 74h-4q-33 -44 -69.5 -64t-101.5 -20q-67 0 -112.5 42.5t-45.5 130.5q0 87 57.5 128.5t169.5 45.5l88 3v24q0 43 -19 63t-52 20q-34 0 -71 -11.5t-74 -28.5l-49 101q44 23 97.5 36t115.5 13zM305 251
q-58 -2 -81.5 -26t-23.5 -63q0 -34 16.5 -48.5t43.5 -14.5q38 0 65.5 28.5t27.5 80.5v45z" />
    <glyph glyph-name="b" unicode="b" horiz-adv-x="600" 
d="M228 583q0 -31 -2 -61t-4 -47h6q20 34 53.5 57.5t88.5 23.5q83 0 136 -71.5t53 -210.5q0 -140 -54 -212t-140 -72q-55 0 -86 21.5t-51 48.5h-11l-25 -60h-124v760h160v-177zM314 437q-46 0 -66 -36t-20 -110v-16q0 -79 19 -121.5t69 -42.5q38 0 59 42.5t21 122.5
q0 161 -82 161z" />
    <glyph glyph-name="c" unicode="c" horiz-adv-x="495" 
d="M291 -10q-117 0 -183.5 67.5t-66.5 212.5q0 100 33.5 163t93 93t136.5 30q50 0 93 -11t72 -26l-47 -112q-30 13 -54.5 21t-53.5 8q-52 0 -81 -41t-29 -124q0 -82 29.5 -121t80.5 -39q38 0 72.5 12.5t65.5 34.5v-127q-33 -22 -70.5 -31.5t-90.5 -9.5z" />
    <glyph glyph-name="d" unicode="d" horiz-adv-x="600" 
d="M230 -10q-83 0 -136 71.5t-53 210.5q0 140 54 212t140 72q54 0 87.5 -23t54.5 -57h4q-3 16 -6 46.5t-3 62.5v175h160v-760h-121l-33 71h-6q-19 -34 -53 -57.5t-89 -23.5zM291 109q50 0 71.5 36.5t21.5 109.5v16q0 80 -20 122t-75 42q-40 0 -63 -42.5t-23 -122.5
t23.5 -120.5t64.5 -40.5z" />
    <glyph glyph-name="e" unicode="e" horiz-adv-x="568" 
d="M291 556q110 0 173.5 -64.5t63.5 -183.5v-72h-325q2 -63 32.5 -99t87.5 -36q50 0 90.5 10.5t83.5 32.5v-115q-37 -20 -80.5 -29.5t-107.5 -9.5q-78 0 -138.5 30.5t-95 92.5t-34.5 156q0 143 69 215t181 72zM294 450q-36 0 -60 -28t-28 -87h175q-1 50 -22 82.5t-65 32.5z
" />
    <glyph glyph-name="f" unicode="f" horiz-adv-x="376" 
d="M369 434h-116v-434h-160v434h-73v72l75 40v40q0 70 20 108.5t60 54.5t99 16q41 0 74 -7t61 -16l-37 -109q-15 5 -32.5 9.5t-38.5 4.5q-25 0 -36.5 -19t-11.5 -48v-34h116v-112z" />
    <glyph glyph-name="g" unicode="g" horiz-adv-x="600" 
d="M234 556q51 0 86.5 -20t58.5 -60h4l12 70h137v-547q0 -117 -66.5 -178t-200.5 -61q-58 0 -105.5 7t-91.5 25v119q47 -21 93 -31.5t103 -10.5q108 0 108 124v11q0 35 5 67h-5q-22 -43 -56.5 -62t-84.5 -19q-87 0 -138.5 74.5t-51.5 207.5q0 134 52.5 209t140.5 75z
M290 435q-86 0 -86 -165q0 -163 88 -163q49 0 70.5 32.5t21.5 113.5v18q0 88 -20.5 126t-73.5 38z" />
    <glyph glyph-name="h" unicode="h" horiz-adv-x="624" 
d="M228 605q0 -40 -2.5 -77t-4.5 -52h8q25 42 62 61t83 19q80 0 132.5 -47.5t52.5 -152.5v-356h-161v319q0 118 -72 118q-56 0 -77 -46.5t-21 -133.5v-257h-160v760h160v-155z" />
    <glyph glyph-name="i" unicode="i" horiz-adv-x="296" 
d="M149 760q35 0 60 -15.5t25 -57.5q0 -41 -25 -57t-60 -16q-36 0 -61 16t-25 57q0 42 25 57.5t61 15.5zM228 546v-546h-160v546h160z" />
    <glyph glyph-name="j" unicode="j" horiz-adv-x="296" 
d="M63 687q0 42 25 57.5t60 15.5t60.5 -15.5t25.5 -57.5q0 -41 -25.5 -57t-60.5 -16t-60 16t-25 57zM40 -240q-22 0 -49.5 3.5t-44.5 8.5v117q16 -4 30 -6.5t31 -2.5q25 0 43 17t18 66v583h159v-605q0 -50 -18 -91t-59 -65.5t-110 -24.5z" />
    <glyph glyph-name="k" unicode="k" horiz-adv-x="601" 
d="M228 420q0 -31 -2.5 -61.5t-6.5 -61.5h3q8 21 25 42t33 41l131 166h179l-193 -237l204 -309h-183l-131 221l-59 -51v-170h-160v760h160v-340z" />
    <glyph glyph-name="l" unicode="l" horiz-adv-x="296" 
d="M228 0h-160v760h160v-760z" />
    <glyph glyph-name="m" unicode="m" horiz-adv-x="931" 
d="M686 556q89 0 134.5 -47.5t45.5 -152.5v-356h-159v319q0 118 -70 118q-50 0 -70 -42t-20 -121v-274h-160v319q0 118 -69 118q-52 0 -71 -46.5t-19 -133.5v-257h-160v546h121l23 -70h6q22 42 61.5 61t91.5 19q113 0 155 -80h9q24 42 64.5 61t86.5 19z" />
    <glyph glyph-name="n" unicode="n" horiz-adv-x="624" 
d="M376 556q82 0 132.5 -47.5t50.5 -152.5v-356h-160v319q0 59 -17.5 88.5t-55.5 29.5q-58 0 -78 -46.5t-20 -133.5v-257h-160v546h121l22 -70h7q25 42 66 61t92 19z" />
    <glyph glyph-name="o" unicode="o" horiz-adv-x="590" 
d="M549 274q0 -136 -68 -210t-187 -74q-73 0 -130.5 33t-90 96.5t-32.5 154.5q0 136 68.5 209t187.5 73q73 0 130 -33t89.5 -95.5t32.5 -153.5zM204 274q0 -81 21.5 -122.5t70.5 -41.5t69.5 41.5t20.5 122.5t-20.5 121.5t-70.5 40.5q-49 0 -70 -40.5t-21 -121.5z" />
    <glyph glyph-name="p" unicode="p" horiz-adv-x="600" 
d="M370 556q86 0 137.5 -71.5t51.5 -210.5t-55 -211.5t-139 -72.5q-55 0 -86.5 21.5t-50.5 48.5h-7q3 -19 5 -39.5t2 -40.5v-220h-160v786h130l22 -71h8q20 33 53.5 57t88.5 24zM313 437q-47 0 -66 -36t-19 -110v-16q0 -79 18.5 -121.5t68.5 -42.5q41 0 61 42.5t20 122.5
q0 161 -83 161z" />
    <glyph glyph-name="q" unicode="q" horiz-adv-x="600" 
d="M372 -11q0 42 6 82h-6q-19 -34 -52.5 -57.5t-88.5 -23.5q-85 0 -137.5 71.5t-52.5 210.5q0 140 53.5 212t139.5 72q56 0 90 -23t55 -57h4l12 70h137v-786h-160v229zM292 107q51 0 71.5 36.5t20.5 109.5v18q0 80 -19.5 122t-74.5 42q-43 0 -64.5 -42.5t-21.5 -122.5
q0 -163 88 -163z" />
    <glyph glyph-name="r" unicode="r" horiz-adv-x="434" 
d="M368 556q13 0 28 -1t23 -3l-13 -140q-18 5 -51 5q-29 0 -58.5 -13.5t-49 -43.5t-19.5 -82v-278h-160v546h120l24 -92h8q22 42 61 72t87 30z" />
    <glyph glyph-name="s" unicode="s" horiz-adv-x="477" 
d="M440 162q0 -83 -53 -127.5t-166 -44.5q-55 0 -96 7.5t-83 24.5v123q46 -20 95 -33t82 -13q36 0 51.5 13t15.5 34q0 14 -8 25t-32 25t-71 36q-46 22 -75.5 43.5t-44 52t-14.5 76.5q0 76 57.5 114t151.5 38q95 0 185 -43l-45 -107q-39 17 -75.5 28.5t-65.5 11.5
q-53 0 -53 -36q0 -13 8 -23.5t31 -23t67 -31.5q45 -19 75.5 -39.5t46.5 -51t16 -79.5z" />
    <glyph glyph-name="t" unicode="t" horiz-adv-x="420" 
d="M303 109q24 0 44.5 5t42.5 12v-111q-25 -10 -58.5 -17.5t-78.5 -7.5q-48 0 -85.5 16t-58.5 55.5t-21 109.5v263h-65v63l78 50l44 115h103v-116h136v-112h-136v-263q0 -31 15 -46.5t40 -15.5z" />
    <glyph glyph-name="u" unicode="u" horiz-adv-x="624" 
d="M556 546v-546h-121l-21 70h-9q-25 -42 -67 -61t-90 -19q-79 0 -130.5 47.5t-51.5 152.5v356h160v-319q0 -58 17 -88t55 -30q58 0 78 46.5t20 133.5v257h160z" />
    <glyph glyph-name="v" unicode="v" horiz-adv-x="555" 
d="M197 0l-197 546h167l91 -311q8 -27 11.5 -57.5t4.5 -54.5h4q1 26 5 55.5t12 56.5l92 311h168l-197 -546h-161z" />
    <glyph glyph-name="w" unicode="w" horiz-adv-x="829" 
d="M440 288q-7 34 -13.5 69t-9.5 65h-3q-3 -30 -9 -66.5t-14 -71.5l-63 -284h-187l-131 546h156l52 -279q7 -37 13 -75t8 -67h4q2 19 6.5 47t9.5 53.5t7 36.5l63 284h174l61 -283q3 -14 7 -39.5t7.5 -52.5t4.5 -46h3q3 28 9 66t14 76l58 279h152l-135 -546h-186z" />
    <glyph glyph-name="x" unicode="x" horiz-adv-x="568" 
d="M176 279l-163 267h182l89 -174l91 174h181l-165 -267l172 -279h-181l-98 187l-98 -187h-181z" />
    <glyph glyph-name="y" unicode="y" horiz-adv-x="554" 
d="M0 546h171l91 -307q7 -22 10 -45.5t4 -49.5h4q2 26 5.5 49.5t10.5 45.5l91 307h168l-214 -615q-30 -85 -85.5 -128t-143.5 -43q-24 0 -41.5 2.5t-30.5 5.5v118q10 -2 24.5 -4t30.5 -2q44 0 68 28.5t34 68.5l7 27z" />
    <glyph glyph-name="z" unicode="z" horiz-adv-x="468" 
d="M442 0h-418v88l227 344h-214v114h395v-97l-218 -335h228v-114z" />
    <glyph glyph-name="braceleft" unicode="{" horiz-adv-x="389" 
d="M355 -158q-88 0 -135.5 14t-65.5 44t-18 78v154q0 47 -32.5 67t-82.5 20v117q50 0 82.5 20t32.5 67v155q0 48 17.5 78t65 44t136.5 14v-110q-33 -1 -58.5 -14t-25.5 -55v-146q0 -46 -28 -73t-81 -35v-6q109 -17 109 -108v-146q0 -42 26 -55t58 -14v-110z" />
    <glyph glyph-name="bar" unicode="|" horiz-adv-x="498" 
d="M193 757h112v-984h-112v984z" />
    <glyph glyph-name="braceright" unicode="}" horiz-adv-x="389" 
d="M34 -48q32 1 58 14t26 55v146q0 91 108 108v6q-52 8 -80 35t-28 73v146q0 42 -26 55t-58 14v110q89 0 136 -14t64.5 -44t17.5 -78v-155q0 -47 32.5 -67t83.5 -20v-117q-50 0 -83 -20t-33 -67v-154q0 -48 -17.5 -78t-64.5 -44t-136 -14v110z" />
    <glyph glyph-name="asciitilde" unicode="~" horiz-adv-x="536" 
d="M250 301q-34 16 -59 21.5t-47 5.5q-27 0 -55.5 -17t-51.5 -42v113q47 53 119 53q28 0 56 -5.5t72 -25.5q35 -16 60.5 -21.5t46.5 -5.5q26 0 54.5 17t52.5 42v-113q-48 -53 -120 -53q-27 0 -55 5.5t-73 25.5z" />
    <glyph glyph-name="uni00A0" unicode="&#xa0;" horiz-adv-x="244" 
 />
    <glyph glyph-name="exclamdown" unicode="&#xa1;" horiz-adv-x="272" 
d="M225 463q0 -46 -26 -64.5t-63 -18.5q-36 0 -62 18.5t-26 64.5q0 44 26 63.5t62 19.5q37 0 63 -19.5t26 -63.5zM70 296h131l24 -476h-179z" />
    <glyph glyph-name="cent" unicode="&#xa2;" horiz-adv-x="545" 
d="M348 647q43 -2 78.5 -12t64.5 -24l-47 -115q-33 14 -61 23t-57 9q-48 0 -74 -41t-26 -124q0 -82 27 -121t73 -39q41 0 76.5 10t71.5 27v-124q-28 -15 -58.5 -23.5t-67.5 -10.5v-92h-89v96q-91 14 -143.5 80t-52.5 196q0 94 24.5 152.5t69 89t102.5 39.5v81h89v-77z" />
    <glyph glyph-name="sterling" unicode="&#xa3;" horiz-adv-x="544" 
d="M327 724q50 0 97 -11.5t85 -28.5l-46 -112q-34 14 -64.5 22.5t-56.5 8.5q-25 0 -44 -18.5t-19 -65.5v-94h165v-107h-165v-70q0 -53 -23 -80t-48 -41h319v-127h-484v121q38 18 58.5 43.5t20.5 82.5v71h-79v107h79v95q0 74 26.5 118.5t73 65t105.5 20.5z" />
    <glyph glyph-name="currency" unicode="&#xa4;" horiz-adv-x="535" 
d="M85 353q0 26 5.5 50.5t15.5 45.5l-58 62l75 72l58 -62q39 26 84 26q44 0 86 -27l57 63l76 -70l-59 -63q22 -42 22 -97q0 -54 -22 -97l57 -61l-74 -71l-57 61q-19 -11 -41 -18t-45 -7q-49 0 -86 25l-56 -60l-74 71l57 61q-21 44 -21 96zM191 353q0 -38 21.5 -65t52.5 -27
q32 0 54.5 27t22.5 65q0 39 -22.5 66t-54.5 27q-31 0 -52.5 -27t-21.5 -66z" />
    <glyph glyph-name="yen" unicode="&#xa5;" horiz-adv-x="544" 
d="M271 420l105 294h164l-171 -365h89v-87h-112v-67h112v-87h-112v-108h-149v108h-114v87h114v67h-114v87h88l-168 365h164z" />
    <glyph glyph-name="brokenbar" unicode="&#xa6;" horiz-adv-x="498" 
d="M193 757h112v-398h-112v398zM193 171h112v-398h-112v398z" />
    <glyph glyph-name="section" unicode="&#xa7;" horiz-adv-x="463" 
d="M52 391q0 43 21 73t47 48q-30 20 -46.5 48t-16.5 65q0 63 50 101.5t136 38.5q47 0 89 -11.5t79 -29.5l-41 -93q-31 16 -64 28.5t-65 12.5q-60 0 -60 -45q0 -25 19.5 -42.5t70.5 -37.5q72 -28 109.5 -67.5t37.5 -98.5q0 -49 -18.5 -78.5t-43.5 -47.5q26 -19 41.5 -45
t15.5 -62q0 -72 -52.5 -115t-148.5 -43q-49 0 -88.5 10t-72.5 29v101q38 -19 83 -33.5t78 -14.5q44 0 60.5 16.5t16.5 40.5q0 17 -6.5 29t-25 24.5t-55.5 29.5q-46 21 -79.5 43t-52 52t-18.5 74zM170 402q0 -30 22.5 -53.5t70.5 -46.5l9 -4q10 11 18.5 28t8.5 42
q0 30 -19.5 53.5t-75.5 47.5q-13 -7 -23.5 -24.5t-10.5 -42.5z" />
    <glyph glyph-name="dieresis" unicode="&#xa8;" horiz-adv-x="568" 
d="M115 686q0 35 20.5 50.5t50.5 15.5q29 0 50.5 -15.5t21.5 -50.5q0 -33 -21.5 -49t-50.5 -16q-30 0 -50.5 16t-20.5 49zM317 686q0 35 21 50.5t51 15.5q29 0 50.5 -15.5t21.5 -50.5q0 -33 -21.5 -49t-50.5 -16q-30 0 -51 16t-21 49z" />
    <glyph glyph-name="copyright" unicode="&#xa9;" horiz-adv-x="778" 
d="M44 357q0 76 26.5 142.5t74 117t110 79t134.5 28.5t134.5 -28.5t110 -79t74 -117t26.5 -142.5t-26.5 -142.5t-74 -117t-110 -79t-134.5 -28.5t-134.5 28.5t-110 79t-74 117t-26.5 142.5zM106 357q0 -65 22 -122t61 -100t90.5 -67.5t109.5 -24.5q59 0 110 24.5t90 67.5
t61 100t22 122t-22 122t-61 100t-90 67.5t-110 24.5q-58 0 -109.5 -24.5t-90.5 -67.5t-61 -100t-22 -122zM408 515q-46 0 -72 -42t-26 -116q0 -76 23.5 -117.5t75.5 -41.5q26 0 54.5 6.5t54.5 16.5v-64q-26 -10 -52.5 -17t-61.5 -7q-97 0 -146 61.5t-49 162.5q0 65 22 115.5
t65.5 79t107.5 28.5q35 0 68 -8t63 -22l-35 -61q-47 26 -92 26z" />
    <glyph glyph-name="ordfeminine" unicode="&#xaa;" horiz-adv-x="367" 
d="M194 722q64 0 99 -36t35 -97v-216h-68l-18 54q-19 -28 -46 -44t-65 -16q-47 0 -78 27t-31 82q0 59 41.5 83t117.5 28l43 2v8q0 49 -53 49q-22 0 -45.5 -8t-52.5 -22l-32 66q32 16 67.5 28t85.5 12zM182 528q-35 -2 -45 -18t-10 -33q0 -36 34 -36q30 0 46.5 20.5
t16.5 51.5v18z" />
    <glyph glyph-name="guillemotleft" unicode="&#xab;" horiz-adv-x="609" 
d="M36 280l174 222l115 -58l-126 -170l126 -170l-115 -58l-174 221v13zM284 280l174 222l115 -58l-127 -170l127 -170l-115 -58l-174 221v13z" />
    <glyph glyph-name="logicalnot" unicode="&#xac;" horiz-adv-x="536" 
d="M498 406v-285h-113v178h-348v107h461z" />
    <glyph glyph-name="uni00AD" unicode="&#xad;" horiz-adv-x="322" 
d="M24 207v122h253v-122h-253z" />
    <glyph glyph-name="registered" unicode="&#xae;" horiz-adv-x="778" 
d="M44 357q0 76 26.5 142.5t74 117t110 79t134.5 28.5t134.5 -28.5t110 -79t74 -117t26.5 -142.5t-26.5 -142.5t-74 -117t-110 -79t-134.5 -28.5t-134.5 28.5t-110 79t-74 117t-26.5 142.5zM106 357q0 -65 22 -122t61 -100t90.5 -67.5t109.5 -24.5q59 0 110 24.5t90 67.5
t61 100t22 122t-22 122t-61 100t-90 67.5t-110 24.5q-58 0 -109.5 -24.5t-90.5 -67.5t-61 -100t-22 -122zM542 446q0 -47 -20.5 -74.5t-48.5 -39.5l99 -194h-107l-81 173h-37v-173h-100v437h127q87 0 127.5 -32t40.5 -97zM373 373q32 0 50 20t18 51q0 35 -17 51t-51 16h-26
v-138h26z" />
    <glyph glyph-name="overscore" unicode="&#xaf;" horiz-adv-x="470" 
d="M473 760h-476v98h476v-98z" />
    <glyph glyph-name="degree" unicode="&#xb0;" horiz-adv-x="400" 
d="M36 555q0 47 22 85t59.5 61t82.5 23q46 0 83 -23t59 -61t22 -85t-22 -85t-59 -60.5t-83 -22.5q-45 0 -82.5 22.5t-59.5 60.5t-22 85zM134 555q0 -31 19.5 -53t46.5 -22t46.5 22t19.5 53q0 32 -19.5 54.5t-46.5 22.5t-46.5 -22.5t-19.5 -54.5z" />
    <glyph glyph-name="plusminus" unicode="&#xb1;" horiz-adv-x="536" 
d="M323 436h175v-107h-175v-188h-112v188h-174v107h174v190h112v-190zM37 0v107h461v-107h-461z" />
    <glyph glyph-name="uni00B2" unicode="&#xb2;" horiz-adv-x="366" 
d="M333 416h-303v82l101 107q41 44 56 67.5t15 49.5q0 38 -36 38q-33 0 -80 -43l-61 74q30 28 68.5 45.5t93.5 17.5q65 0 100.5 -31.5t35.5 -90.5q0 -30 -13.5 -56t-38.5 -53.5t-58 -63.5l-41 -45h161v-98z" />
    <glyph glyph-name="uni00B3" unicode="&#xb3;" horiz-adv-x="366" 
d="M180 853q63 0 101 -30.5t38 -82.5q0 -34 -17.5 -58.5t-58.5 -38.5v-6q46 -10 68 -38.5t22 -63.5q0 -59 -43.5 -93t-126.5 -34q-77 0 -133 34v93q30 -19 63 -31.5t67 -12.5q60 0 60 52q0 20 -13 36t-56 16h-50v78h39q44 0 57 16.5t13 36.5q0 19 -10.5 31t-33.5 12
q-22 0 -42 -9t-45 -29l-50 69q29 23 65.5 38t85.5 15z" />
    <glyph glyph-name="acute" unicode="&#xb4;" horiz-adv-x="371" 
d="M331 756q-15 -14 -38.5 -34t-50.5 -42t-52 -41.5t-44 -32.5h-106v13q16 19 37 44.5t42.5 53t35.5 49.5h176v-10z" />
    <glyph glyph-name="uni00B5" unicode="&#xb5;" horiz-adv-x="627" 
d="M559 546v-546h-121l-22 73h-7q-35 -83 -106 -83q-27 0 -45.5 11.5t-32.5 32.5h-2q1 -10 2 -31.5t2 -45t1 -41.5v-156h-160v786h160v-319q0 -58 17.5 -88t57.5 -30q54 0 74.5 46.5t20.5 133.5v257h161z" />
    <glyph glyph-name="paragraph" unicode="&#xb6;" horiz-adv-x="610" 
d="M540 -127h-81v789h-74v-789h-81v400q-14 -4 -28 -6.5t-34 -2.5q-58 0 -101.5 23t-67.5 77t-24 145q0 96 26 150.5t73 77.5t108 23h284v-887z" />
    <glyph glyph-name="periodcentered" unicode="&#xb7;" horiz-adv-x="285" 
d="M47 352q0 46 26 64.5t63 18.5q35 0 61 -18.5t26 -64.5q0 -44 -26 -63.5t-61 -19.5q-37 0 -63 19.5t-26 63.5z" />
    <glyph glyph-name="cedilla" unicode="&#xb8;" horiz-adv-x="250" 
d="M237 -122q0 -56 -32.5 -87t-101.5 -31q-26 0 -47.5 3t-36.5 7v82q14 -4 31.5 -7t31.5 -3q16 0 26 6.5t10 23.5q0 18 -16.5 32t-55.5 21l32 75h89l-10 -30q28 -10 54 -32.5t26 -59.5z" />
    <glyph glyph-name="uni00B9" unicode="&#xb9;" horiz-adv-x="366" 
d="M265 844v-428h-119v218q0 13 0.5 34t1.5 40.5t2 26.5q-5 -8 -14.5 -19.5t-17.5 -18.5l-36 -30l-58 62l147 115h94z" />
    <glyph glyph-name="ordmasculine" unicode="&#xba;" horiz-adv-x="366" 
d="M342 545q0 -85 -43 -131.5t-117 -46.5q-69 0 -113.5 46.5t-44.5 131.5t43 131t117 46q68 0 113 -46t45 -131zM128 545q0 -98 55 -98q53 0 53 98q0 97 -53 97q-55 0 -55 -97z" />
    <glyph glyph-name="guillemotright" unicode="&#xbb;" horiz-adv-x="609" 
d="M573 267l-174 -221l-115 58l127 170l-127 170l115 58l174 -222v-13zM325 267l-174 -221l-115 58l126 170l-126 170l115 58l174 -222v-13z" />
    <glyph glyph-name="onequarter" unicode="&#xbc;" horiz-adv-x="808" 
d="M155 0l360 714h124l-359 -714h-125zM130 504q0 13 0.5 34t1.5 40.5t2 26.5q-4 -8 -13 -19.5t-18 -18.5l-37 -30l-58 62l147 115h94v-428h-119v218zM624 0v74h-173v75l169 282h122v-275h57v-82h-57v-74h-118zM542 156h82v80q0 42 3 90q-7 -13 -16 -38t-16 -39z" />
    <glyph glyph-name="onehalf" unicode="&#xbd;" horiz-adv-x="847" 
d="M161 0l359 714h124l-359 -714h-124zM130 504q0 13 1 34t2 40.5t1 26.5q-4 -8 -14 -19.5t-18 -18.5l-36 -30l-58 62l147 115h94v-428h-119v218zM511 0v82l100 107q41 44 56 67.5t15 49.5q0 38 -35 38q-18 0 -38 -10t-43 -33l-60 74q33 28 71.5 45.5t90.5 17.5
q62 0 99 -31.5t37 -90.5q0 -45 -19 -84.5t-69 -81.5l-62 -52h160v-98h-303z" />
    <glyph glyph-name="threequarters" unicode="&#xbe;" horiz-adv-x="830" 
d="M174 278q-75 0 -133 34v93q29 -19 61 -31.5t69 -12.5q60 0 60 52q0 20 -15.5 36t-53.5 16h-50v78h39q41 0 55.5 16.5t14.5 36.5q0 19 -10.5 31t-33.5 12q-22 0 -41.5 -9t-45.5 -29l-50 69q32 23 68.5 38t82.5 15q62 0 100.5 -30.5t38.5 -82.5q0 -34 -17.5 -58.5
t-58.5 -38.5v-6q46 -10 68 -38.5t22 -63.5q0 -59 -43 -93t-127 -34zM196 0l359 714h124l-359 -714h-124zM647 0v74h-173v75l168 282h122v-275h57v-82h-57v-74h-117zM565 156h82v80q0 20 0.5 43t1.5 47q-7 -13 -16 -38t-16 -39z" />
    <glyph glyph-name="questiondown" unicode="&#xbf;" horiz-adv-x="477" 
d="M349 259q0 -50 -18.5 -84.5t-67.5 -70.5q-44 -32 -59 -55.5t-15 -55.5t20 -48.5t54 -16.5q37 0 76.5 13t82.5 35l57 -107q-49 -27 -105 -44t-123 -17q-101 0 -156.5 50t-55.5 127q0 41 12 70.5t36 55.5t61 55q27 21 42.5 36t21.5 29t6 35v29h131v-36zM367 462
q0 -46 -26 -64.5t-63 -18.5q-36 0 -62 18.5t-26 64.5q0 44 26 63.5t62 19.5q37 0 63 -19.5t26 -63.5z" />
    <glyph glyph-name="Agrave" unicode="&#xc0;" horiz-adv-x="665" 
d="M490 0l-41 170h-231l-42 -170h-176l228 717h208l229 -717h-175zM367 463q-9 32 -18 67.5t-16 75.5q-7 -40 -16 -76.5t-17 -66.5l-46 -166h160zM325 934q15 -22 36 -49.5t42 -53t36 -44.5v-13h-106q-18 13 -43.5 32.5t-52.5 41.5t-50.5 42t-38.5 34v10h177z" />
    <glyph glyph-name="Aacute" unicode="&#xc1;" horiz-adv-x="665" 
d="M490 0l-41 170h-231l-42 -170h-176l228 717h208l229 -717h-175zM367 463q-9 32 -18 67.5t-16 75.5q-7 -40 -16 -76.5t-17 -66.5l-46 -166h160zM548 924q-15 -14 -38.5 -34t-50.5 -42t-52 -41.5t-44 -32.5h-106v13q16 19 37 44.5t42.5 53t35.5 49.5h176v-10z" />
    <glyph glyph-name="Acircumflex" unicode="&#xc2;" horiz-adv-x="665" 
d="M490 0l-41 170h-231l-42 -170h-176l228 717h208l229 -717h-175zM367 463q-9 32 -18 67.5t-16 75.5q-7 -40 -16 -76.5t-17 -66.5l-46 -166h160zM419 934q14 -22 35.5 -49.5t43.5 -53.5t38 -44v-13h-104q-25 16 -50.5 37.5t-49.5 48.5q-25 -27 -48.5 -48t-48.5 -38h-106v13
q18 19 40 44.5t43.5 53t34.5 49.5h172z" />
    <glyph glyph-name="Atilde" unicode="&#xc3;" horiz-adv-x="665" 
d="M490 0l-41 170h-231l-42 -170h-176l228 717h208l229 -717h-175zM367 463q-9 32 -18 67.5t-16 75.5q-7 -40 -16 -76.5t-17 -66.5l-46 -166h160zM525 925q-6 -77 -39 -114t-80 -37q-26 0 -52 12.5t-50.5 25.5t-47.5 13q-11 0 -22.5 -13t-16.5 -39h-76q6 78 38.5 114.5
t81.5 36.5q25 0 50 -13t50 -25.5t48 -12.5q11 0 22.5 13t16.5 39h77z" />
    <glyph glyph-name="Adieresis" unicode="&#xc4;" horiz-adv-x="665" 
d="M490 0l-41 170h-231l-42 -170h-176l228 717h208l229 -717h-175zM367 463q-9 32 -18 67.5t-16 75.5q-7 -40 -16 -76.5t-17 -66.5l-46 -166h160zM160 854q0 35 20.5 50.5t50.5 15.5q29 0 50.5 -15.5t21.5 -50.5q0 -33 -21.5 -49t-50.5 -16q-30 0 -50.5 16t-20.5 49z
M362 854q0 35 21 50.5t51 15.5q29 0 50.5 -15.5t21.5 -50.5q0 -33 -21.5 -49t-50.5 -16q-30 0 -51 16t-21 49z" />
    <glyph glyph-name="Aring" unicode="&#xc5;" horiz-adv-x="665" 
d="M490 0l-41 170h-231l-42 -170h-176l228 717h208l229 -717h-175zM367 463q-9 32 -18 67.5t-16 75.5q-7 -40 -16 -76.5t-17 -66.5l-46 -166h160zM318 648q-52 0 -84.5 31t-32.5 85t32.5 85t84.5 31q50 0 85.5 -31t35.5 -84q0 -55 -35 -86t-86 -31zM318 717q18 0 30 12.5
t12 34.5t-12 34.5t-30 12.5q-17 0 -29 -12.5t-12 -34.5t10.5 -34.5t30.5 -12.5z" />
    <glyph glyph-name="AE" unicode="&#xc6;" horiz-adv-x="892" 
d="M842 0h-400v170h-213l-57 -170h-174l295 714h549v-124h-238v-157h222v-124h-222v-184h238v-125zM283 297h159v288h-54z" />
    <glyph glyph-name="Ccedilla" unicode="&#xc7;" horiz-adv-x="604" 
d="M370 598q-73 0 -113 -65t-40 -178q0 -114 38.5 -176.5t119.5 -62.5q43 0 84.5 10t86.5 28v-127q-44 -19 -89 -28t-98 -9q-107 0 -175 45.5t-100.5 128t-32.5 192.5q0 108 37 191t108.5 130t174.5 47q50 0 105.5 -13.5t96.5 -36.5l-51 -123q-37 19 -74.5 33t-77.5 14z
M519 -122q0 -56 -32.5 -87t-101.5 -31q-26 0 -47.5 3t-36.5 7v82q14 -4 31.5 -7t31.5 -3q16 0 26 6.5t10 23.5q0 18 -16.5 32t-55.5 21l32 75h89l-10 -30q28 -10 54 -32.5t26 -59.5z" />
    <glyph glyph-name="Egrave" unicode="&#xc8;" horiz-adv-x="521" 
d="M471 0h-392v714h392v-124h-230v-157h214v-124h-214v-184h230v-125zM270 934q15 -22 36 -49.5t42 -53t36 -44.5v-13h-106q-18 13 -43.5 32.5t-52.5 41.5t-50.5 42t-38.5 34v10h177z" />
    <glyph glyph-name="Eacute" unicode="&#xc9;" horiz-adv-x="521" 
d="M471 0h-392v714h392v-124h-230v-157h214v-124h-214v-184h230v-125zM493 924q-15 -14 -38.5 -34t-50.5 -42t-52 -41.5t-44 -32.5h-106v13q16 19 37 44.5t42.5 53t35.5 49.5h176v-10z" />
    <glyph glyph-name="Ecircumflex" unicode="&#xca;" horiz-adv-x="521" 
d="M471 0h-392v714h392v-124h-230v-157h214v-124h-214v-184h230v-125zM364 934q14 -22 35.5 -49.5t43.5 -53.5t38 -44v-13h-104q-25 16 -50.5 37.5t-49.5 48.5q-25 -27 -48.5 -48t-48.5 -38h-106v13q18 19 40 44.5t43.5 53t34.5 49.5h172z" />
    <glyph glyph-name="Edieresis" unicode="&#xcb;" horiz-adv-x="521" 
d="M471 0h-392v714h392v-124h-230v-157h214v-124h-214v-184h230v-125zM105 854q0 35 20.5 50.5t50.5 15.5q29 0 50.5 -15.5t21.5 -50.5q0 -33 -21.5 -49t-50.5 -16q-30 0 -50.5 16t-20.5 49zM307 854q0 35 21 50.5t51 15.5q29 0 50.5 -15.5t21.5 -50.5q0 -33 -21.5 -49
t-50.5 -16q-30 0 -51 16t-21 49z" />
    <glyph glyph-name="Igrave" unicode="&#xcc;" horiz-adv-x="389" 
d="M358 0h-327v86l83 40v462l-83 40v86h327v-86l-82 -40v-462l82 -40v-86zM187 934q15 -22 36 -49.5t42 -53t36 -44.5v-13h-106q-18 13 -43.5 32.5t-52.5 41.5t-50.5 42t-38.5 34v10h177z" />
    <glyph glyph-name="Iacute" unicode="&#xcd;" horiz-adv-x="389" 
d="M358 0h-327v86l83 40v462l-83 40v86h327v-86l-82 -40v-462l82 -40v-86zM410 924q-15 -14 -38.5 -34t-50.5 -42t-52 -41.5t-44 -32.5h-106v13q16 19 37 44.5t42.5 53t35.5 49.5h176v-10z" />
    <glyph glyph-name="Icircumflex" unicode="&#xce;" horiz-adv-x="389" 
d="M358 0h-327v86l83 40v462l-83 40v86h327v-86l-82 -40v-462l82 -40v-86zM281 934q14 -22 35.5 -49.5t43.5 -53.5t38 -44v-13h-104q-25 16 -50.5 37.5t-49.5 48.5q-25 -27 -48.5 -48t-48.5 -38h-106v13q18 19 40 44.5t43.5 53t34.5 49.5h172z" />
    <glyph glyph-name="Idieresis" unicode="&#xcf;" horiz-adv-x="389" 
d="M358 0h-327v86l83 40v462l-83 40v86h327v-86l-82 -40v-462l82 -40v-86zM22 854q0 35 20.5 50.5t50.5 15.5q29 0 50.5 -15.5t21.5 -50.5q0 -33 -21.5 -49t-50.5 -16q-30 0 -50.5 16t-20.5 49zM224 854q0 35 21 50.5t51 15.5q29 0 50.5 -15.5t21.5 -50.5q0 -33 -21.5 -49
t-50.5 -16q-30 0 -51 16t-21 49z" />
    <glyph glyph-name="Eth" unicode="&#xd0;" horiz-adv-x="693" 
d="M300 714q160 0 251 -89t91 -261q0 -120 -43.5 -201t-124.5 -122t-192 -41h-203v291h-61v124h61v299h221zM304 590h-64v-175h103v-124h-103v-166h51q183 0 183 235q0 119 -43.5 174.5t-126.5 55.5z" />
    <glyph glyph-name="Ntilde" unicode="&#xd1;" horiz-adv-x="775" 
d="M696 0h-209l-269 540h-4q2 -51 5 -102t4 -102v-336h-144v714h208l268 -535h3q-1 50 -3.5 99t-3.5 98v338h145v-714zM580 925q-6 -77 -39 -114t-80 -37q-26 0 -52 12.5t-50.5 25.5t-47.5 13q-11 0 -22.5 -13t-16.5 -39h-76q6 78 38.5 114.5t81.5 36.5q25 0 50 -13
t50 -25.5t48 -12.5q11 0 22.5 13t16.5 39h77z" />
    <glyph glyph-name="Ograve" unicode="&#xd2;" horiz-adv-x="749" 
d="M697 358q0 -111 -34 -193.5t-105 -128.5t-184 -46q-111 0 -182.5 46t-106 129t-34.5 194t34.5 193t106.5 127.5t183 45.5q112 0 183 -45.5t105 -128t34 -193.5zM221 358q0 -112 36 -176.5t117 -64.5q83 0 118 64.5t35 176.5q0 113 -35 177t-117 64t-118 -64t-36 -177z
M366 945q15 -22 36 -49.5t42 -53t36 -44.5v-13h-106q-18 13 -43.5 32.5t-52.5 41.5t-50.5 42t-38.5 34v10h177z" />
    <glyph glyph-name="Oacute" unicode="&#xd3;" horiz-adv-x="749" 
d="M697 358q0 -111 -34 -193.5t-105 -128.5t-184 -46q-111 0 -182.5 46t-106 129t-34.5 194t34.5 193t106.5 127.5t183 45.5q112 0 183 -45.5t105 -128t34 -193.5zM221 358q0 -112 36 -176.5t117 -64.5q83 0 118 64.5t35 176.5q0 113 -35 177t-117 64t-118 -64t-36 -177z
M589 935q-15 -14 -38.5 -34t-50.5 -42t-52 -41.5t-44 -32.5h-106v13q16 19 37 44.5t42.5 53t35.5 49.5h176v-10z" />
    <glyph glyph-name="Ocircumflex" unicode="&#xd4;" horiz-adv-x="749" 
d="M697 358q0 -111 -34 -193.5t-105 -128.5t-184 -46q-111 0 -182.5 46t-106 129t-34.5 194t34.5 193t106.5 127.5t183 45.5q112 0 183 -45.5t105 -128t34 -193.5zM221 358q0 -112 36 -176.5t117 -64.5q83 0 118 64.5t35 176.5q0 113 -35 177t-117 64t-118 -64t-36 -177z
M460 945q14 -22 35.5 -49.5t43.5 -53.5t38 -44v-13h-104q-25 16 -50.5 37.5t-49.5 48.5q-25 -27 -48.5 -48t-48.5 -38h-106v13q18 19 40 44.5t43.5 53t34.5 49.5h172z" />
    <glyph glyph-name="Otilde" unicode="&#xd5;" horiz-adv-x="749" 
d="M697 358q0 -111 -34 -193.5t-105 -128.5t-184 -46q-111 0 -182.5 46t-106 129t-34.5 194t34.5 193t106.5 127.5t183 45.5q112 0 183 -45.5t105 -128t34 -193.5zM221 358q0 -112 36 -176.5t117 -64.5q83 0 118 64.5t35 176.5q0 113 -35 177t-117 64t-118 -64t-36 -177z
M566 936q-6 -77 -39 -114t-80 -37q-26 0 -52 12.5t-50.5 25.5t-47.5 13q-11 0 -22.5 -13t-16.5 -39h-76q6 78 38.5 114.5t81.5 36.5q25 0 50 -13t50 -25.5t48 -12.5q11 0 22.5 13t16.5 39h77z" />
    <glyph glyph-name="Odieresis" unicode="&#xd6;" horiz-adv-x="749" 
d="M697 358q0 -111 -34 -193.5t-105 -128.5t-184 -46q-111 0 -182.5 46t-106 129t-34.5 194t34.5 193t106.5 127.5t183 45.5q112 0 183 -45.5t105 -128t34 -193.5zM221 358q0 -112 36 -176.5t117 -64.5q83 0 118 64.5t35 176.5q0 113 -35 177t-117 64t-118 -64t-36 -177z
M201 865q0 35 20.5 50.5t50.5 15.5q29 0 50.5 -15.5t21.5 -50.5q0 -33 -21.5 -49t-50.5 -16q-30 0 -50.5 16t-20.5 49zM403 865q0 35 21 50.5t51 15.5q29 0 50.5 -15.5t21.5 -50.5q0 -33 -21.5 -49t-50.5 -16q-30 0 -51 16t-21 49z" />
    <glyph glyph-name="multiply" unicode="&#xd7;" horiz-adv-x="534" 
d="M398 575l78 -73l-133 -149l131 -148l-76 -74l-133 147l-131 -146l-76 74l129 147l-130 147l77 75l131 -146z" />
    <glyph glyph-name="Oslash" unicode="&#xd8;" horiz-adv-x="749" 
d="M697 358q0 -111 -34 -193.5t-105 -128.5t-184 -46q-84 0 -148 32l-40 -66l-81 53l40 66q-48 49 -71 121t-23 163q0 111 34.5 193t106.5 127.5t183 45.5q89 0 154 -34l37 61l80 -51l-39 -64q47 -48 68.5 -119t21.5 -160zM221 358q0 -45 4.5 -83t14.5 -67l209 369
q-33 22 -74 22q-82 0 -118 -64t-36 -177zM527 358q0 44 -4 80.5t-12 64.5l-205 -367q29 -19 68 -19q83 0 118 64.5t35 176.5z" />
    <glyph glyph-name="Ugrave" unicode="&#xd9;" horiz-adv-x="711" 
d="M637 252q0 -74 -31.5 -133.5t-94.5 -94t-158 -34.5q-136 0 -207.5 72.5t-71.5 191.5v460h162v-437q0 -88 30.5 -124t89.5 -36q63 0 91 39t28 122v436h162v-462zM348 934q15 -22 36 -49.5t42 -53t36 -44.5v-13h-106q-18 13 -43.5 32.5t-52.5 41.5t-50.5 42t-38.5 34v10
h177z" />
    <glyph glyph-name="Uacute" unicode="&#xda;" horiz-adv-x="711" 
d="M637 252q0 -74 -31.5 -133.5t-94.5 -94t-158 -34.5q-136 0 -207.5 72.5t-71.5 191.5v460h162v-437q0 -88 30.5 -124t89.5 -36q63 0 91 39t28 122v436h162v-462zM571 924q-15 -14 -38.5 -34t-50.5 -42t-52 -41.5t-44 -32.5h-106v13q16 19 37 44.5t42.5 53t35.5 49.5h176
v-10z" />
    <glyph glyph-name="Ucircumflex" unicode="&#xdb;" horiz-adv-x="711" 
d="M637 252q0 -74 -31.5 -133.5t-94.5 -94t-158 -34.5q-136 0 -207.5 72.5t-71.5 191.5v460h162v-437q0 -88 30.5 -124t89.5 -36q63 0 91 39t28 122v436h162v-462zM442 934q14 -22 35.5 -49.5t43.5 -53.5t38 -44v-13h-104q-25 16 -50.5 37.5t-49.5 48.5q-25 -27 -48.5 -48
t-48.5 -38h-106v13q18 19 40 44.5t43.5 53t34.5 49.5h172z" />
    <glyph glyph-name="Udieresis" unicode="&#xdc;" horiz-adv-x="711" 
d="M637 252q0 -74 -31.5 -133.5t-94.5 -94t-158 -34.5q-136 0 -207.5 72.5t-71.5 191.5v460h162v-437q0 -88 30.5 -124t89.5 -36q63 0 91 39t28 122v436h162v-462zM183 854q0 35 20.5 50.5t50.5 15.5q29 0 50.5 -15.5t21.5 -50.5q0 -33 -21.5 -49t-50.5 -16q-30 0 -50.5 16
t-20.5 49zM385 854q0 35 21 50.5t51 15.5q29 0 50.5 -15.5t21.5 -50.5q0 -33 -21.5 -49t-50.5 -16q-30 0 -51 16t-21 49z" />
    <glyph glyph-name="Yacute" unicode="&#xdd;" horiz-adv-x="605" 
d="M303 420l128 294h174l-222 -436v-278h-161v273l-222 441h176zM518 924q-15 -14 -38.5 -34t-50.5 -42t-52 -41.5t-44 -32.5h-106v13q16 19 37 44.5t42.5 53t35.5 49.5h176v-10z" />
    <glyph glyph-name="Thorn" unicode="&#xde;" horiz-adv-x="590" 
d="M554 376q0 -61 -23.5 -114t-79 -86t-150.5 -33h-60v-143h-162v714h162v-112h66q126 0 186.5 -61.5t60.5 -164.5zM280 265q51 0 81 26t30 85q0 53 -23.5 78t-74.5 25h-52v-214h39z" />
    <glyph glyph-name="germandbls" unicode="&#xdf;" horiz-adv-x="687" 
d="M594 606q0 -37 -13 -64t-32 -47t-37.5 -35t-31.5 -27.5t-13 -25.5q0 -19 23.5 -36t74.5 -52q45 -31 68.5 -66t23.5 -94q0 -83 -53.5 -126t-156.5 -43q-54 0 -89.5 7.5t-64.5 23.5v118q23 -16 60.5 -29t67.5 -13q32 0 51 15t19 45q0 18 -6 30.5t-24 27.5t-55 37
q-58 35 -80.5 64t-22.5 69q0 31 13 53t32 38t38 31t32 32t13 41q0 31 -26.5 50t-69.5 19q-51 0 -79 -24t-28 -74v-551h-160v556q0 71 35 117.5t95.5 69t136.5 22.5q75 0 133.5 -18.5t92 -54t33.5 -86.5z" />
    <glyph glyph-name="agrave" unicode="&#xe0;" horiz-adv-x="577" 
d="M300 557q101 0 156.5 -47.5t55.5 -145.5v-364h-111l-31 74h-4q-33 -44 -69.5 -64t-101.5 -20q-67 0 -112.5 42.5t-45.5 130.5q0 87 57.5 128.5t169.5 45.5l88 3v24q0 43 -19 63t-52 20q-34 0 -71 -11.5t-74 -28.5l-49 101q44 23 97.5 36t115.5 13zM305 251
q-58 -2 -81.5 -26t-23.5 -63q0 -34 16.5 -48.5t43.5 -14.5q38 0 65.5 28.5t27.5 80.5v45zM281 777q15 -22 36 -49.5t42 -53t36 -44.5v-13h-106q-18 13 -43.5 32.5t-52.5 41.5t-50.5 42t-38.5 34v10h177z" />
    <glyph glyph-name="aacute" unicode="&#xe1;" horiz-adv-x="577" 
d="M300 557q101 0 156.5 -47.5t55.5 -145.5v-364h-111l-31 74h-4q-33 -44 -69.5 -64t-101.5 -20q-67 0 -112.5 42.5t-45.5 130.5q0 87 57.5 128.5t169.5 45.5l88 3v24q0 43 -19 63t-52 20q-34 0 -71 -11.5t-74 -28.5l-49 101q44 23 97.5 36t115.5 13zM305 251
q-58 -2 -81.5 -26t-23.5 -63q0 -34 16.5 -48.5t43.5 -14.5q38 0 65.5 28.5t27.5 80.5v45zM504 767q-15 -14 -38.5 -34t-50.5 -42t-52 -41.5t-44 -32.5h-106v13q16 19 37 44.5t42.5 53t35.5 49.5h176v-10z" />
    <glyph glyph-name="acircumflex" unicode="&#xe2;" horiz-adv-x="577" 
d="M300 557q101 0 156.5 -47.5t55.5 -145.5v-364h-111l-31 74h-4q-33 -44 -69.5 -64t-101.5 -20q-67 0 -112.5 42.5t-45.5 130.5q0 87 57.5 128.5t169.5 45.5l88 3v24q0 43 -19 63t-52 20q-34 0 -71 -11.5t-74 -28.5l-49 101q44 23 97.5 36t115.5 13zM305 251
q-58 -2 -81.5 -26t-23.5 -63q0 -34 16.5 -48.5t43.5 -14.5q38 0 65.5 28.5t27.5 80.5v45zM375 777q14 -22 35.5 -49.5t43.5 -53.5t38 -44v-13h-104q-25 16 -50.5 37.5t-49.5 48.5q-25 -27 -48.5 -48t-48.5 -38h-106v13q18 19 40 44.5t43.5 53t34.5 49.5h172z" />
    <glyph glyph-name="atilde" unicode="&#xe3;" horiz-adv-x="577" 
d="M300 557q101 0 156.5 -47.5t55.5 -145.5v-364h-111l-31 74h-4q-33 -44 -69.5 -64t-101.5 -20q-67 0 -112.5 42.5t-45.5 130.5q0 87 57.5 128.5t169.5 45.5l88 3v24q0 43 -19 63t-52 20q-34 0 -71 -11.5t-74 -28.5l-49 101q44 23 97.5 36t115.5 13zM305 251
q-58 -2 -81.5 -26t-23.5 -63q0 -34 16.5 -48.5t43.5 -14.5q38 0 65.5 28.5t27.5 80.5v45zM481 768q-6 -77 -39 -114t-80 -37q-26 0 -52 12.5t-50.5 25.5t-47.5 13q-11 0 -22.5 -13t-16.5 -39h-76q6 78 38.5 114.5t81.5 36.5q25 0 50 -13t50 -25.5t48 -12.5q11 0 22.5 13
t16.5 39h77z" />
    <glyph glyph-name="adieresis" unicode="&#xe4;" horiz-adv-x="577" 
d="M300 557q101 0 156.5 -47.5t55.5 -145.5v-364h-111l-31 74h-4q-33 -44 -69.5 -64t-101.5 -20q-67 0 -112.5 42.5t-45.5 130.5q0 87 57.5 128.5t169.5 45.5l88 3v24q0 43 -19 63t-52 20q-34 0 -71 -11.5t-74 -28.5l-49 101q44 23 97.5 36t115.5 13zM305 251
q-58 -2 -81.5 -26t-23.5 -63q0 -34 16.5 -48.5t43.5 -14.5q38 0 65.5 28.5t27.5 80.5v45zM116 697q0 35 20.5 50.5t50.5 15.5q29 0 50.5 -15.5t21.5 -50.5q0 -33 -21.5 -49t-50.5 -16q-30 0 -50.5 16t-20.5 49zM318 697q0 35 21 50.5t51 15.5q29 0 50.5 -15.5t21.5 -50.5
q0 -33 -21.5 -49t-50.5 -16q-30 0 -51 16t-21 49z" />
    <glyph glyph-name="aring" unicode="&#xe5;" horiz-adv-x="577" 
d="M300 557q101 0 156.5 -47.5t55.5 -145.5v-364h-111l-31 74h-4q-33 -44 -69.5 -64t-101.5 -20q-67 0 -112.5 42.5t-45.5 130.5q0 87 57.5 128.5t169.5 45.5l88 3v24q0 43 -19 63t-52 20q-34 0 -71 -11.5t-74 -28.5l-49 101q44 23 97.5 36t115.5 13zM305 251
q-58 -2 -81.5 -26t-23.5 -63q0 -34 16.5 -48.5t43.5 -14.5q38 0 65.5 28.5t27.5 80.5v45zM287 616q-52 0 -84.5 31t-32.5 85t32.5 85t84.5 31q50 0 85.5 -31t35.5 -84q0 -55 -35 -86t-86 -31zM287 685q18 0 30 12.5t12 34.5t-12 34.5t-30 12.5q-17 0 -29 -12.5t-12 -34.5
t10.5 -34.5t30.5 -12.5z" />
    <glyph glyph-name="ae" unicode="&#xe6;" horiz-adv-x="871" 
d="M608 556q66 0 116 -29t78.5 -84t28.5 -135v-72h-326q2 -63 34 -99t90 -36q84 0 171 43v-115q-38 -20 -80.5 -29.5t-106.5 -9.5q-61 0 -112.5 25t-85.5 76q-30 -35 -58 -57.5t-64.5 -33t-91.5 -10.5q-43 0 -80.5 18.5t-60.5 57t-23 97.5q0 87 59.5 128.5t165.5 45.5l86 3
v41q0 34 -19.5 50t-49.5 16q-34 0 -70.5 -10.5t-71.5 -27.5l-48 99q42 23 94 36t107 13q97 0 155 -64q32 32 70.5 47.5t92.5 15.5zM602 450q-40 0 -65 -28t-29 -87h177q-1 50 -22 82.5t-61 32.5zM303 251q-58 -2 -80.5 -26t-22.5 -63q0 -34 16.5 -48.5t41.5 -14.5
q38 0 64 28.5t26 80.5v45z" />
    <glyph glyph-name="ccedilla" unicode="&#xe7;" horiz-adv-x="495" 
d="M291 -10q-117 0 -183.5 67.5t-66.5 212.5q0 100 33.5 163t93 93t136.5 30q50 0 93 -11t72 -26l-47 -112q-30 13 -54.5 21t-53.5 8q-52 0 -81 -41t-29 -124q0 -82 29.5 -121t80.5 -39q38 0 72.5 12.5t65.5 34.5v-127q-33 -22 -70.5 -31.5t-90.5 -9.5zM440 -122
q0 -56 -32.5 -87t-101.5 -31q-26 0 -47.5 3t-36.5 7v82q14 -4 31.5 -7t31.5 -3q16 0 26 6.5t10 23.5q0 18 -16.5 32t-55.5 21l32 75h89l-10 -30q28 -10 54 -32.5t26 -59.5z" />
    <glyph glyph-name="egrave" unicode="&#xe8;" horiz-adv-x="568" 
d="M291 556q110 0 173.5 -64.5t63.5 -183.5v-72h-325q2 -63 32.5 -99t87.5 -36q50 0 90.5 10.5t83.5 32.5v-115q-37 -20 -80.5 -29.5t-107.5 -9.5q-78 0 -138.5 30.5t-95 92.5t-34.5 156q0 143 69 215t181 72zM294 450q-36 0 -60 -28t-28 -87h175q-1 50 -22 82.5t-65 32.5z
M276 766q15 -22 36 -49.5t42 -53t36 -44.5v-13h-106q-18 13 -43.5 32.5t-52.5 41.5t-50.5 42t-38.5 34v10h177z" />
    <glyph glyph-name="eacute" unicode="&#xe9;" horiz-adv-x="568" 
d="M291 556q110 0 173.5 -64.5t63.5 -183.5v-72h-325q2 -63 32.5 -99t87.5 -36q50 0 90.5 10.5t83.5 32.5v-115q-37 -20 -80.5 -29.5t-107.5 -9.5q-78 0 -138.5 30.5t-95 92.5t-34.5 156q0 143 69 215t181 72zM294 450q-36 0 -60 -28t-28 -87h175q-1 50 -22 82.5t-65 32.5z
M499 756q-15 -14 -38.5 -34t-50.5 -42t-52 -41.5t-44 -32.5h-106v13q16 19 37 44.5t42.5 53t35.5 49.5h176v-10z" />
    <glyph glyph-name="ecircumflex" unicode="&#xea;" horiz-adv-x="568" 
d="M291 556q110 0 173.5 -64.5t63.5 -183.5v-72h-325q2 -63 32.5 -99t87.5 -36q50 0 90.5 10.5t83.5 32.5v-115q-37 -20 -80.5 -29.5t-107.5 -9.5q-78 0 -138.5 30.5t-95 92.5t-34.5 156q0 143 69 215t181 72zM294 450q-36 0 -60 -28t-28 -87h175q-1 50 -22 82.5t-65 32.5z
M370 766q14 -22 35.5 -49.5t43.5 -53.5t38 -44v-13h-104q-25 16 -50.5 37.5t-49.5 48.5q-25 -27 -48.5 -48t-48.5 -38h-106v13q18 19 40 44.5t43.5 53t34.5 49.5h172z" />
    <glyph glyph-name="edieresis" unicode="&#xeb;" horiz-adv-x="568" 
d="M291 556q110 0 173.5 -64.5t63.5 -183.5v-72h-325q2 -63 32.5 -99t87.5 -36q50 0 90.5 10.5t83.5 32.5v-115q-37 -20 -80.5 -29.5t-107.5 -9.5q-78 0 -138.5 30.5t-95 92.5t-34.5 156q0 143 69 215t181 72zM294 450q-36 0 -60 -28t-28 -87h175q-1 50 -22 82.5t-65 32.5z
M111 686q0 35 20.5 50.5t50.5 15.5q29 0 50.5 -15.5t21.5 -50.5q0 -33 -21.5 -49t-50.5 -16q-30 0 -50.5 16t-20.5 49zM313 686q0 35 21 50.5t51 15.5q29 0 50.5 -15.5t21.5 -50.5q0 -33 -21.5 -49t-50.5 -16q-30 0 -51 16t-21 49z" />
    <glyph glyph-name="igrave" unicode="&#xec;" horiz-adv-x="296" 
d="M228 0h-160v546h160v-546zM140 766q15 -22 36 -49.5t42 -53t36 -44.5v-13h-106q-18 13 -43.5 32.5t-52.5 41.5t-50.5 42t-38.5 34v10h177z" />
    <glyph glyph-name="iacute" unicode="&#xed;" horiz-adv-x="296" 
d="M228 0h-160v546h160v-546zM363 756q-15 -14 -38.5 -34t-50.5 -42t-52 -41.5t-44 -32.5h-106v13q16 19 37 44.5t42.5 53t35.5 49.5h176v-10z" />
    <glyph glyph-name="icircumflex" unicode="&#xee;" horiz-adv-x="296" 
d="M228 0h-160v546h160v-546zM234 766q14 -22 35.5 -49.5t43.5 -53.5t38 -44v-13h-104q-25 16 -50.5 37.5t-49.5 48.5q-25 -27 -48.5 -48t-48.5 -38h-106v13q18 19 40 44.5t43.5 53t34.5 49.5h172z" />
    <glyph glyph-name="idieresis" unicode="&#xef;" horiz-adv-x="296" 
d="M228 0h-160v546h160v-546zM-25 686q0 35 20.5 50.5t50.5 15.5q29 0 50.5 -15.5t21.5 -50.5q0 -33 -21.5 -49t-50.5 -16q-30 0 -50.5 16t-20.5 49zM177 686q0 35 21 50.5t51 15.5q29 0 50.5 -15.5t21.5 -50.5q0 -33 -21.5 -49t-50.5 -16q-30 0 -51 16t-21 49z" />
    <glyph glyph-name="eth" unicode="&#xf0;" horiz-adv-x="592" 
d="M215 765q69 -31 120 -69l100 68l49 -75l-72 -51q68 -67 102.5 -153t34.5 -205q0 -139 -69.5 -214.5t-186.5 -75.5q-73 0 -130 29t-89.5 85t-32.5 135t28.5 134t78.5 84t113 29q92 0 119 -48l4 2q-14 40 -32.5 72.5t-44.5 62.5l-95 -69l-49 76l73 52q-15 11 -33 22.5
t-36 22.5zM295 376q-49 0 -70 -34.5t-21 -103.5q0 -61 21 -99.5t70 -38.5q50 0 70.5 40.5t20.5 119.5q0 46 -22 81t-69 35z" />
    <glyph glyph-name="ntilde" unicode="&#xf1;" horiz-adv-x="624" 
d="M376 556q82 0 132.5 -47.5t50.5 -152.5v-356h-160v319q0 59 -17.5 88.5t-55.5 29.5q-58 0 -78 -46.5t-20 -133.5v-257h-160v546h121l22 -70h7q25 42 66 61t92 19zM504 757q-6 -77 -39 -114t-80 -37q-26 0 -52 12.5t-50.5 25.5t-47.5 13q-11 0 -22.5 -13t-16.5 -39h-76
q6 78 38.5 114.5t81.5 36.5q25 0 50 -13t50 -25.5t48 -12.5q11 0 22.5 13t16.5 39h77z" />
    <glyph glyph-name="ograve" unicode="&#xf2;" horiz-adv-x="590" 
d="M549 274q0 -136 -68 -210t-187 -74q-73 0 -130.5 33t-90 96.5t-32.5 154.5q0 136 68.5 209t187.5 73q73 0 130 -33t89.5 -95.5t32.5 -153.5zM204 274q0 -81 21.5 -122.5t70.5 -41.5t69.5 41.5t20.5 122.5t-20.5 121.5t-70.5 40.5q-49 0 -70 -40.5t-21 -121.5zM288 766
q15 -22 36 -49.5t42 -53t36 -44.5v-13h-106q-18 13 -43.5 32.5t-52.5 41.5t-50.5 42t-38.5 34v10h177z" />
    <glyph glyph-name="oacute" unicode="&#xf3;" horiz-adv-x="590" 
d="M549 274q0 -136 -68 -210t-187 -74q-73 0 -130.5 33t-90 96.5t-32.5 154.5q0 136 68.5 209t187.5 73q73 0 130 -33t89.5 -95.5t32.5 -153.5zM204 274q0 -81 21.5 -122.5t70.5 -41.5t69.5 41.5t20.5 122.5t-20.5 121.5t-70.5 40.5q-49 0 -70 -40.5t-21 -121.5zM511 756
q-15 -14 -38.5 -34t-50.5 -42t-52 -41.5t-44 -32.5h-106v13q16 19 37 44.5t42.5 53t35.5 49.5h176v-10z" />
    <glyph glyph-name="ocircumflex" unicode="&#xf4;" horiz-adv-x="590" 
d="M549 274q0 -136 -68 -210t-187 -74q-73 0 -130.5 33t-90 96.5t-32.5 154.5q0 136 68.5 209t187.5 73q73 0 130 -33t89.5 -95.5t32.5 -153.5zM204 274q0 -81 21.5 -122.5t70.5 -41.5t69.5 41.5t20.5 122.5t-20.5 121.5t-70.5 40.5q-49 0 -70 -40.5t-21 -121.5zM382 766
q14 -22 35.5 -49.5t43.5 -53.5t38 -44v-13h-104q-25 16 -50.5 37.5t-49.5 48.5q-25 -27 -48.5 -48t-48.5 -38h-106v13q18 19 40 44.5t43.5 53t34.5 49.5h172z" />
    <glyph glyph-name="otilde" unicode="&#xf5;" horiz-adv-x="590" 
d="M549 274q0 -136 -68 -210t-187 -74q-73 0 -130.5 33t-90 96.5t-32.5 154.5q0 136 68.5 209t187.5 73q73 0 130 -33t89.5 -95.5t32.5 -153.5zM204 274q0 -81 21.5 -122.5t70.5 -41.5t69.5 41.5t20.5 122.5t-20.5 121.5t-70.5 40.5q-49 0 -70 -40.5t-21 -121.5zM488 757
q-6 -77 -39 -114t-80 -37q-26 0 -52 12.5t-50.5 25.5t-47.5 13q-11 0 -22.5 -13t-16.5 -39h-76q6 78 38.5 114.5t81.5 36.5q25 0 50 -13t50 -25.5t48 -12.5q11 0 22.5 13t16.5 39h77z" />
    <glyph glyph-name="odieresis" unicode="&#xf6;" horiz-adv-x="590" 
d="M549 274q0 -136 -68 -210t-187 -74q-73 0 -130.5 33t-90 96.5t-32.5 154.5q0 136 68.5 209t187.5 73q73 0 130 -33t89.5 -95.5t32.5 -153.5zM204 274q0 -81 21.5 -122.5t70.5 -41.5t69.5 41.5t20.5 122.5t-20.5 121.5t-70.5 40.5q-49 0 -70 -40.5t-21 -121.5zM123 686
q0 35 20.5 50.5t50.5 15.5q29 0 50.5 -15.5t21.5 -50.5q0 -33 -21.5 -49t-50.5 -16q-30 0 -50.5 16t-20.5 49zM325 686q0 35 21 50.5t51 15.5q29 0 50.5 -15.5t21.5 -50.5q0 -33 -21.5 -49t-50.5 -16q-30 0 -51 16t-21 49z" />
    <glyph glyph-name="divide" unicode="&#xf7;" horiz-adv-x="536" 
d="M267 449q-28 0 -48 17.5t-20 56.5q0 41 20 57.5t48 16.5q27 0 47.5 -16.5t20.5 -57.5q0 -39 -20.5 -56.5t-47.5 -17.5zM37 299v107h461v-107h-461zM267 108q-28 0 -48 17.5t-20 56.5q0 41 20 57.5t48 16.5q27 0 47.5 -16.5t20.5 -57.5q0 -39 -20.5 -56.5t-47.5 -17.5z
" />
    <glyph glyph-name="oslash" unicode="&#xf8;" horiz-adv-x="603" 
d="M562 274q0 -136 -70 -210t-192 -74q-56 0 -106 22l-35 -49l-74 51l34 49q-37 37 -57.5 89.5t-20.5 121.5q0 136 70 209t192 73q59 0 111 -25l29 40l73 -53l-29 -41q35 -36 55 -87t20 -116zM198 274q0 -24 1.5 -44t5.5 -37l140 232q-20 11 -44 11q-55 0 -79 -40.5
t-24 -121.5zM405 274q0 20 -1.5 37t-3.5 32l-136 -226q15 -7 38 -7q56 0 79.5 41.5t23.5 122.5z" />
    <glyph glyph-name="ugrave" unicode="&#xf9;" horiz-adv-x="624" 
d="M556 546v-546h-121l-21 70h-9q-25 -42 -67 -61t-90 -19q-79 0 -130.5 47.5t-51.5 152.5v356h160v-319q0 -58 17 -88t55 -30q58 0 78 46.5t20 133.5v257h160zM304 766q15 -22 36 -49.5t42 -53t36 -44.5v-13h-106q-18 13 -43.5 32.5t-52.5 41.5t-50.5 42t-38.5 34v10h177z
" />
    <glyph glyph-name="uacute" unicode="&#xfa;" horiz-adv-x="624" 
d="M556 546v-546h-121l-21 70h-9q-25 -42 -67 -61t-90 -19q-79 0 -130.5 47.5t-51.5 152.5v356h160v-319q0 -58 17 -88t55 -30q58 0 78 46.5t20 133.5v257h160zM527 756q-15 -14 -38.5 -34t-50.5 -42t-52 -41.5t-44 -32.5h-106v13q16 19 37 44.5t42.5 53t35.5 49.5h176v-10z
" />
    <glyph glyph-name="ucircumflex" unicode="&#xfb;" horiz-adv-x="624" 
d="M556 546v-546h-121l-21 70h-9q-25 -42 -67 -61t-90 -19q-79 0 -130.5 47.5t-51.5 152.5v356h160v-319q0 -58 17 -88t55 -30q58 0 78 46.5t20 133.5v257h160zM398 766q14 -22 35.5 -49.5t43.5 -53.5t38 -44v-13h-104q-25 16 -50.5 37.5t-49.5 48.5q-25 -27 -48.5 -48
t-48.5 -38h-106v13q18 19 40 44.5t43.5 53t34.5 49.5h172z" />
    <glyph glyph-name="udieresis" unicode="&#xfc;" horiz-adv-x="624" 
d="M556 546v-546h-121l-21 70h-9q-25 -42 -67 -61t-90 -19q-79 0 -130.5 47.5t-51.5 152.5v356h160v-319q0 -58 17 -88t55 -30q58 0 78 46.5t20 133.5v257h160zM139 686q0 35 20.5 50.5t50.5 15.5q29 0 50.5 -15.5t21.5 -50.5q0 -33 -21.5 -49t-50.5 -16q-30 0 -50.5 16
t-20.5 49zM341 686q0 35 21 50.5t51 15.5q29 0 50.5 -15.5t21.5 -50.5q0 -33 -21.5 -49t-50.5 -16q-30 0 -51 16t-21 49z" />
    <glyph glyph-name="yacute" unicode="&#xfd;" horiz-adv-x="554" 
d="M0 546h171l91 -307q7 -22 10 -45.5t4 -49.5h4q2 26 5.5 49.5t10.5 45.5l91 307h168l-214 -615q-30 -85 -85.5 -128t-143.5 -43q-24 0 -41.5 2.5t-30.5 5.5v118q10 -2 24.5 -4t30.5 -2q44 0 68 28.5t34 68.5l7 27zM493 756q-15 -14 -38.5 -34t-50.5 -42t-52 -41.5
t-44 -32.5h-106v13q16 19 37 44.5t42.5 53t35.5 49.5h176v-10z" />
    <glyph glyph-name="thorn" unicode="&#xfe;" horiz-adv-x="600" 
d="M559 274q0 -139 -54 -211.5t-139 -72.5q-52 0 -85 19.5t-53 47.5h-7q3 -15 5 -37.5t2 -38.5v-221h-160v1000h160v-191q0 -24 -3 -51.5t-5 -42.5h8q19 34 54 57.5t88 23.5q83 0 136 -71.5t53 -210.5zM396 276q0 80 -19 120.5t-63 40.5q-47 0 -66.5 -36t-19.5 -110v-16
q0 -79 19 -121.5t69 -42.5q43 0 61.5 42.5t18.5 122.5z" />
    <glyph glyph-name="ydieresis" unicode="&#xff;" horiz-adv-x="554" 
d="M0 546h171l91 -307q7 -22 10 -45.5t4 -49.5h4q2 26 5.5 49.5t10.5 45.5l91 307h168l-214 -615q-30 -85 -85.5 -128t-143.5 -43q-24 0 -41.5 2.5t-30.5 5.5v118q10 -2 24.5 -4t30.5 -2q44 0 68 28.5t34 68.5l7 27zM105 686q0 35 20.5 50.5t50.5 15.5q29 0 50.5 -15.5
t21.5 -50.5q0 -33 -21.5 -49t-50.5 -16q-30 0 -50.5 16t-20.5 49zM307 686q0 35 21 50.5t51 15.5q29 0 50.5 -15.5t21.5 -50.5q0 -33 -21.5 -49t-50.5 -16q-30 0 -51 16t-21 49z" />
    <glyph glyph-name="Amacron" unicode="&#x100;" horiz-adv-x="665" 
d="M490 0l-41 170h-231l-42 -170h-176l228 717h208l229 -717h-175zM367 463q-9 32 -18 67.5t-16 75.5q-7 -40 -16 -76.5t-17 -66.5l-46 -166h160zM493 877v-103h-322v103h322z" />
    <glyph glyph-name="amacron" unicode="&#x101;" horiz-adv-x="577" 
d="M300 557q101 0 156.5 -47.5t55.5 -145.5v-364h-111l-31 74h-4q-33 -44 -69.5 -64t-101.5 -20q-67 0 -112.5 42.5t-45.5 130.5q0 87 57.5 128.5t169.5 45.5l88 3v24q0 43 -19 63t-52 20q-34 0 -71 -11.5t-74 -28.5l-49 101q44 23 97.5 36t115.5 13zM305 251
q-58 -2 -81.5 -26t-23.5 -63q0 -34 16.5 -48.5t43.5 -14.5q38 0 65.5 28.5t27.5 80.5v45zM449 720v-103h-322v103h322z" />
    <glyph glyph-name="Abreve" unicode="&#x102;" horiz-adv-x="665" 
d="M490 0l-41 170h-231l-42 -170h-176l228 717h208l229 -717h-175zM367 463q-9 32 -18 67.5t-16 75.5q-7 -40 -16 -76.5t-17 -66.5l-46 -166h160zM516 939q-4 -73 -53.5 -119t-131.5 -46q-85 0 -131 45t-50 120h87q7 -42 31 -51.5t64 -9.5q32 0 59.5 11t34.5 50h90z" />
    <glyph glyph-name="abreve" unicode="&#x103;" horiz-adv-x="577" 
d="M300 557q101 0 156.5 -47.5t55.5 -145.5v-364h-111l-31 74h-4q-33 -44 -69.5 -64t-101.5 -20q-67 0 -112.5 42.5t-45.5 130.5q0 87 57.5 128.5t169.5 45.5l88 3v24q0 43 -19 63t-52 20q-34 0 -71 -11.5t-74 -28.5l-49 101q44 23 97.5 36t115.5 13zM305 251
q-58 -2 -81.5 -26t-23.5 -63q0 -34 16.5 -48.5t43.5 -14.5q38 0 65.5 28.5t27.5 80.5v45zM472 782q-4 -73 -53.5 -119t-131.5 -46q-85 0 -131 45t-50 120h87q7 -42 31 -51.5t64 -9.5q32 0 59.5 11t34.5 50h90z" />
    <glyph glyph-name="Aogonek" unicode="&#x104;" horiz-adv-x="665" 
d="M490 0l-41 170h-231l-42 -170h-176l228 717h208l229 -717h-175zM367 463q-9 32 -18 67.5t-16 75.5q-7 -40 -16 -76.5t-17 -66.5l-46 -166h160zM575 -111q0 -40 36 -40q14 0 29 3t24 6v-87q-15 -4 -33 -7.5t-42 -3.5q-53 0 -87 31.5t-34 80.5q0 44 26.5 82t78.5 63l66 -17
q-31 -32 -47.5 -58.5t-16.5 -52.5z" />
    <glyph glyph-name="aogonek" unicode="&#x105;" horiz-adv-x="577" 
d="M300 557q101 0 156.5 -47.5t55.5 -145.5v-364h-111l-31 74h-4q-33 -44 -69.5 -64t-101.5 -20q-67 0 -112.5 42.5t-45.5 130.5q0 87 57.5 128.5t169.5 45.5l88 3v24q0 43 -19 63t-52 20q-34 0 -71 -11.5t-74 -28.5l-49 101q44 23 97.5 36t115.5 13zM305 251
q-58 -2 -81.5 -26t-23.5 -63q0 -34 16.5 -48.5t43.5 -14.5q38 0 65.5 28.5t27.5 80.5v45zM445 -111q0 -40 36 -40q14 0 29 3t24 6v-87q-15 -4 -33 -7.5t-42 -3.5q-53 0 -87 31.5t-34 80.5q0 44 26.5 82t78.5 63l66 -17q-31 -32 -47.5 -58.5t-16.5 -52.5z" />
    <glyph glyph-name="Cacute" unicode="&#x106;" horiz-adv-x="604" 
d="M370 598q-73 0 -113 -65t-40 -178q0 -114 38.5 -176.5t119.5 -62.5q43 0 84.5 10t86.5 28v-127q-44 -19 -89 -28t-98 -9q-107 0 -175 45.5t-100.5 128t-32.5 192.5q0 108 37 191t108.5 130t174.5 47q50 0 105.5 -13.5t96.5 -36.5l-51 -123q-37 19 -74.5 33t-77.5 14z
M564 924q-15 -14 -38.5 -34t-50.5 -42t-52 -41.5t-44 -32.5h-106v13q16 19 37 44.5t42.5 53t35.5 49.5h176v-10z" />
    <glyph glyph-name="cacute" unicode="&#x107;" horiz-adv-x="495" 
d="M291 -10q-117 0 -183.5 67.5t-66.5 212.5q0 100 33.5 163t93 93t136.5 30q50 0 93 -11t72 -26l-47 -112q-30 13 -54.5 21t-53.5 8q-52 0 -81 -41t-29 -124q0 -82 29.5 -121t80.5 -39q38 0 72.5 12.5t65.5 34.5v-127q-33 -22 -70.5 -31.5t-90.5 -9.5zM488 756
q-15 -14 -38.5 -34t-50.5 -42t-52 -41.5t-44 -32.5h-106v13q16 19 37 44.5t42.5 53t35.5 49.5h176v-10z" />
    <glyph glyph-name="Ccircumflex" unicode="&#x108;" horiz-adv-x="604" 
d="M370 598q-73 0 -113 -65t-40 -178q0 -114 38.5 -176.5t119.5 -62.5q43 0 84.5 10t86.5 28v-127q-44 -19 -89 -28t-98 -9q-107 0 -175 45.5t-100.5 128t-32.5 192.5q0 108 37 191t108.5 130t174.5 47q50 0 105.5 -13.5t96.5 -36.5l-51 -123q-37 19 -74.5 33t-77.5 14z
M435 934q14 -22 35.5 -49.5t43.5 -53.5t38 -44v-13h-104q-25 16 -50.5 37.5t-49.5 48.5q-25 -27 -48.5 -48t-48.5 -38h-106v13q18 19 40 44.5t43.5 53t34.5 49.5h172z" />
    <glyph glyph-name="ccircumflex" unicode="&#x109;" horiz-adv-x="495" 
d="M291 -10q-117 0 -183.5 67.5t-66.5 212.5q0 100 33.5 163t93 93t136.5 30q50 0 93 -11t72 -26l-47 -112q-30 13 -54.5 21t-53.5 8q-52 0 -81 -41t-29 -124q0 -82 29.5 -121t80.5 -39q38 0 72.5 12.5t65.5 34.5v-127q-33 -22 -70.5 -31.5t-90.5 -9.5zM359 766
q14 -22 35.5 -49.5t43.5 -53.5t38 -44v-13h-104q-25 16 -50.5 37.5t-49.5 48.5q-25 -27 -48.5 -48t-48.5 -38h-106v13q18 19 40 44.5t43.5 53t34.5 49.5h172z" />
    <glyph glyph-name="Cdot" unicode="&#x10a;" horiz-adv-x="604" 
d="M370 598q-73 0 -113 -65t-40 -178q0 -114 38.5 -176.5t119.5 -62.5q43 0 84.5 10t86.5 28v-127q-44 -19 -89 -28t-98 -9q-107 0 -175 45.5t-100.5 128t-32.5 192.5q0 108 37 191t108.5 130t174.5 47q50 0 105.5 -13.5t96.5 -36.5l-51 -123q-37 19 -74.5 33t-77.5 14z
M349 928q35 0 60 -15.5t25 -57.5q0 -41 -25 -57t-60 -16q-36 0 -61 16t-25 57q0 42 25 57.5t61 15.5z" />
    <glyph glyph-name="cdot" unicode="&#x10b;" horiz-adv-x="495" 
d="M291 -10q-117 0 -183.5 67.5t-66.5 212.5q0 100 33.5 163t93 93t136.5 30q50 0 93 -11t72 -26l-47 -112q-30 13 -54.5 21t-53.5 8q-52 0 -81 -41t-29 -124q0 -82 29.5 -121t80.5 -39q38 0 72.5 12.5t65.5 34.5v-127q-33 -22 -70.5 -31.5t-90.5 -9.5zM273 760
q35 0 60 -15.5t25 -57.5q0 -41 -25 -57t-60 -16q-36 0 -61 16t-25 57q0 42 25 57.5t61 15.5z" />
    <glyph glyph-name="Ccaron" unicode="&#x10c;" horiz-adv-x="604" 
d="M370 598q-73 0 -113 -65t-40 -178q0 -114 38.5 -176.5t119.5 -62.5q43 0 84.5 10t86.5 28v-127q-44 -19 -89 -28t-98 -9q-107 0 -175 45.5t-100.5 128t-32.5 192.5q0 108 37 191t108.5 130t174.5 47q50 0 105.5 -13.5t96.5 -36.5l-51 -123q-37 19 -74.5 33t-77.5 14z
M552 921q-16 -18 -38 -44t-43.5 -53t-35.5 -50h-172q-13 23 -34.5 50t-43.5 53t-40 44v13h106q25 -16 48.5 -37.5t48.5 -48.5q24 27 49.5 48.5t50.5 37.5h104v-13z" />
    <glyph glyph-name="ccaron" unicode="&#x10d;" horiz-adv-x="495" 
d="M291 -10q-117 0 -183.5 67.5t-66.5 212.5q0 100 33.5 163t93 93t136.5 30q50 0 93 -11t72 -26l-47 -112q-30 13 -54.5 21t-53.5 8q-52 0 -81 -41t-29 -124q0 -82 29.5 -121t80.5 -39q38 0 72.5 12.5t65.5 34.5v-127q-33 -22 -70.5 -31.5t-90.5 -9.5zM476 753
q-16 -18 -38 -44t-43.5 -53t-35.5 -50h-172q-13 23 -34.5 50t-43.5 53t-40 44v13h106q25 -16 48.5 -37.5t48.5 -48.5q24 27 49.5 48.5t50.5 37.5h104v-13z" />
    <glyph glyph-name="Dcaron" unicode="&#x10e;" horiz-adv-x="693" 
d="M642 364q0 -181 -96.5 -272.5t-263.5 -91.5h-203v714h221q161 0 251.5 -89t90.5 -261zM474 360q0 119 -43 174.5t-126 55.5h-64v-465h50q94 0 138.5 59t44.5 176zM550 921q-16 -18 -38 -44t-43.5 -53t-35.5 -50h-172q-13 23 -34.5 50t-43.5 53t-40 44v13h106
q25 -16 48.5 -37.5t48.5 -48.5q24 27 49.5 48.5t50.5 37.5h104v-13z" />
    <glyph glyph-name="dcaron" unicode="&#x10f;" horiz-adv-x="633" 
d="M739 750q-16 -33 -34.5 -71.5t-44.5 -78.5h-94v13q8 29 16 72t11 75h146v-10zM230 -10q-83 0 -136 71.5t-53 210.5q0 140 54 212t140 72q54 0 87.5 -23t54.5 -57h4q-3 16 -6 46.5t-3 62.5v175h160v-760h-121l-33 71h-6q-19 -34 -53 -57.5t-89 -23.5zM291 109
q50 0 71.5 36.5t21.5 109.5v16q0 80 -20 122t-75 42q-40 0 -63 -42.5t-23 -122.5t23.5 -120.5t64.5 -40.5z" />
    <glyph glyph-name="Dcroat" unicode="&#x110;" horiz-adv-x="693" 
d="M300 714q160 0 251 -89t91 -261q0 -120 -43.5 -201t-124.5 -122t-192 -41h-203v291h-61v124h61v299h221zM304 590h-64v-175h103v-124h-103v-166h51q183 0 183 235q0 119 -43.5 174.5t-126.5 55.5z" />
    <glyph glyph-name="dcroat" unicode="&#x111;" horiz-adv-x="617" 
d="M226 -10q-81 0 -133 68t-52 199q0 133 54.5 201t141.5 68q53 0 87.5 -23t55.5 -57h4q-7 35 -9.5 60t-2.5 53v25h-126v97h126v79h160v-79h72v-97h-72v-584h-127l-34 71h-6q-19 -34 -52.5 -57.5t-86.5 -23.5zM296 109q48 0 68 33t20 100v14q0 72 -21.5 110.5t-69.5 38.5
q-37 0 -59.5 -38.5t-22.5 -111.5q0 -146 85 -146z" />
    <glyph glyph-name="Emacron" unicode="&#x112;" horiz-adv-x="521" 
d="M471 0h-392v714h392v-124h-230v-157h214v-124h-214v-184h230v-125zM438 877v-103h-322v103h322z" />
    <glyph glyph-name="emacron" unicode="&#x113;" horiz-adv-x="568" 
d="M291 556q110 0 173.5 -64.5t63.5 -183.5v-72h-325q2 -63 32.5 -99t87.5 -36q50 0 90.5 10.5t83.5 32.5v-115q-37 -20 -80.5 -29.5t-107.5 -9.5q-78 0 -138.5 30.5t-95 92.5t-34.5 156q0 143 69 215t181 72zM294 450q-36 0 -60 -28t-28 -87h175q-1 50 -22 82.5t-65 32.5z
M444 709v-103h-322v103h322z" />
    <glyph glyph-name="Ebreve" unicode="&#x114;" horiz-adv-x="521" 
d="M471 0h-392v714h392v-124h-230v-157h214v-124h-214v-184h230v-125zM461 939q-4 -73 -53.5 -119t-131.5 -46q-85 0 -131 45t-50 120h87q7 -42 31 -51.5t64 -9.5q32 0 59.5 11t34.5 50h90z" />
    <glyph glyph-name="ebreve" unicode="&#x115;" horiz-adv-x="568" 
d="M291 556q110 0 173.5 -64.5t63.5 -183.5v-72h-325q2 -63 32.5 -99t87.5 -36q50 0 90.5 10.5t83.5 32.5v-115q-37 -20 -80.5 -29.5t-107.5 -9.5q-78 0 -138.5 30.5t-95 92.5t-34.5 156q0 143 69 215t181 72zM294 450q-36 0 -60 -28t-28 -87h175q-1 50 -22 82.5t-65 32.5z
M467 771q-4 -73 -53.5 -119t-131.5 -46q-85 0 -131 45t-50 120h87q7 -42 31 -51.5t64 -9.5q32 0 59.5 11t34.5 50h90z" />
    <glyph glyph-name="Edotaccent" unicode="&#x116;" horiz-adv-x="521" 
d="M471 0h-392v714h392v-124h-230v-157h214v-124h-214v-184h230v-125zM278 928q35 0 60 -15.5t25 -57.5q0 -41 -25 -57t-60 -16q-36 0 -61 16t-25 57q0 42 25 57.5t61 15.5z" />
    <glyph glyph-name="edotaccent" unicode="&#x117;" horiz-adv-x="568" 
d="M291 556q110 0 173.5 -64.5t63.5 -183.5v-72h-325q2 -63 32.5 -99t87.5 -36q50 0 90.5 10.5t83.5 32.5v-115q-37 -20 -80.5 -29.5t-107.5 -9.5q-78 0 -138.5 30.5t-95 92.5t-34.5 156q0 143 69 215t181 72zM294 450q-36 0 -60 -28t-28 -87h175q-1 50 -22 82.5t-65 32.5z
M284 760q35 0 60 -15.5t25 -57.5q0 -41 -25 -57t-60 -16q-36 0 -61 16t-25 57q0 42 25 57.5t61 15.5z" />
    <glyph glyph-name="Eogonek" unicode="&#x118;" horiz-adv-x="521" 
d="M471 0h-392v714h392v-124h-230v-157h214v-124h-214v-184h230v-125zM406 -111q0 -40 36 -40q14 0 29 3t24 6v-87q-15 -4 -33 -7.5t-42 -3.5q-53 0 -87 31.5t-34 80.5q0 44 26.5 82t78.5 63l66 -17q-31 -32 -47.5 -58.5t-16.5 -52.5z" />
    <glyph glyph-name="eogonek" unicode="&#x119;" horiz-adv-x="568" 
d="M393 -111q0 -20 11 -30t28 -10q16 0 31 3t25 6v-87q-16 -4 -34 -7.5t-42 -3.5q-56 0 -89 31.5t-33 80.5q0 34 20 64.5t52 55.5q-24 -2 -53 -2q-78 0 -138.5 30.5t-95 92.5t-34.5 156q0 143 69 215t181 72q110 0 173.5 -64.5t63.5 -183.5v-72h-325q2 -63 32.5 -99
t87.5 -36q50 0 90.5 10.5t83.5 32.5v-115q-60 -53 -82 -83.5t-22 -56.5zM294 450q-36 0 -60 -28t-28 -87h175q-1 50 -22 82.5t-65 32.5z" />
    <glyph glyph-name="Ecaron" unicode="&#x11a;" horiz-adv-x="521" 
d="M471 0h-392v714h392v-124h-230v-157h214v-124h-214v-184h230v-125zM481 921q-16 -18 -38 -44t-43.5 -53t-35.5 -50h-172q-13 23 -34.5 50t-43.5 53t-40 44v13h106q25 -16 48.5 -37.5t48.5 -48.5q24 27 49.5 48.5t50.5 37.5h104v-13z" />
    <glyph glyph-name="ecaron" unicode="&#x11b;" horiz-adv-x="568" 
d="M291 556q110 0 173.5 -64.5t63.5 -183.5v-72h-325q2 -63 32.5 -99t87.5 -36q50 0 90.5 10.5t83.5 32.5v-115q-37 -20 -80.5 -29.5t-107.5 -9.5q-78 0 -138.5 30.5t-95 92.5t-34.5 156q0 143 69 215t181 72zM294 450q-36 0 -60 -28t-28 -87h175q-1 50 -22 82.5t-65 32.5z
M487 753q-16 -18 -38 -44t-43.5 -53t-35.5 -50h-172q-13 23 -34.5 50t-43.5 53t-40 44v13h106q25 -16 48.5 -37.5t48.5 -48.5q24 27 49.5 48.5t50.5 37.5h104v-13z" />
    <glyph glyph-name="Gcircumflex" unicode="&#x11c;" horiz-adv-x="688" 
d="M341 401h277v-370q-52 -19 -114 -30t-135 -11q-148 0 -233 94t-85 274q0 112 40.5 194t119 127t192.5 45q58 0 112 -12t96 -32l-52 -121q-34 17 -73 28t-83 11q-92 0 -138.5 -66.5t-46.5 -176.5q0 -70 17.5 -124t54 -84.5t91.5 -30.5q23 0 45 3t38 7v149h-123v126z
M462 934q14 -22 35.5 -49.5t43.5 -53.5t38 -44v-13h-104q-25 16 -50.5 37.5t-49.5 48.5q-25 -27 -48.5 -48t-48.5 -38h-106v13q18 19 40 44.5t43.5 53t34.5 49.5h172z" />
    <glyph glyph-name="gcircumflex" unicode="&#x11d;" horiz-adv-x="600" 
d="M234 556q51 0 86.5 -20t58.5 -60h4l12 70h137v-547q0 -117 -66.5 -178t-200.5 -61q-58 0 -105.5 7t-91.5 25v119q47 -21 93 -31.5t103 -10.5q108 0 108 124v11q0 35 5 67h-5q-22 -43 -56.5 -62t-84.5 -19q-87 0 -138.5 74.5t-51.5 207.5q0 134 52.5 209t140.5 75z
M290 435q-86 0 -86 -165q0 -163 88 -163q49 0 70.5 32.5t21.5 113.5v18q0 88 -20.5 126t-73.5 38zM381 766q14 -22 35.5 -49.5t43.5 -53.5t38 -44v-13h-104q-25 16 -50.5 37.5t-49.5 48.5q-25 -27 -48.5 -48t-48.5 -38h-106v13q18 19 40 44.5t43.5 53t34.5 49.5h172z" />
    <glyph glyph-name="Gbreve" unicode="&#x11e;" horiz-adv-x="688" 
d="M341 401h277v-370q-52 -19 -114 -30t-135 -11q-148 0 -233 94t-85 274q0 112 40.5 194t119 127t192.5 45q58 0 112 -12t96 -32l-52 -121q-34 17 -73 28t-83 11q-92 0 -138.5 -66.5t-46.5 -176.5q0 -70 17.5 -124t54 -84.5t91.5 -30.5q23 0 45 3t38 7v149h-123v126z
M559 939q-4 -73 -53.5 -119t-131.5 -46q-85 0 -131 45t-50 120h87q7 -42 31 -51.5t64 -9.5q32 0 59.5 11t34.5 50h90z" />
    <glyph glyph-name="gbreve" unicode="&#x11f;" horiz-adv-x="600" 
d="M234 556q51 0 86.5 -20t58.5 -60h4l12 70h137v-547q0 -117 -66.5 -178t-200.5 -61q-58 0 -105.5 7t-91.5 25v119q47 -21 93 -31.5t103 -10.5q108 0 108 124v11q0 35 5 67h-5q-22 -43 -56.5 -62t-84.5 -19q-87 0 -138.5 74.5t-51.5 207.5q0 134 52.5 209t140.5 75z
M290 435q-86 0 -86 -165q0 -163 88 -163q49 0 70.5 32.5t21.5 113.5v18q0 88 -20.5 126t-73.5 38zM478 771q-4 -73 -53.5 -119t-131.5 -46q-85 0 -131 45t-50 120h87q7 -42 31 -51.5t64 -9.5q32 0 59.5 11t34.5 50h90z" />
    <glyph glyph-name="Gdot" unicode="&#x120;" horiz-adv-x="688" 
d="M341 401h277v-370q-52 -19 -114 -30t-135 -11q-148 0 -233 94t-85 274q0 112 40.5 194t119 127t192.5 45q58 0 112 -12t96 -32l-52 -121q-34 17 -73 28t-83 11q-92 0 -138.5 -66.5t-46.5 -176.5q0 -70 17.5 -124t54 -84.5t91.5 -30.5q23 0 45 3t38 7v149h-123v126z
M376 928q35 0 60 -15.5t25 -57.5q0 -41 -25 -57t-60 -16q-36 0 -61 16t-25 57q0 42 25 57.5t61 15.5z" />
    <glyph glyph-name="gdot" unicode="&#x121;" horiz-adv-x="600" 
d="M234 556q51 0 86.5 -20t58.5 -60h4l12 70h137v-547q0 -117 -66.5 -178t-200.5 -61q-58 0 -105.5 7t-91.5 25v119q47 -21 93 -31.5t103 -10.5q108 0 108 124v11q0 35 5 67h-5q-22 -43 -56.5 -62t-84.5 -19q-87 0 -138.5 74.5t-51.5 207.5q0 134 52.5 209t140.5 75z
M290 435q-86 0 -86 -165q0 -163 88 -163q49 0 70.5 32.5t21.5 113.5v18q0 88 -20.5 126t-73.5 38zM295 760q35 0 60 -15.5t25 -57.5q0 -41 -25 -57t-60 -16q-36 0 -61 16t-25 57q0 42 25 57.5t61 15.5z" />
    <glyph glyph-name="uni0122" unicode="&#x122;" horiz-adv-x="688" 
d="M341 401h277v-370q-52 -19 -114 -30t-135 -11q-148 0 -233 94t-85 274q0 112 40.5 194t119 127t192.5 45q58 0 112 -12t96 -32l-52 -121q-34 17 -73 28t-83 11q-92 0 -138.5 -66.5t-46.5 -176.5q0 -70 17.5 -124t54 -84.5t91.5 -30.5q23 0 45 3t38 7v149h-123v126z
M441 -71q-15 -33 -33 -71.5t-44 -78.5h-94v13q8 29 15.5 72t9.5 75h146v-10z" />
    <glyph glyph-name="uni0123" unicode="&#x123;" horiz-adv-x="633" 
d="M371 753q-7 -29 -14 -72t-10 -75h-147v10q13 33 33.5 71.5t43.5 78.5h94v-13zM234 556q51 0 86.5 -20t58.5 -60h4l12 70h137v-547q0 -117 -66.5 -178t-200.5 -61q-58 0 -105.5 7t-91.5 25v119q47 -21 93 -31.5t103 -10.5q108 0 108 124v11q0 35 5 67h-5
q-22 -43 -56.5 -62t-84.5 -19q-87 0 -138.5 74.5t-51.5 207.5q0 134 52.5 209t140.5 75zM290 435q-86 0 -86 -165q0 -163 88 -163q49 0 70.5 32.5t21.5 113.5v18q0 88 -20.5 126t-73.5 38z" />
    <glyph glyph-name="Hcircumflex" unicode="&#x124;" horiz-adv-x="721" 
d="M642 0h-163v308h-238v-308h-162v714h162v-280h238v280h163v-714zM447 934q14 -22 35.5 -49.5t43.5 -53.5t38 -44v-13h-104q-25 16 -50.5 37.5t-49.5 48.5q-25 -27 -48.5 -48t-48.5 -38h-106v13q18 19 40 44.5t43.5 53t34.5 49.5h172z" />
    <glyph glyph-name="hcircumflex" unicode="&#x125;" horiz-adv-x="624" 
d="M228 605q0 -40 -2.5 -77t-4.5 -52h8q25 42 62 61t83 19q80 0 132.5 -47.5t52.5 -152.5v-356h-161v319q0 118 -72 118q-56 0 -77 -46.5t-21 -133.5v-257h-160v760h160v-155zM236 980q14 -22 35.5 -49.5t43.5 -53.5t38 -44v-13h-104q-25 16 -50.5 37.5t-49.5 48.5
q-25 -27 -48.5 -48t-48.5 -38h-106v13q18 19 40 44.5t43.5 53t34.5 49.5h172z" />
    <glyph glyph-name="Hbar" unicode="&#x126;" horiz-adv-x="727" 
d="M82 0v522h-82v97h82v95h162v-95h239v95h162v-95h82v-97h-82v-522h-162v308h-239v-308h-162zM244 434h239v88h-239v-88z" />
    <glyph glyph-name="hbar" unicode="&#x127;" horiz-adv-x="628" 
d="M232 760v-79h126v-97h-126v-9q0 -40 -2.5 -77t-4.5 -52h10q25 42 61 61t84 19q80 0 131.5 -47.5t51.5 -152.5v-326h-160v289q0 118 -73 118q-55 0 -76.5 -46.5t-21.5 -133.5v-227h-160v584h-71v97h71v79h160z" />
    <glyph glyph-name="Itilde" unicode="&#x128;" horiz-adv-x="389" 
d="M358 0h-327v86l83 40v462l-83 40v86h327v-86l-82 -40v-462l82 -40v-86zM387 925q-6 -77 -39 -114t-80 -37q-26 0 -52 12.5t-50.5 25.5t-47.5 13q-11 0 -22.5 -13t-16.5 -39h-76q6 78 38.5 114.5t81.5 36.5q25 0 50 -13t50 -25.5t48 -12.5q11 0 22.5 13t16.5 39h77z" />
    <glyph glyph-name="itilde" unicode="&#x129;" horiz-adv-x="296" 
d="M228 0h-160v546h160v-546zM340 757q-6 -77 -39 -114t-80 -37q-26 0 -52 12.5t-50.5 25.5t-47.5 13q-11 0 -22.5 -13t-16.5 -39h-76q6 78 38.5 114.5t81.5 36.5q25 0 50 -13t50 -25.5t48 -12.5q11 0 22.5 13t16.5 39h77z" />
    <glyph glyph-name="Imacron" unicode="&#x12a;" horiz-adv-x="389" 
d="M358 0h-327v86l83 40v462l-83 40v86h327v-86l-82 -40v-462l82 -40v-86zM355 877v-103h-322v103h322z" />
    <glyph glyph-name="imacron" unicode="&#x12b;" horiz-adv-x="296" 
d="M228 0h-160v546h160v-546zM308 709v-103h-322v103h322z" />
    <glyph glyph-name="Ibreve" unicode="&#x12c;" horiz-adv-x="389" 
d="M358 0h-327v86l83 40v462l-83 40v86h327v-86l-82 -40v-462l82 -40v-86zM378 939q-4 -73 -53.5 -119t-131.5 -46q-85 0 -131 45t-50 120h87q7 -42 31 -51.5t64 -9.5q32 0 59.5 11t34.5 50h90z" />
    <glyph glyph-name="ibreve" unicode="&#x12d;" horiz-adv-x="296" 
d="M228 0h-160v546h160v-546zM331 771q-4 -73 -53.5 -119t-131.5 -46q-85 0 -131 45t-50 120h87q7 -42 31 -51.5t64 -9.5q32 0 59.5 11t34.5 50h90z" />
    <glyph glyph-name="Iogonek" unicode="&#x12e;" horiz-adv-x="389" 
d="M358 0h-327v86l83 40v462l-83 40v86h327v-86l-82 -40v-462l82 -40v-86zM256 -111q0 -40 36 -40q14 0 29 3t24 6v-87q-15 -4 -33 -7.5t-42 -3.5q-53 0 -87 31.5t-34 80.5q0 44 26.5 82t78.5 63l66 -17q-31 -32 -47.5 -58.5t-16.5 -52.5z" />
    <glyph glyph-name="iogonek" unicode="&#x12f;" horiz-adv-x="296" 
d="M149 760q35 0 60 -15.5t25 -57.5q0 -41 -25 -57t-60 -16q-36 0 -61 16t-25 57q0 42 25 57.5t61 15.5zM228 546v-546h-160v546h160zM148 -111q0 -40 36 -40q14 0 29 3t24 6v-87q-15 -4 -33 -7.5t-42 -3.5q-53 0 -87 31.5t-34 80.5q0 44 26.5 82t78.5 63l66 -17
q-31 -32 -47.5 -58.5t-16.5 -52.5z" />
    <glyph glyph-name="Idotaccent" unicode="&#x130;" horiz-adv-x="389" 
d="M358 0h-327v86l83 40v462l-83 40v86h327v-86l-82 -40v-462l82 -40v-86zM195 928q35 0 60 -15.5t25 -57.5q0 -41 -25 -57t-60 -16q-36 0 -61 16t-25 57q0 42 25 57.5t61 15.5z" />
    <glyph glyph-name="dotlessi" unicode="&#x131;" horiz-adv-x="296" 
d="M228 0h-160v546h160v-546z" />
    <glyph glyph-name="IJ" unicode="&#x132;" horiz-adv-x="710" 
d="M358 0h-327v86l83 40v462l-83 40v86h327v-86l-82 -40v-462l82 -40v-86zM406 -210q-29 0 -51 3.5t-38 7.5v126q15 -4 31.5 -7t35.5 -3q29 0 47.5 10t28 38t9.5 80v669h162v-668q0 -92 -28.5 -148.5t-79 -82t-117.5 -25.5z" />
    <glyph glyph-name="ij" unicode="&#x133;" horiz-adv-x="592" 
d="M149 760q35 0 60 -15.5t25 -57.5q0 -41 -25 -57t-60 -16q-36 0 -61 16t-25 57q0 42 25 57.5t61 15.5zM228 546v-546h-160v546h160zM359 687q0 42 25 57.5t60 15.5t60.5 -15.5t25.5 -57.5q0 -41 -25.5 -57t-60.5 -16t-60 16t-25 57zM336 -240q-22 0 -49.5 3.5t-44.5 8.5
v117q16 -4 30 -6.5t31 -2.5q25 0 43 17t18 66v583h159v-605q0 -50 -18 -91t-59 -65.5t-110 -24.5z" />
    <glyph glyph-name="Jcircumflex" unicode="&#x134;" horiz-adv-x="321" 
d="M17 -210q-29 0 -51 3.5t-38 7.5v126q15 -4 31.5 -7t35.5 -3q29 0 47.5 10t28 38t9.5 80v669h162v-668q0 -92 -28.5 -148.5t-79 -82t-117.5 -25.5zM247 934q14 -22 35.5 -49.5t43.5 -53.5t38 -44v-13h-104q-25 16 -50.5 37.5t-49.5 48.5q-25 -27 -48.5 -48t-48.5 -38h-106
v13q18 19 40 44.5t43.5 53t34.5 49.5h172z" />
    <glyph glyph-name="jcircumflex" unicode="&#x135;" horiz-adv-x="296" 
d="M40 -240q-22 0 -49.5 3.5t-44.5 8.5v117q16 -4 30 -6.5t31 -2.5q25 0 43 17t18 66v583h159v-605q0 -50 -18 -91t-59 -65.5t-110 -24.5zM234 766q14 -22 35.5 -49.5t43.5 -53.5t38 -44v-13h-104q-25 16 -50.5 37.5t-49.5 48.5q-25 -27 -48.5 -48t-48.5 -38h-106v13
q18 19 40 44.5t43.5 53t34.5 49.5h172z" />
    <glyph glyph-name="uni0136" unicode="&#x136;" horiz-adv-x="635" 
d="M635 0h-183l-154 301l-57 -46v-255h-162v714h162v-327q13 21 27.5 42t28.5 42l161 243h178l-222 -316zM412 -71q-15 -33 -33 -71.5t-44 -78.5h-94v13q8 29 15.5 72t9.5 75h146v-10z" />
    <glyph glyph-name="uni0137" unicode="&#x137;" horiz-adv-x="601" 
d="M228 420q0 -31 -2.5 -61.5t-6.5 -61.5h3q8 21 25 42t33 41l131 166h179l-193 -237l204 -309h-183l-131 221l-59 -51v-170h-160v760h160v-340zM390 -71q-15 -33 -33 -71.5t-44 -78.5h-94v13q8 29 15.5 72t9.5 75h146v-10z" />
    <glyph glyph-name="kgreenlandic" unicode="&#x138;" horiz-adv-x="601" 
d="M591 546l-194 -250l204 -296h-181l-129 208l-63 -44v-164h-160v546h160v-143q0 -30 -1 -60t-3 -59h3q13 21 28 41.5t31 42.5l130 178h175z" />
    <glyph glyph-name="Lacute" unicode="&#x139;" horiz-adv-x="539" 
d="M79 0v714h162v-589h265v-125h-427zM372 924q-15 -14 -38.5 -34t-50.5 -42t-52 -41.5t-44 -32.5h-106v13q16 19 37 44.5t42.5 53t35.5 49.5h176v-10z" />
    <glyph glyph-name="lacute" unicode="&#x13a;" horiz-adv-x="296" 
d="M228 0h-160v760h160v-760zM363 970q-15 -14 -38.5 -34t-50.5 -42t-52 -41.5t-44 -32.5h-106v13q16 19 37 44.5t42.5 53t35.5 49.5h176v-10z" />
    <glyph glyph-name="uni013B" unicode="&#x13b;" horiz-adv-x="539" 
d="M79 0v714h162v-589h265v-125h-427zM369 -71q-15 -33 -33 -71.5t-44 -78.5h-94v13q8 29 15.5 72t9.5 75h146v-10z" />
    <glyph glyph-name="uni013C" unicode="&#x13c;" horiz-adv-x="296" 
d="M228 0h-160v760h160v-760zM227 -71q-15 -33 -33 -71.5t-44 -78.5h-94v13q8 29 15.5 72t9.5 75h146v-10z" />
    <glyph glyph-name="Lcaron" unicode="&#x13d;" horiz-adv-x="565" 
d="M541 704q-16 -33 -34.5 -71.5t-44.5 -78.5h-94v13q8 29 16 72t11 75h146v-10zM79 0v714h162v-589h265v-125h-427z" />
    <glyph glyph-name="lcaron" unicode="&#x13e;" horiz-adv-x="305" 
d="M445 750q-16 -33 -34.5 -71.5t-44.5 -78.5h-94v13q8 29 16 72t11 75h146v-10zM228 0h-160v760h160v-760z" />
    <glyph glyph-name="Ldot" unicode="&#x13f;" horiz-adv-x="539" 
d="M79 0v714h162v-589h265v-125h-427zM434 465q35 0 60 -15.5t25 -57.5q0 -41 -25 -57t-60 -16q-36 0 -61 16t-25 57q0 42 25 57.5t61 15.5z" />
    <glyph glyph-name="ldot" unicode="&#x140;" horiz-adv-x="362" 
d="M228 0h-160v760h160v-760zM329 451q35 0 60 -15.5t25 -57.5q0 -41 -25 -57t-60 -16q-36 0 -61 16t-25 57q0 42 25 57.5t61 15.5z" />
    <glyph glyph-name="Lslash" unicode="&#x141;" horiz-adv-x="551" 
d="M91 0v240l-40 -20l-58 96l98 54v344h161v-252l82 43l60 -96l-142 -77v-207h266v-125h-427z" />
    <glyph glyph-name="lslash" unicode="&#x142;" horiz-adv-x="339" 
d="M90 0v233l-45 -21l-58 96l103 55v397h160v-306l42 21l60 -96l-102 -55v-324h-160z" />
    <glyph glyph-name="Nacute" unicode="&#x143;" horiz-adv-x="775" 
d="M696 0h-209l-269 540h-4q2 -51 5 -102t4 -102v-336h-144v714h208l268 -535h3q-1 50 -3.5 99t-3.5 98v338h145v-714zM603 924q-15 -14 -38.5 -34t-50.5 -42t-52 -41.5t-44 -32.5h-106v13q16 19 37 44.5t42.5 53t35.5 49.5h176v-10z" />
    <glyph glyph-name="nacute" unicode="&#x144;" horiz-adv-x="624" 
d="M376 556q82 0 132.5 -47.5t50.5 -152.5v-356h-160v319q0 59 -17.5 88.5t-55.5 29.5q-58 0 -78 -46.5t-20 -133.5v-257h-160v546h121l22 -70h7q25 42 66 61t92 19zM527 756q-15 -14 -38.5 -34t-50.5 -42t-52 -41.5t-44 -32.5h-106v13q16 19 37 44.5t42.5 53t35.5 49.5h176
v-10z" />
    <glyph glyph-name="uni0145" unicode="&#x145;" horiz-adv-x="775" 
d="M696 0h-209l-269 540h-4q2 -51 5 -102t4 -102v-336h-144v714h208l268 -535h3q-1 50 -3.5 99t-3.5 98v338h145v-714zM467 -71q-15 -33 -33 -71.5t-44 -78.5h-94v13q8 29 15.5 72t9.5 75h146v-10z" />
    <glyph glyph-name="uni0146" unicode="&#x146;" horiz-adv-x="624" 
d="M376 556q82 0 132.5 -47.5t50.5 -152.5v-356h-160v319q0 59 -17.5 88.5t-55.5 29.5q-58 0 -78 -46.5t-20 -133.5v-257h-160v546h121l22 -70h7q25 42 66 61t92 19zM391 -71q-15 -33 -33 -71.5t-44 -78.5h-94v13q8 29 15.5 72t9.5 75h146v-10z" />
    <glyph glyph-name="Ncaron" unicode="&#x147;" horiz-adv-x="775" 
d="M696 0h-209l-269 540h-4q2 -51 5 -102t4 -102v-336h-144v714h208l268 -535h3q-1 50 -3.5 99t-3.5 98v338h145v-714zM591 921q-16 -18 -38 -44t-43.5 -53t-35.5 -50h-172q-13 23 -34.5 50t-43.5 53t-40 44v13h106q25 -16 48.5 -37.5t48.5 -48.5q24 27 49.5 48.5t50.5 37.5
h104v-13z" />
    <glyph glyph-name="ncaron" unicode="&#x148;" horiz-adv-x="624" 
d="M376 556q82 0 132.5 -47.5t50.5 -152.5v-356h-160v319q0 59 -17.5 88.5t-55.5 29.5q-58 0 -78 -46.5t-20 -133.5v-257h-160v546h121l22 -70h7q25 42 66 61t92 19zM515 753q-16 -18 -38 -44t-43.5 -53t-35.5 -50h-172q-13 23 -34.5 50t-43.5 53t-40 44v13h106
q25 -16 48.5 -37.5t48.5 -48.5q24 27 49.5 48.5t50.5 37.5h104v-13z" />
    <glyph glyph-name="napostrophe" unicode="&#x149;" horiz-adv-x="770" 
d="M522 556q82 0 132.5 -47.5t50.5 -152.5v-356h-160v319q0 59 -17.5 88.5t-55.5 29.5q-58 0 -78 -46.5t-20 -133.5v-257h-160v546h121l22 -70h7q25 42 66 61t92 19zM199 703q-13 -53 -35.5 -116t-45.5 -118h-114q14 59 26.5 126t19.5 119h142z" />
    <glyph glyph-name="Eng" unicode="&#x14a;" horiz-adv-x="775" 
d="M470 -210q-32 0 -56 3.5t-41 7.5v118q17 -4 36.5 -7t41.5 -3q53 0 78.5 22t28.5 71l-340 538h-4q1 0 2.5 -21t3 -53.5t2.5 -67.5t1 -62v-336h-144v714h199l277 -440h3l-1.5 21t-2.5 52.5t-2 65t-1 58.5v243h145v-714q0 -72 -29 -118.5t-79.5 -69t-117.5 -22.5z" />
    <glyph glyph-name="eng" unicode="&#x14b;" horiz-adv-x="624" 
d="M381 -240q-22 0 -48 3.5t-43 8.5v117q15 -4 27 -6.5t27 -2.5q23 0 38.5 17t15.5 66v367q0 107 -72 107q-58 0 -78 -46.5t-20 -133.5v-257h-160v546h121l21 -70h10q25 42 67.5 61t89.5 19q79 0 130.5 -47.5t51.5 -152.5v-415q0 -50 -17.5 -91t-56.5 -65.5t-104 -24.5z" />
    <glyph glyph-name="Omacron" unicode="&#x14c;" horiz-adv-x="749" 
d="M697 358q0 -111 -34 -193.5t-105 -128.5t-184 -46q-111 0 -182.5 46t-106 129t-34.5 194t34.5 193t106.5 127.5t183 45.5q112 0 183 -45.5t105 -128t34 -193.5zM221 358q0 -112 36 -176.5t117 -64.5q83 0 118 64.5t35 176.5q0 113 -35 177t-117 64t-118 -64t-36 -177z
M534 888v-103h-322v103h322z" />
    <glyph glyph-name="omacron" unicode="&#x14d;" horiz-adv-x="590" 
d="M549 274q0 -136 -68 -210t-187 -74q-73 0 -130.5 33t-90 96.5t-32.5 154.5q0 136 68.5 209t187.5 73q73 0 130 -33t89.5 -95.5t32.5 -153.5zM204 274q0 -81 21.5 -122.5t70.5 -41.5t69.5 41.5t20.5 122.5t-20.5 121.5t-70.5 40.5q-49 0 -70 -40.5t-21 -121.5zM456 709
v-103h-322v103h322z" />
    <glyph glyph-name="Obreve" unicode="&#x14e;" horiz-adv-x="749" 
d="M697 358q0 -111 -34 -193.5t-105 -128.5t-184 -46q-111 0 -182.5 46t-106 129t-34.5 194t34.5 193t106.5 127.5t183 45.5q112 0 183 -45.5t105 -128t34 -193.5zM221 358q0 -112 36 -176.5t117 -64.5q83 0 118 64.5t35 176.5q0 113 -35 177t-117 64t-118 -64t-36 -177z
M557 950q-4 -73 -53.5 -119t-131.5 -46q-85 0 -131 45t-50 120h87q7 -42 31 -51.5t64 -9.5q32 0 59.5 11t34.5 50h90z" />
    <glyph glyph-name="obreve" unicode="&#x14f;" horiz-adv-x="590" 
d="M549 274q0 -136 -68 -210t-187 -74q-73 0 -130.5 33t-90 96.5t-32.5 154.5q0 136 68.5 209t187.5 73q73 0 130 -33t89.5 -95.5t32.5 -153.5zM204 274q0 -81 21.5 -122.5t70.5 -41.5t69.5 41.5t20.5 122.5t-20.5 121.5t-70.5 40.5q-49 0 -70 -40.5t-21 -121.5zM479 771
q-4 -73 -53.5 -119t-131.5 -46q-85 0 -131 45t-50 120h87q7 -42 31 -51.5t64 -9.5q32 0 59.5 11t34.5 50h90z" />
    <glyph glyph-name="Ohungarumlaut" unicode="&#x150;" horiz-adv-x="749" 
d="M697 358q0 -111 -34 -193.5t-105 -128.5t-184 -46q-111 0 -182.5 46t-106 129t-34.5 194t34.5 193t106.5 127.5t183 45.5q112 0 183 -45.5t105 -128t34 -193.5zM221 358q0 -112 36 -176.5t117 -64.5q83 0 118 64.5t35 176.5q0 113 -35 177t-117 64t-118 -64t-36 -177z
M596 935q-7 -13 -26.5 -33t-44.5 -42t-49.5 -41.5t-42.5 -33.5h-84v13q14 19 31 45t33.5 53t27.5 49h155v-10zM398 935q-7 -13 -26.5 -33t-44.5 -42t-49 -41.5t-42 -33.5h-84v13q13 19 30 45t34 53t28 49h154v-10z" />
    <glyph glyph-name="ohungarumlaut" unicode="&#x151;" horiz-adv-x="590" 
d="M549 274q0 -136 -68 -210t-187 -74q-73 0 -130.5 33t-90 96.5t-32.5 154.5q0 136 68.5 209t187.5 73q73 0 130 -33t89.5 -95.5t32.5 -153.5zM204 274q0 -81 21.5 -122.5t70.5 -41.5t69.5 41.5t20.5 122.5t-20.5 121.5t-70.5 40.5q-49 0 -70 -40.5t-21 -121.5zM518 756
q-7 -13 -26.5 -33t-44.5 -42t-49.5 -41.5t-42.5 -33.5h-84v13q14 19 31 45t33.5 53t27.5 49h155v-10zM320 756q-7 -13 -26.5 -33t-44.5 -42t-49 -41.5t-42 -33.5h-84v13q13 19 30 45t34 53t28 49h154v-10z" />
    <glyph glyph-name="OE" unicode="&#x152;" horiz-adv-x="907" 
d="M356 725q25 0 57 -3t53 -8h391v-124h-238v-157h221v-124h-221v-184h238v-125h-394q-20 -4 -52 -7t-56 -3q-102 0 -169.5 46t-101 129t-33.5 194t33 193t101 127.5t171 45.5zM356 599q-70 0 -103 -64t-33 -177q0 -112 33 -176.5t103 -64.5q28 0 56 5t45 14v443
q-16 10 -44 15t-57 5z" />
    <glyph glyph-name="oe" unicode="&#x153;" horiz-adv-x="920" 
d="M649 556q104 0 167.5 -64.5t63.5 -183.5v-72h-331q3 -64 35.5 -99.5t90.5 -35.5q87 0 174 43v-115q-38 -20 -81 -29.5t-107 -9.5q-55 0 -102 18.5t-82 57.5q-67 -76 -182 -76q-74 0 -131.5 33t-90 96.5t-32.5 154.5q0 136 67.5 209t187.5 73q106 0 174 -76q66 76 179 76z
M645 450q-37 0 -62.5 -28t-29.5 -87h181q-1 50 -23 82.5t-66 32.5zM295 436q-49 0 -70 -40.5t-21 -121.5t21.5 -122.5t70.5 -41.5t69.5 41.5t20.5 122.5t-20.5 121.5t-70.5 40.5z" />
    <glyph glyph-name="Racute" unicode="&#x154;" horiz-adv-x="628" 
d="M287 714q270 0 270 -214q0 -73 -34 -119t-85 -70l196 -311h-181l-151 274h-61v-274h-162v714h208zM280 590h-39v-193h40q113 0 113 99q0 51 -27.5 72.5t-86.5 21.5zM534 924q-15 -14 -38.5 -34t-50.5 -42t-52 -41.5t-44 -32.5h-106v13q16 19 37 44.5t42.5 53t35.5 49.5
h176v-10z" />
    <glyph glyph-name="racute" unicode="&#x155;" horiz-adv-x="434" 
d="M368 556q13 0 28 -1t23 -3l-13 -140q-18 5 -51 5q-29 0 -58.5 -13.5t-49 -43.5t-19.5 -82v-278h-160v546h120l24 -92h8q22 42 61 72t87 30zM463 756q-15 -14 -38.5 -34t-50.5 -42t-52 -41.5t-44 -32.5h-106v13q16 19 37 44.5t42.5 53t35.5 49.5h176v-10z" />
    <glyph glyph-name="uni0156" unicode="&#x156;" horiz-adv-x="628" 
d="M287 714q270 0 270 -214q0 -73 -34 -119t-85 -70l196 -311h-181l-151 274h-61v-274h-162v714h208zM280 590h-39v-193h40q113 0 113 99q0 51 -27.5 72.5t-86.5 21.5zM414 -71q-15 -33 -33 -71.5t-44 -78.5h-94v13q8 29 15.5 72t9.5 75h146v-10z" />
    <glyph glyph-name="uni0157" unicode="&#x157;" horiz-adv-x="434" 
d="M368 556q13 0 28 -1t23 -3l-13 -140q-18 5 -51 5q-29 0 -58.5 -13.5t-49 -43.5t-19.5 -82v-278h-160v546h120l24 -92h8q22 42 61 72t87 30zM230 -71q-15 -33 -33 -71.5t-44 -78.5h-94v13q8 29 15.5 72t9.5 75h146v-10z" />
    <glyph glyph-name="Rcaron" unicode="&#x158;" horiz-adv-x="628" 
d="M287 714q270 0 270 -214q0 -73 -34 -119t-85 -70l196 -311h-181l-151 274h-61v-274h-162v714h208zM280 590h-39v-193h40q113 0 113 99q0 51 -27.5 72.5t-86.5 21.5zM522 921q-16 -18 -38 -44t-43.5 -53t-35.5 -50h-172q-13 23 -34.5 50t-43.5 53t-40 44v13h106
q25 -16 48.5 -37.5t48.5 -48.5q24 27 49.5 48.5t50.5 37.5h104v-13z" />
    <glyph glyph-name="rcaron" unicode="&#x159;" horiz-adv-x="434" 
d="M368 556q13 0 28 -1t23 -3l-13 -140q-18 5 -51 5q-29 0 -58.5 -13.5t-49 -43.5t-19.5 -82v-278h-160v546h120l24 -92h8q22 42 61 72t87 30zM451 753q-16 -18 -38 -44t-43.5 -53t-35.5 -50h-172q-13 23 -34.5 50t-43.5 53t-40 44v13h106q25 -16 48.5 -37.5t48.5 -48.5
q24 27 49.5 48.5t50.5 37.5h104v-13z" />
    <glyph glyph-name="Sacute" unicode="&#x15a;" horiz-adv-x="529" 
d="M495 198q0 -95 -63.5 -151.5t-191.5 -56.5q-60 0 -107 11t-91 32v141q51 -22 104.5 -40.5t101.5 -18.5q46 0 66.5 21.5t20.5 54.5q0 40 -32 65t-94 50q-40 17 -77 42t-60.5 66.5t-23.5 106.5q0 96 65.5 149.5t174.5 53.5q59 0 109.5 -13t96.5 -37l-51 -118
q-44 20 -83.5 31t-76.5 11t-56.5 -20t-19.5 -52q0 -25 13.5 -42.5t42.5 -34t74 -39.5q50 -25 85.5 -52.5t54 -65.5t18.5 -94zM484 924q-15 -14 -38.5 -34t-50.5 -42t-52 -41.5t-44 -32.5h-106v13q16 19 37 44.5t42.5 53t35.5 49.5h176v-10z" />
    <glyph glyph-name="sacute" unicode="&#x15b;" horiz-adv-x="477" 
d="M440 162q0 -83 -53 -127.5t-166 -44.5q-55 0 -96 7.5t-83 24.5v123q46 -20 95 -33t82 -13q36 0 51.5 13t15.5 34q0 14 -8 25t-32 25t-71 36q-46 22 -75.5 43.5t-44 52t-14.5 76.5q0 76 57.5 114t151.5 38q95 0 185 -43l-45 -107q-39 17 -75.5 28.5t-65.5 11.5
q-53 0 -53 -36q0 -13 8 -23.5t31 -23t67 -31.5q45 -19 75.5 -39.5t46.5 -51t16 -79.5zM450 756q-15 -14 -38.5 -34t-50.5 -42t-52 -41.5t-44 -32.5h-106v13q16 19 37 44.5t42.5 53t35.5 49.5h176v-10z" />
    <glyph glyph-name="Scircumflex" unicode="&#x15c;" horiz-adv-x="529" 
d="M495 198q0 -95 -63.5 -151.5t-191.5 -56.5q-60 0 -107 11t-91 32v141q51 -22 104.5 -40.5t101.5 -18.5q46 0 66.5 21.5t20.5 54.5q0 40 -32 65t-94 50q-40 17 -77 42t-60.5 66.5t-23.5 106.5q0 96 65.5 149.5t174.5 53.5q59 0 109.5 -13t96.5 -37l-51 -118
q-44 20 -83.5 31t-76.5 11t-56.5 -20t-19.5 -52q0 -25 13.5 -42.5t42.5 -34t74 -39.5q50 -25 85.5 -52.5t54 -65.5t18.5 -94zM355 934q14 -22 35.5 -49.5t43.5 -53.5t38 -44v-13h-104q-25 16 -50.5 37.5t-49.5 48.5q-25 -27 -48.5 -48t-48.5 -38h-106v13q18 19 40 44.5
t43.5 53t34.5 49.5h172z" />
    <glyph glyph-name="scircumflex" unicode="&#x15d;" horiz-adv-x="477" 
d="M440 162q0 -83 -53 -127.5t-166 -44.5q-55 0 -96 7.5t-83 24.5v123q46 -20 95 -33t82 -13q36 0 51.5 13t15.5 34q0 14 -8 25t-32 25t-71 36q-46 22 -75.5 43.5t-44 52t-14.5 76.5q0 76 57.5 114t151.5 38q95 0 185 -43l-45 -107q-39 17 -75.5 28.5t-65.5 11.5
q-53 0 -53 -36q0 -13 8 -23.5t31 -23t67 -31.5q45 -19 75.5 -39.5t46.5 -51t16 -79.5zM321 766q14 -22 35.5 -49.5t43.5 -53.5t38 -44v-13h-104q-25 16 -50.5 37.5t-49.5 48.5q-25 -27 -48.5 -48t-48.5 -38h-106v13q18 19 40 44.5t43.5 53t34.5 49.5h172z" />
    <glyph glyph-name="Scedilla" unicode="&#x15e;" horiz-adv-x="529" 
d="M495 198q0 -95 -63.5 -151.5t-191.5 -56.5q-60 0 -107 11t-91 32v141q51 -22 104.5 -40.5t101.5 -18.5q46 0 66.5 21.5t20.5 54.5q0 40 -32 65t-94 50q-40 17 -77 42t-60.5 66.5t-23.5 106.5q0 96 65.5 149.5t174.5 53.5q59 0 109.5 -13t96.5 -37l-51 -118
q-44 20 -83.5 31t-76.5 11t-56.5 -20t-19.5 -52q0 -25 13.5 -42.5t42.5 -34t74 -39.5q50 -25 85.5 -52.5t54 -65.5t18.5 -94zM385 -122q0 -56 -32.5 -87t-101.5 -31q-26 0 -47.5 3t-36.5 7v82q14 -4 31.5 -7t31.5 -3q16 0 26 6.5t10 23.5q0 18 -16.5 32t-55.5 21l32 75h89
l-10 -30q28 -10 54 -32.5t26 -59.5z" />
    <glyph glyph-name="scedilla" unicode="&#x15f;" horiz-adv-x="477" 
d="M440 162q0 -83 -53 -127.5t-166 -44.5q-55 0 -96 7.5t-83 24.5v123q46 -20 95 -33t82 -13q36 0 51.5 13t15.5 34q0 14 -8 25t-32 25t-71 36q-46 22 -75.5 43.5t-44 52t-14.5 76.5q0 76 57.5 114t151.5 38q95 0 185 -43l-45 -107q-39 17 -75.5 28.5t-65.5 11.5
q-53 0 -53 -36q0 -13 8 -23.5t31 -23t67 -31.5q45 -19 75.5 -39.5t46.5 -51t16 -79.5zM359 -122q0 -56 -32.5 -87t-101.5 -31q-26 0 -47.5 3t-36.5 7v82q14 -4 31.5 -7t31.5 -3q16 0 26 6.5t10 23.5q0 18 -16.5 32t-55.5 21l32 75h89l-10 -30q28 -10 54 -32.5t26 -59.5z" />
    <glyph glyph-name="Scaron" unicode="&#x160;" horiz-adv-x="529" 
d="M495 198q0 -95 -63.5 -151.5t-191.5 -56.5q-60 0 -107 11t-91 32v141q51 -22 104.5 -40.5t101.5 -18.5q46 0 66.5 21.5t20.5 54.5q0 40 -32 65t-94 50q-40 17 -77 42t-60.5 66.5t-23.5 106.5q0 96 65.5 149.5t174.5 53.5q59 0 109.5 -13t96.5 -37l-51 -118
q-44 20 -83.5 31t-76.5 11t-56.5 -20t-19.5 -52q0 -25 13.5 -42.5t42.5 -34t74 -39.5q50 -25 85.5 -52.5t54 -65.5t18.5 -94zM472 921q-16 -18 -38 -44t-43.5 -53t-35.5 -50h-172q-13 23 -34.5 50t-43.5 53t-40 44v13h106q25 -16 48.5 -37.5t48.5 -48.5q24 27 49.5 48.5
t50.5 37.5h104v-13z" />
    <glyph glyph-name="scaron" unicode="&#x161;" horiz-adv-x="477" 
d="M440 162q0 -83 -53 -127.5t-166 -44.5q-55 0 -96 7.5t-83 24.5v123q46 -20 95 -33t82 -13q36 0 51.5 13t15.5 34q0 14 -8 25t-32 25t-71 36q-46 22 -75.5 43.5t-44 52t-14.5 76.5q0 76 57.5 114t151.5 38q95 0 185 -43l-45 -107q-39 17 -75.5 28.5t-65.5 11.5
q-53 0 -53 -36q0 -13 8 -23.5t31 -23t67 -31.5q45 -19 75.5 -39.5t46.5 -51t16 -79.5zM438 753q-16 -18 -38 -44t-43.5 -53t-35.5 -50h-172q-13 23 -34.5 50t-43.5 53t-40 44v13h106q25 -16 48.5 -37.5t48.5 -48.5q24 27 49.5 48.5t50.5 37.5h104v-13z" />
    <glyph glyph-name="uni0162" unicode="&#x162;" horiz-adv-x="550" 
d="M356 0h-162v588h-173v126h508v-126h-173v-588zM411 -122q0 -56 -32.5 -87t-101.5 -31q-26 0 -47.5 3t-36.5 7v82q14 -4 31.5 -7t31.5 -3q16 0 26 6.5t10 23.5q0 18 -16.5 32t-55.5 21l32 75h89l-10 -30q28 -10 54 -32.5t26 -59.5z" />
    <glyph glyph-name="uni0163" unicode="&#x163;" horiz-adv-x="420" 
d="M303 109q24 0 44.5 5t42.5 12v-111q-25 -10 -58.5 -17.5t-78.5 -7.5q-48 0 -85.5 16t-58.5 55.5t-21 109.5v263h-65v63l78 50l44 115h103v-116h136v-112h-136v-263q0 -31 15 -46.5t40 -15.5zM390 -122q0 -56 -32.5 -87t-101.5 -31q-26 0 -47.5 3t-36.5 7v82
q14 -4 31.5 -7t31.5 -3q16 0 26 6.5t10 23.5q0 18 -16.5 32t-55.5 21l32 75h89l-10 -30q28 -10 54 -32.5t26 -59.5z" />
    <glyph glyph-name="Tcaron" unicode="&#x164;" horiz-adv-x="550" 
d="M356 0h-162v588h-173v126h508v-126h-173v-588zM478 921q-16 -18 -38 -44t-43.5 -53t-35.5 -50h-172q-13 23 -34.5 50t-43.5 53t-40 44v13h106q25 -16 48.5 -37.5t48.5 -48.5q24 27 49.5 48.5t50.5 37.5h104v-13z" />
    <glyph glyph-name="tcaron" unicode="&#x165;" horiz-adv-x="420" 
d="M552 750q-16 -33 -34.5 -71.5t-44.5 -78.5h-94v13q8 29 16 72t11 75h146v-10zM303 109q24 0 44.5 5t42.5 12v-111q-25 -10 -58.5 -17.5t-78.5 -7.5q-48 0 -85.5 16t-58.5 55.5t-21 109.5v263h-65v63l78 50l44 115h103v-116h136v-112h-136v-263q0 -31 15 -46.5t40 -15.5z
" />
    <glyph glyph-name="Tbar" unicode="&#x166;" horiz-adv-x="550" 
d="M194 0v291h-104v124h104v173h-173v126h508v-126h-173v-173h105v-124h-105v-291h-162z" />
    <glyph glyph-name="tbar" unicode="&#x167;" horiz-adv-x="434" 
d="M32 243v97h56v94h-65v63l78 50l44 115h103v-116h136v-112h-136v-94h131v-97h-131v-72q0 -31 15 -46.5t40 -15.5q24 0 44.5 5t42.5 12v-111q-25 -10 -58.5 -17.5t-78.5 -7.5q-48 0 -85.5 16t-58.5 55.5t-21 109.5v72h-56z" />
    <glyph glyph-name="Utilde" unicode="&#x168;" horiz-adv-x="711" 
d="M637 252q0 -74 -31.5 -133.5t-94.5 -94t-158 -34.5q-136 0 -207.5 72.5t-71.5 191.5v460h162v-437q0 -88 30.5 -124t89.5 -36q63 0 91 39t28 122v436h162v-462zM548 925q-6 -77 -39 -114t-80 -37q-26 0 -52 12.5t-50.5 25.5t-47.5 13q-11 0 -22.5 -13t-16.5 -39h-76
q6 78 38.5 114.5t81.5 36.5q25 0 50 -13t50 -25.5t48 -12.5q11 0 22.5 13t16.5 39h77z" />
    <glyph glyph-name="utilde" unicode="&#x169;" horiz-adv-x="624" 
d="M556 546v-546h-121l-21 70h-9q-25 -42 -67 -61t-90 -19q-79 0 -130.5 47.5t-51.5 152.5v356h160v-319q0 -58 17 -88t55 -30q58 0 78 46.5t20 133.5v257h160zM504 757q-6 -77 -39 -114t-80 -37q-26 0 -52 12.5t-50.5 25.5t-47.5 13q-11 0 -22.5 -13t-16.5 -39h-76
q6 78 38.5 114.5t81.5 36.5q25 0 50 -13t50 -25.5t48 -12.5q11 0 22.5 13t16.5 39h77z" />
    <glyph glyph-name="Umacron" unicode="&#x16a;" horiz-adv-x="711" 
d="M637 252q0 -74 -31.5 -133.5t-94.5 -94t-158 -34.5q-136 0 -207.5 72.5t-71.5 191.5v460h162v-437q0 -88 30.5 -124t89.5 -36q63 0 91 39t28 122v436h162v-462zM516 877v-103h-322v103h322z" />
    <glyph glyph-name="umacron" unicode="&#x16b;" horiz-adv-x="624" 
d="M556 546v-546h-121l-21 70h-9q-25 -42 -67 -61t-90 -19q-79 0 -130.5 47.5t-51.5 152.5v356h160v-319q0 -58 17 -88t55 -30q58 0 78 46.5t20 133.5v257h160zM472 709v-103h-322v103h322z" />
    <glyph glyph-name="Ubreve" unicode="&#x16c;" horiz-adv-x="711" 
d="M637 252q0 -74 -31.5 -133.5t-94.5 -94t-158 -34.5q-136 0 -207.5 72.5t-71.5 191.5v460h162v-437q0 -88 30.5 -124t89.5 -36q63 0 91 39t28 122v436h162v-462zM539 939q-4 -73 -53.5 -119t-131.5 -46q-85 0 -131 45t-50 120h87q7 -42 31 -51.5t64 -9.5q32 0 59.5 11
t34.5 50h90z" />
    <glyph glyph-name="ubreve" unicode="&#x16d;" horiz-adv-x="624" 
d="M556 546v-546h-121l-21 70h-9q-25 -42 -67 -61t-90 -19q-79 0 -130.5 47.5t-51.5 152.5v356h160v-319q0 -58 17 -88t55 -30q58 0 78 46.5t20 133.5v257h160zM495 771q-4 -73 -53.5 -119t-131.5 -46q-85 0 -131 45t-50 120h87q7 -42 31 -51.5t64 -9.5q32 0 59.5 11
t34.5 50h90z" />
    <glyph glyph-name="Uring" unicode="&#x16e;" horiz-adv-x="711" 
d="M637 252q0 -74 -31.5 -133.5t-94.5 -94t-158 -34.5q-136 0 -207.5 72.5t-71.5 191.5v460h162v-437q0 -88 30.5 -124t89.5 -36q63 0 91 39t28 122v436h162v-462zM354 773q-52 0 -84.5 31t-32.5 85t32.5 85t84.5 31q50 0 85.5 -31t35.5 -84q0 -55 -35 -86t-86 -31zM354 842
q18 0 30 12.5t12 34.5t-12 34.5t-30 12.5q-17 0 -29 -12.5t-12 -34.5t10.5 -34.5t30.5 -12.5z" />
    <glyph glyph-name="uring" unicode="&#x16f;" horiz-adv-x="624" 
d="M556 546v-546h-121l-21 70h-9q-25 -42 -67 -61t-90 -19q-79 0 -130.5 47.5t-51.5 152.5v356h160v-319q0 -58 17 -88t55 -30q58 0 78 46.5t20 133.5v257h160zM310 605q-52 0 -84.5 31t-32.5 85t32.5 85t84.5 31q50 0 85.5 -31t35.5 -84q0 -55 -35 -86t-86 -31zM310 674
q18 0 30 12.5t12 34.5t-12 34.5t-30 12.5q-17 0 -29 -12.5t-12 -34.5t10.5 -34.5t30.5 -12.5z" />
    <glyph glyph-name="Uhungarumlaut" unicode="&#x170;" horiz-adv-x="711" 
d="M637 252q0 -74 -31.5 -133.5t-94.5 -94t-158 -34.5q-136 0 -207.5 72.5t-71.5 191.5v460h162v-437q0 -88 30.5 -124t89.5 -36q63 0 91 39t28 122v436h162v-462zM578 924q-7 -13 -26.5 -33t-44.5 -42t-49.5 -41.5t-42.5 -33.5h-84v13q14 19 31 45t33.5 53t27.5 49h155v-10
zM380 924q-7 -13 -26.5 -33t-44.5 -42t-49 -41.5t-42 -33.5h-84v13q13 19 30 45t34 53t28 49h154v-10z" />
    <glyph glyph-name="uhungarumlaut" unicode="&#x171;" horiz-adv-x="624" 
d="M556 546v-546h-121l-21 70h-9q-25 -42 -67 -61t-90 -19q-79 0 -130.5 47.5t-51.5 152.5v356h160v-319q0 -58 17 -88t55 -30q58 0 78 46.5t20 133.5v257h160zM534 756q-7 -13 -26.5 -33t-44.5 -42t-49.5 -41.5t-42.5 -33.5h-84v13q14 19 31 45t33.5 53t27.5 49h155v-10z
M336 756q-7 -13 -26.5 -33t-44.5 -42t-49 -41.5t-42 -33.5h-84v13q13 19 30 45t34 53t28 49h154v-10z" />
    <glyph glyph-name="Uogonek" unicode="&#x172;" horiz-adv-x="756" 
d="M455 -100q0 -25 12 -38t29 -13q16 0 30 3t24 6v-87q-16 -4 -34 -7.5t-42 -3.5q-56 0 -89 32t-33 87q0 31 13 60t34 53q-22 -2 -46 -2q-136 0 -207.5 72.5t-71.5 191.5v460h162v-437q0 -88 30.5 -124t89.5 -36q63 0 91 39t28 122v436h162v-462q0 -63 -22.5 -116t-68.5 -88
q-48 -46 -69.5 -81.5t-21.5 -66.5z" />
    <glyph glyph-name="uogonek" unicode="&#x173;" horiz-adv-x="624" 
d="M556 546v-546h-121l-21 70h-9q-25 -42 -67 -61t-90 -19q-79 0 -130.5 47.5t-51.5 152.5v356h160v-319q0 -58 17 -88t55 -30q58 0 78 46.5t20 133.5v257h160zM466 -111q0 -40 36 -40q14 0 29 3t24 6v-87q-15 -4 -33 -7.5t-42 -3.5q-53 0 -87 31.5t-34 80.5q0 44 26.5 82
t78.5 63l66 -17q-31 -32 -47.5 -58.5t-16.5 -52.5z" />
    <glyph glyph-name="Wcircumflex" unicode="&#x174;" horiz-adv-x="943" 
d="M936 714l-169 -714h-188l-79 375l-6 33t-8.5 48t-8 49.5t-5.5 36.5q-1 -13 -5 -36.5t-8.5 -49t-8.5 -48t-7 -34.5l-79 -374h-188l-169 714h158l79 -390q5 -23 11.5 -58l13 -70t8.5 -59q4 25 10.5 60t12.5 68t10 51l87 398h150l85 -400q4 -18 10.5 -50.5t13 -67.5t9.5 -59
q3 25 9 59.5t13 69.5t12 58l79 390h158zM558 934q14 -22 35.5 -49.5t43.5 -53.5t38 -44v-13h-104q-25 16 -50.5 37.5t-49.5 48.5q-25 -27 -48.5 -48t-48.5 -38h-106v13q18 19 40 44.5t43.5 53t34.5 49.5h172z" />
    <glyph glyph-name="wcircumflex" unicode="&#x175;" horiz-adv-x="829" 
d="M440 288q-7 34 -13.5 69t-9.5 65h-3q-3 -30 -9 -66.5t-14 -71.5l-63 -284h-187l-131 546h156l52 -279q7 -37 13 -75t8 -67h4q2 19 6.5 47t9.5 53.5t7 36.5l63 284h174l61 -283q3 -14 7 -39.5t7.5 -52.5t4.5 -46h3q3 28 9 66t14 76l58 279h152l-135 -546h-186zM501 766
q14 -22 35.5 -49.5t43.5 -53.5t38 -44v-13h-104q-25 16 -50.5 37.5t-49.5 48.5q-25 -27 -48.5 -48t-48.5 -38h-106v13q18 19 40 44.5t43.5 53t34.5 49.5h172z" />
    <glyph glyph-name="Ycircumflex" unicode="&#x176;" horiz-adv-x="605" 
d="M303 420l128 294h174l-222 -436v-278h-161v273l-222 441h176zM389 934q14 -22 35.5 -49.5t43.5 -53.5t38 -44v-13h-104q-25 16 -50.5 37.5t-49.5 48.5q-25 -27 -48.5 -48t-48.5 -38h-106v13q18 19 40 44.5t43.5 53t34.5 49.5h172z" />
    <glyph glyph-name="ycircumflex" unicode="&#x177;" horiz-adv-x="554" 
d="M0 546h171l91 -307q7 -22 10 -45.5t4 -49.5h4q2 26 5.5 49.5t10.5 45.5l91 307h168l-214 -615q-30 -85 -85.5 -128t-143.5 -43q-24 0 -41.5 2.5t-30.5 5.5v118q10 -2 24.5 -4t30.5 -2q44 0 68 28.5t34 68.5l7 27zM364 766q14 -22 35.5 -49.5t43.5 -53.5t38 -44v-13h-104
q-25 16 -50.5 37.5t-49.5 48.5q-25 -27 -48.5 -48t-48.5 -38h-106v13q18 19 40 44.5t43.5 53t34.5 49.5h172z" />
    <glyph glyph-name="Ydieresis" unicode="&#x178;" horiz-adv-x="605" 
d="M303 420l128 294h174l-222 -436v-278h-161v273l-222 441h176zM130 854q0 35 20.5 50.5t50.5 15.5q29 0 50.5 -15.5t21.5 -50.5q0 -33 -21.5 -49t-50.5 -16q-30 0 -50.5 16t-20.5 49zM332 854q0 35 21 50.5t51 15.5q29 0 50.5 -15.5t21.5 -50.5q0 -33 -21.5 -49t-50.5 -16
q-30 0 -51 16t-21 49z" />
    <glyph glyph-name="Zacute" unicode="&#x179;" horiz-adv-x="559" 
d="M536 0h-511v98l306 491h-298v125h495v-98l-306 -491h314v-125zM501 924q-15 -14 -38.5 -34t-50.5 -42t-52 -41.5t-44 -32.5h-106v13q16 19 37 44.5t42.5 53t35.5 49.5h176v-10z" />
    <glyph glyph-name="zacute" unicode="&#x17a;" horiz-adv-x="468" 
d="M442 0h-418v88l227 344h-214v114h395v-97l-218 -335h228v-114zM449 756q-15 -14 -38.5 -34t-50.5 -42t-52 -41.5t-44 -32.5h-106v13q16 19 37 44.5t42.5 53t35.5 49.5h176v-10z" />
    <glyph glyph-name="Zdotaccent" unicode="&#x17b;" horiz-adv-x="559" 
d="M536 0h-511v98l306 491h-298v125h495v-98l-306 -491h314v-125zM286 928q35 0 60 -15.5t25 -57.5q0 -41 -25 -57t-60 -16q-36 0 -61 16t-25 57q0 42 25 57.5t61 15.5z" />
    <glyph glyph-name="zdotaccent" unicode="&#x17c;" horiz-adv-x="468" 
d="M442 0h-418v88l227 344h-214v114h395v-97l-218 -335h228v-114zM234 760q35 0 60 -15.5t25 -57.5q0 -41 -25 -57t-60 -16q-36 0 -61 16t-25 57q0 42 25 57.5t61 15.5z" />
    <glyph glyph-name="Zcaron" unicode="&#x17d;" horiz-adv-x="559" 
d="M536 0h-511v98l306 491h-298v125h495v-98l-306 -491h314v-125zM489 921q-16 -18 -38 -44t-43.5 -53t-35.5 -50h-172q-13 23 -34.5 50t-43.5 53t-40 44v13h106q25 -16 48.5 -37.5t48.5 -48.5q24 27 49.5 48.5t50.5 37.5h104v-13z" />
    <glyph glyph-name="zcaron" unicode="&#x17e;" horiz-adv-x="468" 
d="M442 0h-418v88l227 344h-214v114h395v-97l-218 -335h228v-114zM437 753q-16 -18 -38 -44t-43.5 -53t-35.5 -50h-172q-13 23 -34.5 50t-43.5 53t-40 44v13h106q25 -16 48.5 -37.5t48.5 -48.5q24 27 49.5 48.5t50.5 37.5h104v-13z" />
    <glyph glyph-name="longs" unicode="&#x17f;" horiz-adv-x="370" 
d="M282 647q-31 0 -42.5 -19t-11.5 -48v-580h-160v586q0 70 23 108.5t64.5 54.5t98.5 16q47 0 80.5 -7t55.5 -16l-34 -109q-16 5 -33.5 9.5t-40.5 4.5z" />
    <glyph glyph-name="uni0180" unicode="&#x180;" horiz-adv-x="603" 
d="M370 -10q-57 0 -87 21.5t-50 48.5h-11l-26 -60h-125v584h-71v97h71v79h162v-79h128v-97h-128v-14q0 -27 -1.5 -52.5t-5.5 -52.5h7q18 34 52 57.5t89 23.5t97.5 -27.5t67.5 -87t25 -157.5q0 -140 -55 -212t-139 -72zM321 111q35 0 57 42.5t22 122.5t-22.5 115.5
t-58.5 35.5q-37 0 -61.5 -36t-24.5 -110v-6q0 -79 18.5 -121.5t69.5 -42.5z" />
    <glyph glyph-name="uni0181" unicode="&#x181;" horiz-adv-x="763" 
d="M207 0v590h-24q-26 0 -38.5 -16.5t-12.5 -39.5q0 -17 3.5 -28.5t6.5 -19.5h-126q-4 8 -8 23.5t-4 34.5q0 46 17 84.5t57.5 62t108.5 23.5h234q137 0 207.5 -40t70.5 -141q0 -61 -25 -103t-70 -51v-5q29 -7 54.5 -25t41.5 -52t16 -90q0 -97 -66.5 -152t-182.5 -55h-260z
M438 431q55 0 74.5 21t19.5 61q0 41 -24 59t-77 18h-61v-159h68zM448 125q58 0 78.5 26.5t20.5 70.5q0 40 -20.5 64.5t-81.5 24.5h-75v-186h78z" />
    <glyph glyph-name="uni0182" unicode="&#x182;" horiz-adv-x="604" 
d="M79 0v714h433v-125h-271v-149h61q90 0 148.5 -28t86.5 -77t28 -112q0 -106 -69 -164.5t-205 -58.5h-212zM289 124q55 0 84 22t29 77q0 57 -31.5 75t-84.5 18h-45v-192h48z" />
    <glyph glyph-name="uni0183" unicode="&#x183;" horiz-adv-x="603" 
d="M369 -10q-57 0 -87 21.5t-50 48.5h-10l-26 -60h-125v760h443v-112h-282v-75q0 -21 -1 -44.5t-2.5 -41t-2.5 -22.5h6q19 34 52.5 57.5t89.5 23.5q55 0 97.5 -27.5t67.5 -87t25 -157.5q0 -93 -25.5 -156.5t-69.5 -95.5t-100 -32zM321 111q35 0 56.5 42.5t21.5 122.5
t-22 115.5t-58 35.5q-37 0 -62 -36t-25 -110v-6q0 -79 19 -121.5t70 -42.5z" />
    <glyph glyph-name="uni0184" unicode="&#x184;" horiz-adv-x="634" 
d="M335 -10q-123 0 -190.5 51.5t-67.5 168.5v504h163v-274h72q99 0 161.5 -28t92 -78t29.5 -116q0 -106 -64.5 -167t-195.5 -61zM329 114q44 0 72.5 24.5t28.5 79.5q0 61 -38 79.5t-103 18.5h-49v-98q0 -55 23 -79.5t66 -24.5z" />
    <glyph glyph-name="uni0185" unicode="&#x185;" horiz-adv-x="605" 
d="M320 -10q-118 0 -185 71.5t-67 205.5v493h161v-177q0 -30 -2 -59.5t-4 -48.5h6q20 34 55.5 57.5t90.5 23.5q82 0 136 -71.5t54 -211.5q0 -95 -32.5 -158t-88 -94t-124.5 -31zM317 110q41 0 62.5 38t21.5 125q0 83 -22.5 123.5t-58.5 40.5q-48 0 -69.5 -37.5t-21.5 -108.5
v-26q0 -82 23.5 -118.5t64.5 -36.5z" />
    <glyph glyph-name="uni0186" unicode="&#x186;" horiz-adv-x="604" 
d="M233 -10q-99 0 -179 37v127q45 -18 85 -28t82 -10q82 0 123.5 63.5t41.5 178.5q0 113 -40.5 176.5t-114.5 63.5q-41 0 -80 -14t-74 -33l-45 123q47 23 103.5 36.5t109.5 13.5q103 0 171 -45.5t102.5 -127.5t34.5 -190q0 -111 -35.5 -194.5t-106.5 -130t-178 -46.5z" />
    <glyph glyph-name="uni0187" unicode="&#x187;" horiz-adv-x="602" 
d="M597 879q22 0 41.5 -5t26.5 -10v-114q-7 3 -21 6.5t-31 3.5q-21 0 -32.5 -13t-11.5 -43v-40l-53 -113q-37 19 -75 33t-74 14q-70 0 -107.5 -65t-37.5 -178q0 -114 34.5 -176.5t112.5 -62.5q41 0 82.5 10t91.5 28v-127q-46 -19 -89.5 -28t-98.5 -9q-105 0 -171.5 45.5
t-98 128t-31.5 192.5q0 108 35.5 191t105.5 130t172 47q37 0 73 -11v10q0 54 21.5 88.5t57 51t78.5 16.5z" />
    <glyph glyph-name="uni0188" unicode="&#x188;" horiz-adv-x="491" 
d="M282 -10q-116 0 -179.5 67.5t-63.5 212.5q0 100 33 163t91 93t132 30q10 0 19.5 -1t19.5 -3v41q0 92 44 132t114 40q22 0 40.5 -5t26.5 -10v-114q-8 3 -21.5 6.5t-30.5 3.5q-21 0 -33 -13t-12 -43v-76l-47 -110q-34 14 -62.5 23t-57.5 9q-92 0 -92 -165q0 -82 25.5 -121
t68.5 -39q46 0 80 12.5t67 34.5v-127q-34 -22 -70 -31.5t-92 -9.5z" />
    <glyph glyph-name="uni0189" unicode="&#x189;" horiz-adv-x="693" 
d="M300 714q160 0 251 -89t91 -261q0 -120 -43.5 -201t-124.5 -122t-192 -41h-203v291h-61v124h61v299h221zM304 590h-64v-175h103v-124h-103v-166h51q183 0 183 235q0 119 -43.5 174.5t-126.5 55.5z" />
    <glyph glyph-name="uni018A" unicode="&#x18a;" horiz-adv-x="825" 
d="M207 0v590h-24q-26 0 -38.5 -16.5t-12.5 -39.5q0 -17 3.5 -28.5t6.5 -19.5h-126q-4 8 -8 23.5t-4 34.5q0 46 17 84.5t57.5 62t108.5 23.5h237q105 0 184 -40t122.5 -117.5t43.5 -192.5q0 -181 -98.5 -272.5t-272.5 -91.5h-196zM420 125q185 0 185 235q0 119 -43.5 174.5
t-125.5 55.5h-66v-465h50z" />
    <glyph glyph-name="uni018B" unicode="&#x18b;" horiz-adv-x="603" 
d="M302 0q-134 0 -199 57t-65 162q0 64 29.5 113.5t89.5 78.5t151 29h54v149h-270v125h432v-714h-222zM313 124h49v192h-45q-52 0 -84 -18.5t-32 -75.5q0 -55 29 -76.5t83 -21.5z" />
    <glyph glyph-name="uni018C" unicode="&#x18c;" horiz-adv-x="603" 
d="M228 -10q-82 0 -135.5 71.5t-53.5 210.5q0 132 54.5 203t139.5 71q56 0 90.5 -23t53.5 -57h5q-6 30 -9 53.5t-3 55.5v73h-281v112h443v-760h-125l-31 71h-6q-19 -34 -52.5 -57.5t-89.5 -23.5zM289 109q50 0 71.5 36.5t21.5 109.5v16q0 74 -20.5 114t-75.5 40
q-38 0 -61 -40t-23 -115q0 -80 23.5 -120.5t63.5 -40.5z" />
    <glyph glyph-name="uni018D" unicode="&#x18d;" horiz-adv-x="590" 
d="M264 -219q-63 0 -116 14.5t-105 39.5l61 105q45 -22 85.5 -35.5t76.5 -13.5q33 0 47 14.5t14 34.5q0 26 -28 51.5t-95 60.5q-86 46 -124.5 106t-38.5 138q0 134 70.5 197t186.5 63q72 0 129 -26t89.5 -76.5t32.5 -121.5q0 -104 -45.5 -157.5t-127.5 -76.5
q46 -29 75 -70.5t29 -96.5q0 -73 -56 -111.5t-160 -38.5zM287 159q21 7 44 26.5t39 53.5t16 87q0 47 -23.5 78.5t-66.5 31.5q-44 0 -68 -33.5t-24 -96.5q0 -52 23 -87.5t60 -59.5z" />
    <glyph glyph-name="uni018E" unicode="&#x18e;" horiz-adv-x="528" 
d="M446 714v-714h-391v125h228v184h-211v124h211v157h-228v124h391z" />
    <glyph glyph-name="uni018F" unicode="&#x18f;" horiz-adv-x="756" 
d="M360 599q-51 0 -99 -13.5t-89 -32t-73 -33.5v131q44 26 112.5 50t160.5 24q100 0 175 -46t117 -129t42 -194q0 -113 -39 -195t-112.5 -126.5t-175.5 -44.5q-110 0 -181 47.5t-105 133.5t-34 201v35h476q-4 90 -45.5 141t-129.5 51zM381 116q63 0 105.5 43t47.5 122h-307
q2 -78 38.5 -121.5t115.5 -43.5z" />
    <glyph glyph-name="uni0190" unicode="&#x190;" horiz-adv-x="604" 
d="M311 724q84 0 144 -20.5t113 -57.5l-69 -101q-36 26 -79 42t-93 16q-55 0 -81.5 -21.5t-26.5 -58.5q0 -28 17 -49t58.5 -32.5t115.5 -11.5h44v-118h-53q-97 0 -149.5 -23.5t-52.5 -74.5q0 -50 34.5 -77.5t119.5 -27.5q47 0 103.5 12.5t99.5 34.5v-127q-43 -19 -103 -29
t-138 -10q-142 0 -210 58.5t-68 153.5q0 74 50.5 118.5t140.5 52.5v3q-72 11 -119.5 49t-47.5 112q0 85 66 136t184 51z" />
    <glyph glyph-name="uni0191" unicode="&#x191;" horiz-adv-x="632" 
d="M178 -242q-97 0 -141.5 42.5t-44.5 111.5q0 24 5.5 45t12.5 39l122 -35q-4 -14 -6 -24.5t-2 -18.5q0 -23 12.5 -36.5t31.5 -13.5q54 0 54 77v769h368v-124h-207v-156h191v-124h-191v-358q0 -92 -52.5 -143t-152.5 -51z" />
    <glyph glyph-name="florin" unicode="&#x192;" horiz-adv-x="506" 
d="M185 -242q-95 0 -146 46.5t-51 119.5q0 23 5 41.5t12 32.5l122 -36q-7 -20 -7 -41q0 -25 14 -39t36 -14q24 0 38.5 19t14.5 61v486h-73v72l75 40v40q0 70 20 108.5t60 54.5t99 16q41 0 74 -7t61 -16l-37 -109q-15 5 -32.5 9.5t-38.5 4.5q-25 0 -36.5 -19t-11.5 -48v-34
h116v-112h-116v-486q0 -65 -25.5 -107.5t-70.5 -62.5t-102 -20z" />
    <glyph glyph-name="uni0193" unicode="&#x193;" horiz-adv-x="681" 
d="M635 879q23 0 42 -5t27 -10v-114q-8 3 -22 6.5t-30 3.5q-21 0 -32.5 -13t-11.5 -43v-33l-55 -112q-28 17 -66.5 28t-80.5 11q-55 0 -96.5 -30t-64.5 -84.5t-23 -128.5q0 -70 14.5 -124t47.5 -84.5t87 -30.5q26 0 43 3t32 7v149h-110v126h270v-370q-54 -19 -112 -30
t-132 -11q-148 0 -228 94t-80 274q0 112 41 194t119.5 127t191.5 45q38 0 72 -9v9q0 54 21.5 88t57.5 50.5t78 16.5z" />
    <glyph glyph-name="uni0194" unicode="&#x194;" horiz-adv-x="621" 
d="M307 -240q-71 0 -109 40t-38 104q0 50 20 103.5t47 117.5l-227 589h170l104 -311q5 -15 11 -40t12 -52t10 -47q8 31 18.5 71t21.5 67l111 312h170l-243 -591q29 -63 50 -119.5t21 -100.5q0 -61 -39 -102t-110 -41zM308 -151q29 0 29 54q0 21 -7 54.5t-22 67.5
q-15 -33 -22 -66.5t-7 -53.5q0 -56 29 -56z" />
    <glyph glyph-name="uni0195" unicode="&#x195;" horiz-adv-x="944" 
d="M634 -10q-125 0 -183 52.5t-58 173.5v103q0 118 -69 118q-52 0 -72 -46.5t-20 -133.5v-257h-161v760h161v-154q0 -32 -2 -65t-5 -65h8q24 41 60 60.5t81 19.5q79 0 130 -49t51 -156v-113q0 -66 19 -97t59 -31q43 0 62 33t19 109v294h162v-307q0 -249 -242 -249z" />
    <glyph glyph-name="uni0196" unicode="&#x196;" horiz-adv-x="397" 
d="M258 -10q-50 0 -90.5 17.5t-64.5 58.5t-24 111v537h171v-524q0 -35 16 -54t40 -19q25 0 43.5 5t39.5 12v-119q-23 -10 -57 -17.5t-74 -7.5z" />
    <glyph glyph-name="uni0197" unicode="&#x197;" horiz-adv-x="384" 
d="M359 714v-86l-85 -40v-169h87v-124h-87v-169l85 -40v-86h-333v86l84 40v169h-86v124h86v169l-84 40v86h333z" />
    <glyph glyph-name="uni0198" unicode="&#x198;" horiz-adv-x="641" 
d="M547 725q27 0 47 -5t31 -10v-119q-8 3 -20 6t-27 3q-41 0 -67 -43l-96 -159l226 -398h-185l-157 301l-54 -46v-255h-163v714h163v-329q14 23 28.5 49t27.5 48l57 99q37 64 81.5 104t107.5 40z" />
    <glyph glyph-name="uni0199" unicode="&#x199;" horiz-adv-x="611" 
d="M248 767q25 0 46.5 -5t31.5 -10v-114q-7 3 -21 6.5t-31 3.5q-19 0 -30.5 -13t-11.5 -43v-172q0 -31 -2.5 -62t-5.5 -61h2q12 21 28.5 42t32.5 41l133 166h180l-205 -237l216 -309h-185l-138 221l-56 -51v-170h-161v595q0 92 49 132t128 40z" />
    <glyph glyph-name="uni019A" unicode="&#x19a;" horiz-adv-x="307" 
d="M73 0v308h-65v112h65v340h160v-340h66v-112h-66v-308h-160z" />
    <glyph glyph-name="uni019B" unicode="&#x19b;" horiz-adv-x="602" 
d="M2 0l220 516l-6 28l-92 -30l-27 82l76 25q-11 12 -27 16t-35 4q-13 0 -26.5 -2t-25.5 -4v123q13 3 39 5.5t43 2.5q68 0 110.5 -26t70.5 -75l85 29l26 -83l-73 -25l123 -372q20 -62 37.5 -80.5t39.5 -18.5q17 0 35 5v-115q-11 -6 -35 -10.5t-50 -4.5q-64 0 -99.5 30
t-51.5 82l-40 133q-10 32 -17 62t-11 52h-4q-7 -26 -14.5 -57t-16.5 -55l-88 -237h-166z" />
    <glyph glyph-name="uni019C" unicode="&#x19c;" horiz-adv-x="984" 
d="M270 -10q-85 0 -138 48.5t-53 155.5v520h163v-477q0 -120 68 -120q53 0 75 43t22 123v431h163v-477q0 -120 67 -120q57 0 77 47.5t20 135.5v414h165v-714h-123l-23 76h-9q-25 -43 -68 -64.5t-90 -21.5q-54 0 -91.5 24t-61.5 66h-8q-25 -43 -65 -66.5t-90 -23.5z" />
    <glyph glyph-name="uni019D" unicode="&#x19d;" horiz-adv-x="783" 
d="M55 -240q-25 0 -43.5 5.5t-28.5 9.5v114q7 -3 21.5 -6.5t30.5 -3.5q20 0 33.5 15t13.5 45v775h209l268 -535h3q-1 28 -3 64.5t-3 72.5t-1 60v338h146v-714h-210l-269 540h-4l1 -21t3 -53.5t3.5 -67.5t1.5 -62v-400q0 -92 -47.5 -134t-124.5 -42z" />
    <glyph glyph-name="uni019E" unicode="&#x19e;" horiz-adv-x="624" 
d="M376 556q80 0 131.5 -47.5t51.5 -152.5v-596h-160v559q0 59 -17.5 88.5t-55.5 29.5q-58 0 -78 -46.5t-20 -133.5v-257h-160v546h121l21 -70h9q25 42 67 61t90 19z" />
    <glyph glyph-name="uni019F" unicode="&#x19f;" horiz-adv-x="749" 
d="M697 358q0 -111 -34 -193.5t-105 -128.5t-184 -46q-111 0 -182.5 46t-106 129t-34.5 194t34.5 193t106.5 127.5t183 45.5q112 0 183 -45.5t105 -128t34 -193.5zM375 599q-73 0 -111 -45t-49 -125h317q-10 80 -47.5 125t-109.5 45zM374 117q77 0 115 49t45 137h-321
q8 -88 47 -137t114 -49z" />
    <glyph glyph-name="Ohorn" unicode="&#x1a0;" horiz-adv-x="784" 
d="M697 358q0 -111 -34 -193.5t-105 -128.5t-184 -46q-111 0 -182.5 46t-106 129t-34.5 194t35 193t107 127.5t183 45.5q83 0 144 -26t100 -73q17 15 26.5 50.5t9.5 83.5h155l6 -11q-17 -82 -50.5 -132.5t-92.5 -76.5q12 -39 17.5 -84.5t5.5 -97.5zM221 358
q0 -112 36 -176.5t117 -64.5q83 0 118 64.5t35 176.5q0 113 -35 177t-117 64t-118 -64t-36 -177z" />
    <glyph glyph-name="ohorn" unicode="&#x1a1;" horiz-adv-x="658" 
d="M549 274q0 -136 -68 -210t-187 -74q-73 0 -130.5 33t-90 96.5t-32.5 154.5q0 136 68.5 209t187.5 73q52 0 99 -17t81 -50q30 12 44 49.5t14 89.5h155l7 -11q-9 -48 -25 -89.5t-49.5 -71.5t-93.5 -46q20 -60 20 -136zM204 274q0 -81 21.5 -122.5t70.5 -41.5q48 0 69 41.5
t21 122.5t-21 121.5t-70 40.5t-70 -40.5t-21 -121.5z" />
    <glyph glyph-name="uni01A2" unicode="&#x1a2;" horiz-adv-x="1078" 
d="M685 358q0 -112 -33.5 -194.5t-103 -128t-179.5 -45.5q-109 0 -178.5 45.5t-103 128.5t-33.5 195q0 111 33.5 193t103.5 127.5t179 45.5q76 0 133 -23.5t95 -66.5q35 39 83 64.5t115 25.5q59 0 105 -24.5t72.5 -76.5t26.5 -134v-490h-164v478q0 121 -86 121
q-38 0 -60 -13t-36 -31q16 -41 23.5 -91t7.5 -106zM225 358q0 -112 34 -176.5t110 -64.5q78 0 111.5 64.5t33.5 176.5q0 113 -32 177t-112 64q-77 0 -111 -64t-34 -177z" />
    <glyph glyph-name="uni01A3" unicode="&#x1a3;" horiz-adv-x="889" 
d="M526 274q0 -136 -66.5 -210t-178.5 -74q-70 0 -124.5 32t-86 95.5t-31.5 156.5q0 136 66.5 209t178.5 73q56 0 101 -19t78 -59q34 41 77 59.5t93 18.5q86 0 138.5 -47.5t52.5 -152.5v-596h-161v559q0 118 -78 118q-26 0 -44 -9t-31 -26q8 -27 12 -59t4 -69zM203 274
q0 -81 18.5 -122.5t61.5 -41.5q41 0 59.5 41.5t18.5 122.5t-18.5 121.5t-60.5 40.5q-43 0 -61 -40.5t-18 -121.5z" />
    <glyph glyph-name="uni01A4" unicode="&#x1a4;" horiz-adv-x="723" 
d="M207 0v590h-24q-26 0 -38.5 -16.5t-12.5 -39.5q0 -17 3.5 -28.5t6.5 -19.5h-126q-4 8 -8 23.5t-4 34.5q0 46 17 84.5t57.5 62t108.5 23.5h246q131 0 191 -59.5t60 -163.5q0 -47 -12 -89.5t-41.5 -76t-80.5 -52.5t-128 -19h-52v-254h-163zM407 378q50 0 81 25.5t31 82.5
q0 104 -94 104h-55v-212h37z" />
    <glyph glyph-name="uni01A5" unicode="&#x1a5;" horiz-adv-x="603" 
d="M246 765q25 0 46 -5t30 -10v-114q-6 3 -19.5 6.5t-29.5 3.5q-19 0 -30 -13.5t-11 -41.5v-29q0 -19 -2 -41t-4 -46h6q20 34 54 57.5t87 23.5q83 0 137 -71.5t54 -210.5t-54 -211.5t-137 -72.5q-55 0 -87.5 19.5t-51.5 47.5h-7q3 -19 4 -38.5t1 -40.5v-218h-161v833
q0 92 48.5 132t126.5 40zM318 437q-47 0 -66.5 -36t-19.5 -110v-16q0 -79 19.5 -121.5t68.5 -42.5q40 0 59.5 42.5t19.5 122.5q0 161 -81 161z" />
    <glyph glyph-name="uni01A6" unicode="&#x1a6;" horiz-adv-x="634" 
d="M458 -100l-157 274h-56v-174h-163v714h163v-100h40q140 0 207 -53t67 -161q0 -49 -18 -85.5t-45.5 -62t-57.5 -41.5l201 -311h-181zM273 297q68 0 94.5 25t26.5 74q0 51 -28.5 72.5t-92.5 21.5h-28v-193h28z" />
    <glyph glyph-name="uni01A7" unicode="&#x1a7;" horiz-adv-x="520" 
d="M267 724q101 0 158 -50.5t57 -146.5q0 -65 -25 -106t-63 -66.5t-77 -44.5q-53 -25 -86.5 -50.5t-33.5 -66.5q0 -37 19 -57.5t62 -20.5q49 0 98.5 12.5t101.5 33.5v-126q-43 -21 -97 -33t-113 -12q-120 0 -175 54t-55 149q0 82 40 133t116 85q46 21 74 37t41 35t13 47
q0 32 -17 50t-52 18q-37 0 -74.5 -11t-85.5 -31l-47 118q50 23 105 36.5t116 13.5z" />
    <glyph glyph-name="uni01A8" unicode="&#x1a8;" horiz-adv-x="474" 
d="M242 556q56 0 101 -16t71 -48.5t26 -84.5q0 -46 -14 -77t-44 -53.5t-80 -42.5q-53 -21 -75.5 -35t-27 -25t-4.5 -25q0 -50 68 -50q35 0 77.5 10t86.5 33v-113q-41 -20 -83 -29.5t-92 -9.5q-107 0 -161.5 41.5t-54.5 120.5q0 71 36.5 111t102.5 66q46 18 68.5 30
t29.5 22.5t7 23.5q0 20 -15 30.5t-39 10.5q-33 0 -65.5 -11.5t-72.5 -28.5l-43 107q49 23 98.5 33t98.5 10z" />
    <glyph glyph-name="uni01A9" unicode="&#x1a9;" horiz-adv-x="561" 
d="M35 0v119l210 255l-204 224v116h460v-124h-178q-27 0 -53 1t-53 4l201 -220l-211 -256q32 3 60.5 4.5t62.5 1.5h198v-125h-493z" />
    <glyph glyph-name="uni01AA" unicode="&#x1aa;" horiz-adv-x="405" 
d="M134 770q94 0 132 -48t38 -131v-650q0 -31 15 -46.5t40 -15.5q24 0 47 5t47 12v-111q-23 -10 -57.5 -17.5t-74.5 -7.5q-50 0 -90.5 16t-64 55.5t-23.5 109.5v589h-14q-71 0 -104 34.5t-33 88.5q0 46 35.5 81.5t106.5 35.5zM111 688q-10 0 -18 -10.5t-8 -25.5
q0 -19 12 -32t35 -13h11v31q0 26 -9 38t-23 12z" />
    <glyph glyph-name="uni01AB" unicode="&#x1ab;" horiz-adv-x="429" 
d="M257 -240q-45 0 -79 13v104q9 -4 20 -6.5t23 -2.5q23 0 33 12.5t10 45.5v64h-12q-43 0 -80 16t-60 55.5t-23 109.5v263h-65v63l78 50l44 115h104v-116h143v-112h-143v-263q0 -31 16 -46.5t40 -15.5q23 0 46 5t46 12v-200q0 -86 -35.5 -126t-105.5 -40z" />
    <glyph glyph-name="uni01AC" unicode="&#x1ac;" horiz-adv-x="601" 
d="M241 0v588h-58q-26 0 -38.5 -16.5t-12.5 -39.5q0 -16 3.5 -27t6.5 -19h-126q-4 8 -8 23.5t-4 34.5q0 46 17 84.5t57.5 62t108.5 23.5h392v-126h-174v-588h-164z" />
    <glyph glyph-name="uni01AD" unicode="&#x1ad;" horiz-adv-x="429" 
d="M280 765q29 0 54 -5.5t38 -10.5v-114q-10 4 -30.5 7.5t-41.5 3.5q-50 0 -50 -56v-44h143v-112h-143v-263q0 -31 16 -46.5t40 -15.5q23 0 46 5t46 12v-111q-24 -10 -60.5 -17.5t-80.5 -7.5q-46 0 -84.5 16t-61 55.5t-22.5 109.5v263h-65v63l65 43v53q0 92 52 132t139 40z
" />
    <glyph glyph-name="uni01AE" unicode="&#x1ae;" horiz-adv-x="556" 
d="M374 -240q-83 0 -130.5 41t-47.5 135v652h-174v126h512v-126h-175v-649q0 -31 14 -45.5t34 -14.5q17 0 31 3.5t21 6.5v-114q-12 -5 -36 -10t-49 -5z" />
    <glyph glyph-name="Uhorn" unicode="&#x1af;" horiz-adv-x="839" 
d="M637 622q33 13 48 49.5t15 88.5h155l7 -11q-11 -54 -32 -99t-66 -75.5t-127 -42.5v-280q0 -74 -32 -133.5t-96 -94t-159 -34.5q-135 0 -205.5 72.5t-70.5 191.5v460h162v-449q0 -79 30 -113.5t89 -34.5q62 0 91 37.5t29 111.5v448h162v-92z" />
    <glyph glyph-name="uhorn" unicode="&#x1b0;" horiz-adv-x="738" 
d="M777 617q-11 -54 -32 -99.5t-64.5 -76t-124.5 -42.5v-399h-121l-21 70h-10q-25 -42 -67.5 -61t-89.5 -19q-79 0 -130 47.5t-51 152.5v356h160v-319q0 -58 17 -88t55 -30q58 0 78 46.5t20 133.5v257h160v-57q30 12 44 49.5t14 89.5h156z" />
    <glyph glyph-name="uni01B1" unicode="&#x1b1;" horiz-adv-x="742" 
d="M371 116q72 0 113.5 52t41.5 152q0 86 -21.5 152t-86.5 106v136h301v-127h-166q65 -43 103.5 -120.5t38.5 -178.5q0 -90 -39.5 -157t-112 -104t-172.5 -37q-99 0 -171.5 37t-112.5 104t-40 158q0 101 40.5 178t104.5 120h-169v127h303v-136q-65 -39 -87.5 -106
t-22.5 -153q0 -100 41.5 -151.5t113.5 -51.5z" />
    <glyph glyph-name="uni01B2" unicode="&#x1b2;" horiz-adv-x="711" 
d="M353 -10q-136 0 -207.5 72.5t-71.5 191.5v460h162v-437q0 -88 30.5 -124t89.5 -36q63 0 91 39t28 122v259q0 35 -14 48.5t-35 13.5q-39 0 -68 -17v117q21 10 53 17.5t68 7.5q77 0 117.5 -40.5t40.5 -118.5v-313q0 -74 -31.5 -133.5t-94.5 -94t-158 -34.5z" />
    <glyph glyph-name="uni01B3" unicode="&#x1b3;" horiz-adv-x="624" 
d="M222 0v273l-222 441h176l127 -294l70 164q28 65 69.5 102.5t105.5 37.5q23 0 41 -3t30 -8v-120q-7 2 -15.5 4t-16.5 2q-16 0 -28.5 -6.5t-26.5 -27.5t-36 -66l-113 -221v-278h-161z" />
    <glyph glyph-name="uni01B4" unicode="&#x1b4;" horiz-adv-x="603" 
d="M512 556q21 0 46.5 -4.5t38.5 -10.5v-115q-9 2 -17 3.5t-16 1.5q-15 0 -28.5 -7t-26 -28.5t-26.5 -63.5l-129 -397q-27 -83 -86.5 -129t-147.5 -46q-18 0 -38 2.5t-32 5.5v118q8 -2 24.5 -4t28.5 -2q40 0 68.5 25t40.5 71l7 28l-208 542h177l72 -253q8 -26 14.5 -59.5
t10.5 -66.5h3q4 23 11 54.5t17 65.5l44 147q10 33 28 60.5t48.5 44.5t75.5 17z" />
    <glyph glyph-name="uni01B5" unicode="&#x1b5;" horiz-adv-x="545" 
d="M57 415h169l99 174h-300v125h492v-98l-118 -201h75v-124h-170l-92 -166h314v-125h-507v98l114 193h-76v124z" />
    <glyph glyph-name="uni01B6" unicode="&#x1b6;" horiz-adv-x="468" 
d="M432 546v-97l-77 -122h69v-97h-145l-65 -116h228v-114h-418v88l88 142h-68v97h145l62 105h-214v114h395z" />
    <glyph glyph-name="uni01B7" unicode="&#x1b7;" horiz-adv-x="576" 
d="M501 714v-97l-191 -201q110 -5 168 -59.5t58 -148.5q0 -62 -31.5 -111.5t-96.5 -78t-167 -28.5q-121 0 -211 39v128q47 -23 102 -35t98 -12q83 0 112.5 30t29.5 77q0 30 -16.5 51.5t-57 33t-112.5 11.5h-54v106l153 170h-231v125h447z" />
    <glyph glyph-name="uni01B8" unicode="&#x1b8;" horiz-adv-x="561" 
d="M324 -10q-145 0 -217.5 58.5t-72.5 154.5q0 100 57 152t161 61l-187 201v97h450v-125h-228l147 -170v-106h-52q-71 0 -111.5 -12t-57.5 -34t-17 -52q0 -50 32 -77.5t111 -27.5q44 0 98.5 12t100.5 35v-128q-46 -19 -98.5 -29t-115.5 -10z" />
    <glyph glyph-name="uni01B9" unicode="&#x1b9;" horiz-adv-x="571" 
d="M313 -240q-93 0 -154.5 30.5t-91.5 84.5t-30 125q0 63 21.5 114t69 86t126.5 47l-192 202v97h464v-114h-266l172 -187v-106h-54q-71 0 -109.5 -17.5t-53.5 -46.5t-15 -66q0 -36 12.5 -65t42 -46.5t81.5 -17.5q42 0 95 12t99 35v-126q-45 -19 -97.5 -30t-119.5 -11z" />
    <glyph glyph-name="uni01BA" unicode="&#x1ba;" horiz-adv-x="537" 
d="M235 -240q-88 0 -144.5 38.5t-56.5 117.5q0 67 41 110.5t142 51.5q61 5 88 18t27 47q0 32 -30 44t-101 12h-62v100l136 133h-226v114h421v-96l-159 -144q49 -4 91 -22.5t67.5 -53.5t25.5 -90q0 -33 -9 -63.5t-35 -55.5t-74 -42.5t-126 -23.5q-40 -3 -60 -11.5t-20 -28.5
q0 -23 23 -34t62 -11q64 0 114.5 13t84.5 26v-110q-36 -15 -95 -27t-125 -12z" />
    <glyph glyph-name="uni01BB" unicode="&#x1bb;" horiz-adv-x="535" 
d="M250 765q69 0 118.5 -27t76.5 -73t27 -105q0 -40 -7 -74.5t-24 -66.5h59v-97h-132l-160 -201v-7h291v-114h-480v111l168 211h-157v97h243q24 32 30.5 64.5t6.5 68.5q0 42 -22 68t-57 26q-41 0 -72 -21t-60 -53l-79 91q20 21 50 44.5t74.5 40.5t105.5 17z" />
    <glyph glyph-name="uni01BC" unicode="&#x1bc;" horiz-adv-x="559" 
d="M226 -10q-61 0 -114 10t-85 29v130q22 -13 53.5 -23.5t67.5 -16.5t68 -6q63 0 102.5 25t39.5 83q0 56 -31.5 82.5t-96.5 26.5h-114v258h-93v126h481v-126h-236v-132h19q71 0 124 -27t82.5 -77t29.5 -121q0 -112 -71 -176.5t-226 -64.5z" />
    <glyph glyph-name="uni01BD" unicode="&#x1bd;" horiz-adv-x="546" 
d="M228 -10q-56 0 -107.5 9t-80.5 25v123q20 -11 51 -21t67.5 -15.5t71.5 -5.5q61 0 91 15.5t30 49.5t-32 48.5t-88 14.5h-105v201h-85v112h447v-112h-216v-97h24q98 0 154.5 -37.5t56.5 -127.5q0 -83 -66.5 -132.5t-212.5 -49.5z" />
    <glyph glyph-name="uni01BE" unicode="&#x1be;" horiz-adv-x="477" 
d="M217 -10q-48 0 -101 9t-85 25v123q20 -11 50 -22.5t63 -18.5t63 -7q43 0 61 13.5t18 40.5t-16 39.5t-44 28.5q-33 19 -56.5 38.5t-36.5 50.5t-13 84v40h-93v63l95 50l45 115h103v-116h126v-112h-126v-35q0 -28 10.5 -41t38.5 -30q34 -20 62 -40t45 -50t17 -81
q0 -46 -22 -84t-71.5 -60.5t-132.5 -22.5z" />
    <glyph glyph-name="uni01BF" unicode="&#x1bf;" horiz-adv-x="603" 
d="M374 556q58 0 101 -31.5t67 -88t24 -132.5q0 -78 -34 -146t-107.5 -115t-192.5 -62v-221h-161v786h131l22 -71h7q20 33 54 57t89 24zM319 437q-46 0 -66.5 -37.5t-20.5 -111.5v-180q76 12 123 65t47 133q0 56 -20.5 93.5t-62.5 37.5z" />
    <glyph glyph-name="uni01C0" unicode="&#x1c0;" horiz-adv-x="245" 
d="M63 0v760h119v-760h-119z" />
    <glyph glyph-name="uni01C1" unicode="&#x1c1;" horiz-adv-x="512" 
d="M63 0v760h119v-760h-119zM330 0v760h119v-760h-119z" />
    <glyph glyph-name="uni01C2" unicode="&#x1c2;" horiz-adv-x="486" 
d="M302 760v-231h141v-97h-141v-84h141v-97h-141v-251h-119v251h-139v97h139v84h-139v97h139v231h119z" />
    <glyph glyph-name="uni01C3" unicode="&#x1c3;" horiz-adv-x="286" 
d="M202 237h-131l-24 477h179zM47 70q0 46 26 64.5t63 18.5q35 0 61 -18.5t26 -64.5q0 -44 -26 -63.5t-61 -19.5q-37 0 -63 19.5t-26 63.5z" />
    <glyph glyph-name="uni01C4" unicode="&#x1c4;" horiz-adv-x="1243" 
d="M642 364q0 -181 -96.5 -272.5t-263.5 -91.5h-203v714h221q161 0 251.5 -89t90.5 -261zM474 360q0 119 -43 174.5t-126 55.5h-64v-465h50q94 0 138.5 59t44.5 176zM1220 0h-511v98l306 491h-298v125h495v-98l-306 -491h314v-125zM1210 921q-16 -18 -38 -44t-43.5 -53
t-35.5 -50h-172q-13 23 -34.5 50t-43.5 53t-40 44v13h106q25 -16 48.5 -37.5t48.5 -48.5q24 27 49.5 48.5t50.5 37.5h104v-13z" />
    <glyph glyph-name="uni01C5" unicode="&#x1c5;" horiz-adv-x="1161" 
d="M642 364q0 -181 -96.5 -272.5t-263.5 -91.5h-203v714h221q161 0 251.5 -89t90.5 -261zM474 360q0 119 -43 174.5t-126 55.5h-64v-465h50q94 0 138.5 59t44.5 176zM1135 0h-418v88l227 344h-214v114h395v-97l-218 -335h228v-114zM1169 753q-16 -18 -38 -44t-43.5 -53
t-35.5 -50h-172q-13 23 -34.5 50t-43.5 53t-40 44v13h106q25 -16 48.5 -37.5t48.5 -48.5q24 27 49.5 48.5t50.5 37.5h104v-13z" />
    <glyph glyph-name="uni01C6" unicode="&#x1c6;" horiz-adv-x="1068" 
d="M230 -10q-83 0 -136 71.5t-53 210.5q0 140 54 212t140 72q54 0 87.5 -23t54.5 -57h4q-3 16 -6 46.5t-3 62.5v175h160v-760h-121l-33 71h-6q-19 -34 -53 -57.5t-89 -23.5zM291 109q50 0 71.5 36.5t21.5 109.5v16q0 80 -20 122t-75 42q-40 0 -63 -42.5t-23 -122.5
t23.5 -120.5t64.5 -40.5zM1042 0h-418v88l227 344h-214v114h395v-97l-218 -335h228v-114zM1062 753q-16 -18 -38 -44t-43.5 -53t-35.5 -50h-172q-13 23 -34.5 50t-43.5 53t-40 44v13h106q25 -16 48.5 -37.5t48.5 -48.5q24 27 49.5 48.5t50.5 37.5h104v-13z" />
    <glyph glyph-name="uni01C7" unicode="&#x1c7;" horiz-adv-x="860" 
d="M79 0v714h162v-589h265v-125h-427zM556 -210q-29 0 -51 3.5t-38 7.5v126q15 -4 31.5 -7t35.5 -3q29 0 47.5 10t28 38t9.5 80v669h162v-668q0 -92 -28.5 -148.5t-79 -82t-117.5 -25.5z" />
    <glyph glyph-name="uni01C8" unicode="&#x1c8;" horiz-adv-x="835" 
d="M79 0v714h162v-589h265v-125h-427zM602 687q0 42 25 57.5t60 15.5t60.5 -15.5t25.5 -57.5q0 -41 -25.5 -57t-60.5 -16t-60 16t-25 57zM579 -240q-22 0 -49.5 3.5t-44.5 8.5v117q16 -4 30 -6.5t31 -2.5q25 0 43 17t18 66v583h159v-605q0 -50 -18 -91t-59 -65.5t-110 -24.5
z" />
    <glyph glyph-name="uni01C9" unicode="&#x1c9;" horiz-adv-x="592" 
d="M228 0h-160v760h160v-760zM359 687q0 42 25 57.5t60 15.5t60.5 -15.5t25.5 -57.5q0 -41 -25.5 -57t-60.5 -16t-60 16t-25 57zM336 -240q-22 0 -49.5 3.5t-44.5 8.5v117q16 -4 30 -6.5t31 -2.5q25 0 43 17t18 66v583h159v-605q0 -50 -18 -91t-59 -65.5t-110 -24.5z" />
    <glyph glyph-name="uni01CA" unicode="&#x1ca;" horiz-adv-x="1096" 
d="M696 0h-209l-269 540h-4q2 -51 5 -102t4 -102v-336h-144v714h208l268 -535h3q-1 50 -3.5 99t-3.5 98v338h145v-714zM792 -210q-29 0 -51 3.5t-38 7.5v126q15 -4 31.5 -7t35.5 -3q29 0 47.5 10t28 38t9.5 80v669h162v-668q0 -92 -28.5 -148.5t-79 -82t-117.5 -25.5z" />
    <glyph glyph-name="uni01CB" unicode="&#x1cb;" horiz-adv-x="1071" 
d="M696 0h-209l-269 540h-4q2 -51 5 -102t4 -102v-336h-144v714h208l268 -535h3q-1 50 -3.5 99t-3.5 98v338h145v-714zM838 687q0 42 25 57.5t60 15.5t60.5 -15.5t25.5 -57.5q0 -41 -25.5 -57t-60.5 -16t-60 16t-25 57zM815 -240q-22 0 -49.5 3.5t-44.5 8.5v117
q16 -4 30 -6.5t31 -2.5q25 0 43 17t18 66v583h159v-605q0 -50 -18 -91t-59 -65.5t-110 -24.5z" />
    <glyph glyph-name="uni01CC" unicode="&#x1cc;" horiz-adv-x="920" 
d="M376 556q82 0 132.5 -47.5t50.5 -152.5v-356h-160v319q0 59 -17.5 88.5t-55.5 29.5q-58 0 -78 -46.5t-20 -133.5v-257h-160v546h121l22 -70h7q25 42 66 61t92 19zM687 687q0 42 25 57.5t60 15.5t60.5 -15.5t25.5 -57.5q0 -41 -25.5 -57t-60.5 -16t-60 16t-25 57z
M664 -240q-22 0 -49.5 3.5t-44.5 8.5v117q16 -4 30 -6.5t31 -2.5q25 0 43 17t18 66v583h159v-605q0 -50 -18 -91t-59 -65.5t-110 -24.5z" />
    <glyph glyph-name="uni01CD" unicode="&#x1cd;" horiz-adv-x="665" 
d="M490 0l-41 170h-231l-42 -170h-176l228 717h208l229 -717h-175zM367 463q-9 32 -18 67.5t-16 75.5q-7 -40 -16 -76.5t-17 -66.5l-46 -166h160zM530 921q-16 -18 -38 -44t-43.5 -53t-35.5 -50h-172q-13 23 -34.5 50t-43.5 53t-40 44v13h106q25 -16 48.5 -37.5t48.5 -48.5
q24 27 49.5 48.5t50.5 37.5h104v-13z" />
    <glyph glyph-name="uni01CE" unicode="&#x1ce;" horiz-adv-x="577" 
d="M300 557q101 0 156.5 -47.5t55.5 -145.5v-364h-111l-31 74h-4q-33 -44 -69.5 -64t-101.5 -20q-67 0 -112.5 42.5t-45.5 130.5q0 87 57.5 128.5t169.5 45.5l88 3v24q0 43 -19 63t-52 20q-34 0 -71 -11.5t-74 -28.5l-49 101q44 23 97.5 36t115.5 13zM305 251
q-58 -2 -81.5 -26t-23.5 -63q0 -34 16.5 -48.5t43.5 -14.5q38 0 65.5 28.5t27.5 80.5v45zM487 753q-16 -18 -38 -44t-43.5 -53t-35.5 -50h-172q-13 23 -34.5 50t-43.5 53t-40 44v13h106q25 -16 48.5 -37.5t48.5 -48.5q24 27 49.5 48.5t50.5 37.5h104v-13z" />
    <glyph glyph-name="uni01CF" unicode="&#x1cf;" horiz-adv-x="389" 
d="M358 0h-327v86l83 40v462l-83 40v86h327v-86l-82 -40v-462l82 -40v-86zM380 921q-16 -18 -38 -44t-43.5 -53t-35.5 -50h-172q-13 23 -34.5 50t-43.5 53t-40 44v13h106q25 -16 48.5 -37.5t48.5 -48.5q24 27 49.5 48.5t50.5 37.5h104v-13z" />
    <glyph glyph-name="uni01D0" unicode="&#x1d0;" horiz-adv-x="296" 
d="M228 0h-160v546h160v-546zM338 753q-16 -18 -38 -44t-43.5 -53t-35.5 -50h-172q-13 23 -34.5 50t-43.5 53t-40 44v13h106q25 -16 48.5 -37.5t48.5 -48.5q24 27 49.5 48.5t50.5 37.5h104v-13z" />
    <glyph glyph-name="uni01D1" unicode="&#x1d1;" horiz-adv-x="749" 
d="M697 358q0 -111 -34 -193.5t-105 -128.5t-184 -46q-111 0 -182.5 46t-106 129t-34.5 194t34.5 193t106.5 127.5t183 45.5q112 0 183 -45.5t105 -128t34 -193.5zM221 358q0 -112 36 -176.5t117 -64.5q83 0 118 64.5t35 176.5q0 113 -35 177t-117 64t-118 -64t-36 -177z
M583 921q-16 -18 -38 -44t-43.5 -53t-35.5 -50h-172q-13 23 -34.5 50t-43.5 53t-40 44v13h106q25 -16 48.5 -37.5t48.5 -48.5q24 27 49.5 48.5t50.5 37.5h104v-13z" />
    <glyph glyph-name="uni01D2" unicode="&#x1d2;" horiz-adv-x="590" 
d="M549 274q0 -136 -68 -210t-187 -74q-73 0 -130.5 33t-90 96.5t-32.5 154.5q0 136 68.5 209t187.5 73q73 0 130 -33t89.5 -95.5t32.5 -153.5zM204 274q0 -81 21.5 -122.5t70.5 -41.5t69.5 41.5t20.5 122.5t-20.5 121.5t-70.5 40.5q-49 0 -70 -40.5t-21 -121.5zM495 753
q-16 -18 -38 -44t-43.5 -53t-35.5 -50h-172q-13 23 -34.5 50t-43.5 53t-40 44v13h106q25 -16 48.5 -37.5t48.5 -48.5q24 27 49.5 48.5t50.5 37.5h104v-13z" />
    <glyph glyph-name="uni01D3" unicode="&#x1d3;" horiz-adv-x="711" 
d="M637 252q0 -74 -31.5 -133.5t-94.5 -94t-158 -34.5q-136 0 -207.5 72.5t-71.5 191.5v460h162v-437q0 -88 30.5 -124t89.5 -36q63 0 91 39t28 122v436h162v-462zM563 921q-16 -18 -38 -44t-43.5 -53t-35.5 -50h-172q-13 23 -34.5 50t-43.5 53t-40 44v13h106
q25 -16 48.5 -37.5t48.5 -48.5q24 27 49.5 48.5t50.5 37.5h104v-13z" />
    <glyph glyph-name="uni01D4" unicode="&#x1d4;" horiz-adv-x="624" 
d="M556 546v-546h-121l-21 70h-9q-25 -42 -67 -61t-90 -19q-79 0 -130.5 47.5t-51.5 152.5v356h160v-319q0 -58 17 -88t55 -30q58 0 78 46.5t20 133.5v257h160zM514 753q-16 -18 -38 -44t-43.5 -53t-35.5 -50h-172q-13 23 -34.5 50t-43.5 53t-40 44v13h106
q25 -16 48.5 -37.5t48.5 -48.5q24 27 49.5 48.5t50.5 37.5h104v-13z" />
    <glyph glyph-name="uni01D5" unicode="&#x1d5;" horiz-adv-x="711" 
d="M539 1023v-93h-321v93h321zM283 888q29 0 47.5 -15t18.5 -46q0 -29 -18.5 -44.5t-47.5 -15.5q-30 0 -47 15.5t-17 44.5q0 31 17 46t47 15zM471 888q29 0 47.5 -15t18.5 -46q0 -29 -18.5 -44.5t-47.5 -15.5t-46.5 15.5t-17.5 44.5q0 31 17.5 46t46.5 15zM637 252
q0 -74 -31.5 -133.5t-94.5 -94t-158 -34.5q-136 0 -207.5 72.5t-71.5 191.5v460h162v-437q0 -88 30.5 -124t89.5 -36q63 0 91 39t28 122v436h162v-462z" />
    <glyph glyph-name="uni01D6" unicode="&#x1d6;" horiz-adv-x="624" 
d="M490 855v-93h-321v93h321zM234 720q29 0 47.5 -15t18.5 -46q0 -29 -18.5 -44.5t-47.5 -15.5q-30 0 -47 15.5t-17 44.5q0 31 17 46t47 15zM422 720q29 0 47.5 -15t18.5 -46q0 -29 -18.5 -44.5t-47.5 -15.5t-46.5 15.5t-17.5 44.5q0 31 17.5 46t46.5 15zM556 546v-546h-121
l-21 70h-9q-25 -42 -67 -61t-90 -19q-79 0 -130.5 47.5t-51.5 152.5v356h160v-319q0 -58 17 -88t55 -30q58 0 78 46.5t20 133.5v257h160z" />
    <glyph glyph-name="uni01D7" unicode="&#x1d7;" horiz-adv-x="711" 
d="M313 917q24 28 45.5 63t40.5 69h169v-10q-18 -20 -44 -45t-53.5 -49t-50.5 -41h-107v13zM283 767q-30 0 -47 15.5t-17 44.5q0 31 17 46t47 15q29 0 47.5 -15t18.5 -46q0 -29 -18.5 -44.5t-47.5 -15.5zM471 767q-29 0 -46.5 15.5t-17.5 44.5q0 31 17.5 46t46.5 15
t47.5 -15t18.5 -46q0 -29 -18.5 -44.5t-47.5 -15.5zM637 252q0 -74 -31.5 -133.5t-94.5 -94t-158 -34.5q-136 0 -207.5 72.5t-71.5 191.5v460h162v-437q0 -88 30.5 -124t89.5 -36q63 0 91 39t28 122v436h162v-462z" />
    <glyph glyph-name="uni01D8" unicode="&#x1d8;" horiz-adv-x="624" 
d="M264 749q24 28 45.5 63t40.5 69h169v-10q-18 -20 -44 -45t-53.5 -49t-50.5 -41h-107v13zM234 599q-30 0 -47 15.5t-17 44.5q0 31 17 46t47 15q29 0 47.5 -15t18.5 -46q0 -29 -18.5 -44.5t-47.5 -15.5zM422 599q-29 0 -46.5 15.5t-17.5 44.5q0 31 17.5 46t46.5 15
t47.5 -15t18.5 -46q0 -29 -18.5 -44.5t-47.5 -15.5zM556 546v-546h-121l-21 70h-9q-25 -42 -67 -61t-90 -19q-79 0 -130.5 47.5t-51.5 152.5v356h160v-319q0 -58 17 -88t55 -30q58 0 78 46.5t20 133.5v257h160z" />
    <glyph glyph-name="uni01D9" unicode="&#x1d9;" horiz-adv-x="711" 
d="M308 910q-22 34 -49.5 66.5t-55.5 60.5v13h67q30 -15 57 -33t51 -41q25 23 52.5 41t55.5 33h67v-13q-25 -27 -53.5 -60t-51.5 -67h-140zM283 767q-30 0 -47 15.5t-17 44.5q0 31 17 46t47 15q29 0 47.5 -15t18.5 -46q0 -29 -18.5 -44.5t-47.5 -15.5zM471 767
q-29 0 -46.5 15.5t-17.5 44.5q0 31 17.5 46t46.5 15t47.5 -15t18.5 -46q0 -29 -18.5 -44.5t-47.5 -15.5zM637 252q0 -74 -31.5 -133.5t-94.5 -94t-158 -34.5q-136 0 -207.5 72.5t-71.5 191.5v460h162v-437q0 -88 30.5 -124t89.5 -36q63 0 91 39t28 122v436h162v-462z" />
    <glyph glyph-name="uni01DA" unicode="&#x1da;" horiz-adv-x="624" 
d="M259 742q-22 34 -49.5 66.5t-55.5 60.5v13h67q30 -15 57 -33t51 -41q25 23 52.5 41t55.5 33h67v-13q-25 -27 -53.5 -60t-51.5 -67h-140zM234 599q-30 0 -47 15.5t-17 44.5q0 31 17 46t47 15q29 0 47.5 -15t18.5 -46q0 -29 -18.5 -44.5t-47.5 -15.5zM422 599
q-29 0 -46.5 15.5t-17.5 44.5q0 31 17.5 46t46.5 15t47.5 -15t18.5 -46q0 -29 -18.5 -44.5t-47.5 -15.5zM556 546v-546h-121l-21 70h-9q-25 -42 -67 -61t-90 -19q-79 0 -130.5 47.5t-51.5 152.5v356h160v-319q0 -58 17 -88t55 -30q58 0 78 46.5t20 133.5v257h160z" />
    <glyph glyph-name="uni01DB" unicode="&#x1db;" horiz-adv-x="711" 
d="M358 1049q18 -34 39.5 -69t45.5 -63v-13h-107q-23 17 -50.5 41t-53.5 49t-44 45v10h170zM284 888q29 0 47 -15t18 -46q0 -29 -18 -44.5t-47 -15.5q-30 0 -47.5 15.5t-17.5 44.5q0 31 17.5 46t47.5 15zM472 888q29 0 47 -15t18 -46q0 -29 -18 -44.5t-47 -15.5
q-30 0 -47 15.5t-17 44.5q0 31 17 46t47 15zM637 252q0 -74 -31.5 -133.5t-94.5 -94t-158 -34.5q-136 0 -207.5 72.5t-71.5 191.5v460h162v-437q0 -88 30.5 -124t89.5 -36q63 0 91 39t28 122v436h162v-462z" />
    <glyph glyph-name="uni01DC" unicode="&#x1dc;" horiz-adv-x="624" 
d="M309 881q18 -34 39.5 -69t45.5 -63v-13h-107q-23 17 -50.5 41t-53.5 49t-44 45v10h170zM235 720q29 0 47 -15t18 -46q0 -29 -18 -44.5t-47 -15.5q-30 0 -47.5 15.5t-17.5 44.5q0 31 17.5 46t47.5 15zM423 720q29 0 47 -15t18 -46q0 -29 -18 -44.5t-47 -15.5
q-30 0 -47 15.5t-17 44.5q0 31 17 46t47 15zM556 546v-546h-121l-21 70h-9q-25 -42 -67 -61t-90 -19q-79 0 -130.5 47.5t-51.5 152.5v356h160v-319q0 -58 17 -88t55 -30q58 0 78 46.5t20 133.5v257h160z" />
    <glyph glyph-name="uni01DD" unicode="&#x1dd;" horiz-adv-x="568" 
d="M259 556q78 0 138.5 -30.5t95 -92t34.5 -156.5q0 -143 -68.5 -215t-180.5 -72q-110 0 -174 64.5t-64 183.5v72h326q-2 63 -33 99t-88 36q-49 0 -89.5 -10.5t-84.5 -32.5v115q38 20 81 29.5t107 9.5zM187 211q1 -49 22.5 -82t64.5 -33q36 0 60 28t28 87h-175z" />
    <glyph glyph-name="uni01DE" unicode="&#x1de;" horiz-adv-x="665" 
d="M506 1023v-93h-321v93h321zM250 888q29 0 47.5 -15t18.5 -46q0 -29 -18.5 -44.5t-47.5 -15.5q-30 0 -47 15.5t-17 44.5q0 31 17 46t47 15zM438 888q29 0 47.5 -15t18.5 -46q0 -29 -18.5 -44.5t-47.5 -15.5t-46.5 15.5t-17.5 44.5q0 31 17.5 46t46.5 15zM490 0l-41 170
h-231l-42 -170h-176l228 717h208l229 -717h-175zM367 463q-9 32 -18 67.5t-16 75.5q-7 -40 -16 -76.5t-17 -66.5l-46 -166h160z" />
    <glyph glyph-name="uni01DF" unicode="&#x1df;" horiz-adv-x="577" 
d="M463 855v-93h-321v93h321zM207 720q29 0 47.5 -15t18.5 -46q0 -29 -18.5 -44.5t-47.5 -15.5q-30 0 -47 15.5t-17 44.5q0 31 17 46t47 15zM395 720q29 0 47.5 -15t18.5 -46q0 -29 -18.5 -44.5t-47.5 -15.5t-46.5 15.5t-17.5 44.5q0 31 17.5 46t46.5 15zM300 557
q101 0 156.5 -47.5t55.5 -145.5v-364h-111l-31 74h-4q-33 -44 -69.5 -64t-101.5 -20q-67 0 -112.5 42.5t-45.5 130.5q0 87 57.5 128.5t169.5 45.5l88 3v24q0 43 -19 63t-52 20q-34 0 -71 -11.5t-74 -28.5l-49 101q44 23 97.5 36t115.5 13zM305 251q-58 -2 -81.5 -26
t-23.5 -63q0 -34 16.5 -48.5t43.5 -14.5q38 0 65.5 28.5t27.5 80.5v45z" />
    <glyph glyph-name="uni01E0" unicode="&#x1e0;" horiz-adv-x="665" 
d="M185 927v93h321v-93h-321zM345 885q29 0 47 -15t18 -46q0 -29 -18 -44.5t-47 -15.5q-30 0 -47.5 15.5t-17.5 44.5q0 31 17.5 46t47.5 15zM490 0l-41 170h-231l-42 -170h-176l228 717h208l229 -717h-175zM367 463q-9 32 -18 67.5t-16 75.5q-7 -40 -16 -76.5t-17 -66.5
l-46 -166h160z" />
    <glyph glyph-name="uni01E1" unicode="&#x1e1;" horiz-adv-x="577" 
d="M463 855v-93h-321v93h321zM302 720q29 0 47 -15t18 -46q0 -29 -18 -44.5t-47 -15.5q-30 0 -47.5 15.5t-17.5 44.5q0 31 17.5 46t47.5 15zM300 557q101 0 156.5 -47.5t55.5 -145.5v-364h-111l-31 74h-4q-33 -44 -69.5 -64t-101.5 -20q-67 0 -112.5 42.5t-45.5 130.5
q0 87 57.5 128.5t169.5 45.5l88 3v24q0 43 -19 63t-52 20q-34 0 -71 -11.5t-74 -28.5l-49 101q44 23 97.5 36t115.5 13zM305 251q-58 -2 -81.5 -26t-23.5 -63q0 -34 16.5 -48.5t43.5 -14.5q38 0 65.5 28.5t27.5 80.5v45z" />
    <glyph glyph-name="uni01E2" unicode="&#x1e2;" horiz-adv-x="892" 
d="M842 0h-400v170h-213l-57 -170h-174l295 714h549v-124h-238v-157h222v-124h-222v-184h238v-125zM283 297h159v288h-54zM676 877v-103h-322v103h322z" />
    <glyph glyph-name="uni01E3" unicode="&#x1e3;" horiz-adv-x="871" 
d="M608 556q66 0 116 -29t78.5 -84t28.5 -135v-72h-326q2 -63 34 -99t90 -36q84 0 171 43v-115q-38 -20 -80.5 -29.5t-106.5 -9.5q-61 0 -112.5 25t-85.5 76q-30 -35 -58 -57.5t-64.5 -33t-91.5 -10.5q-43 0 -80.5 18.5t-60.5 57t-23 97.5q0 87 59.5 128.5t165.5 45.5l86 3
v41q0 34 -19.5 50t-49.5 16q-34 0 -70.5 -10.5t-71.5 -27.5l-48 99q42 23 94 36t107 13q97 0 155 -64q32 32 70.5 47.5t92.5 15.5zM602 450q-40 0 -65 -28t-29 -87h177q-1 50 -22 82.5t-61 32.5zM303 251q-58 -2 -80.5 -26t-22.5 -63q0 -34 16.5 -48.5t41.5 -14.5
q38 0 64 28.5t26 80.5v45zM606 709v-103h-322v103h322z" />
    <glyph glyph-name="uni01E4" unicode="&#x1e4;" horiz-adv-x="681" 
d="M367 -10q-144 0 -228.5 94t-84.5 274q0 112 41 194t119.5 127t191.5 45q53 0 105.5 -12t94.5 -32l-51 -121q-28 17 -70 28t-84 11q-85 0 -132 -66.5t-47 -176.5q0 -121 38.5 -185t117.5 -64q20 0 36 3t32 7v44h-105v97h105v48h-110v116h270v-164h61v-97h-61v-129
q-50 -19 -107.5 -30t-131.5 -11z" />
    <glyph glyph-name="uni01E5" unicode="&#x1e5;" horiz-adv-x="603" 
d="M237 556q89 0 142 -80h4l12 70h137v-560h52v-77h-63q-23 -74 -85.5 -111.5t-168.5 -37.5q-54 0 -102.5 7t-95.5 25v114q49 -21 96.5 -31.5t99.5 -10.5q32 0 56.5 11t33.5 34h-131v77h146v50q0 17 1 36.5t3 35.5h-4q-25 -43 -60.5 -62t-79.5 -19q-90 0 -140.5 66
t-50.5 193q0 128 53.5 199t144.5 71zM289 435q-42 0 -64 -36t-22 -113q0 -76 22.5 -111.5t66.5 -35.5t67 28t23 103v12q0 82 -23 117.5t-70 35.5z" />
    <glyph glyph-name="uni01E6" unicode="&#x1e6;" horiz-adv-x="688" 
d="M341 401h277v-370q-52 -19 -114 -30t-135 -11q-148 0 -233 94t-85 274q0 112 40.5 194t119 127t192.5 45q58 0 112 -12t96 -32l-52 -121q-34 17 -73 28t-83 11q-92 0 -138.5 -66.5t-46.5 -176.5q0 -70 17.5 -124t54 -84.5t91.5 -30.5q23 0 45 3t38 7v149h-123v126z
M585 921q-16 -18 -38 -44t-43.5 -53t-35.5 -50h-172q-13 23 -34.5 50t-43.5 53t-40 44v13h106q25 -16 48.5 -37.5t48.5 -48.5q24 27 49.5 48.5t50.5 37.5h104v-13z" />
    <glyph glyph-name="uni01E7" unicode="&#x1e7;" horiz-adv-x="600" 
d="M234 556q51 0 86.5 -20t58.5 -60h4l12 70h137v-547q0 -117 -66.5 -178t-200.5 -61q-58 0 -105.5 7t-91.5 25v119q47 -21 93 -31.5t103 -10.5q108 0 108 124v11q0 35 5 67h-5q-22 -43 -56.5 -62t-84.5 -19q-87 0 -138.5 74.5t-51.5 207.5q0 134 52.5 209t140.5 75z
M290 435q-86 0 -86 -165q0 -163 88 -163q49 0 70.5 32.5t21.5 113.5v18q0 88 -20.5 126t-73.5 38zM499 753q-16 -18 -38 -44t-43.5 -53t-35.5 -50h-172q-13 23 -34.5 50t-43.5 53t-40 44v13h106q25 -16 48.5 -37.5t48.5 -48.5q24 27 49.5 48.5t50.5 37.5h104v-13z" />
    <glyph glyph-name="uni01E8" unicode="&#x1e8;" horiz-adv-x="635" 
d="M635 0h-183l-154 301l-57 -46v-255h-162v714h162v-327q13 21 27.5 42t28.5 42l161 243h178l-222 -316zM535 921q-16 -18 -38 -44t-43.5 -53t-35.5 -50h-172q-13 23 -34.5 50t-43.5 53t-40 44v13h106q25 -16 48.5 -37.5t48.5 -48.5q24 27 49.5 48.5t50.5 37.5h104v-13z
" />
    <glyph glyph-name="uni01E9" unicode="&#x1e9;" horiz-adv-x="601" 
d="M228 420q0 -31 -2.5 -61.5t-6.5 -61.5h3q8 21 25 42t33 41l131 166h179l-193 -237l204 -309h-183l-131 221l-59 -51v-170h-160v760h160v-340zM344 967q-16 -18 -38 -44t-43.5 -53t-35.5 -50h-172q-13 23 -34.5 50t-43.5 53t-40 44v13h106q25 -16 48.5 -37.5t48.5 -48.5
q24 27 49.5 48.5t50.5 37.5h104v-13z" />
    <glyph glyph-name="uni01EA" unicode="&#x1ea;" horiz-adv-x="749" 
d="M697 358q0 -111 -34 -193.5t-105 -128.5t-184 -46q-111 0 -182.5 46t-106 129t-34.5 194t34.5 193t106.5 127.5t183 45.5q112 0 183 -45.5t105 -128t34 -193.5zM221 358q0 -112 36 -176.5t117 -64.5q83 0 118 64.5t35 176.5q0 113 -35 177t-117 64t-118 -64t-36 -177z
M405 -111q0 -40 36 -40q14 0 29 3t24 6v-87q-15 -4 -33 -7.5t-42 -3.5q-53 0 -87 31.5t-34 80.5q0 44 26.5 82t78.5 63l66 -17q-31 -32 -47.5 -58.5t-16.5 -52.5z" />
    <glyph glyph-name="uni01EB" unicode="&#x1eb;" horiz-adv-x="590" 
d="M549 274q0 -136 -68 -210t-187 -74q-73 0 -130.5 33t-90 96.5t-32.5 154.5q0 136 68.5 209t187.5 73q73 0 130 -33t89.5 -95.5t32.5 -153.5zM204 274q0 -81 21.5 -122.5t70.5 -41.5t69.5 41.5t20.5 122.5t-20.5 121.5t-70.5 40.5q-49 0 -70 -40.5t-21 -121.5zM306 -111
q0 -40 36 -40q14 0 29 3t24 6v-87q-15 -4 -33 -7.5t-42 -3.5q-53 0 -87 31.5t-34 80.5q0 44 26.5 82t78.5 63l66 -17q-31 -32 -47.5 -58.5t-16.5 -52.5z" />
    <glyph glyph-name="uni01EC" unicode="&#x1ec;" horiz-adv-x="749" 
d="M697 358q0 -111 -34 -193.5t-105 -128.5t-184 -46q-111 0 -182.5 46t-106 129t-34.5 194t34.5 193t106.5 127.5t183 45.5q112 0 183 -45.5t105 -128t34 -193.5zM221 358q0 -112 36 -176.5t117 -64.5q83 0 118 64.5t35 176.5q0 113 -35 177t-117 64t-118 -64t-36 -177z
M538 877v-103h-322v103h322zM405 -111q0 -40 36 -40q14 0 29 3t24 6v-87q-15 -4 -33 -7.5t-42 -3.5q-53 0 -87 31.5t-34 80.5q0 44 26.5 82t78.5 63l66 -17q-31 -32 -47.5 -58.5t-16.5 -52.5z" />
    <glyph glyph-name="uni01ED" unicode="&#x1ed;" horiz-adv-x="590" 
d="M549 274q0 -136 -68 -210t-187 -74q-73 0 -130.5 33t-90 96.5t-32.5 154.5q0 136 68.5 209t187.5 73q73 0 130 -33t89.5 -95.5t32.5 -153.5zM204 274q0 -81 21.5 -122.5t70.5 -41.5t69.5 41.5t20.5 122.5t-20.5 121.5t-70.5 40.5q-49 0 -70 -40.5t-21 -121.5zM450 709
v-103h-322v103h322zM306 -111q0 -40 36 -40q14 0 29 3t24 6v-87q-15 -4 -33 -7.5t-42 -3.5q-53 0 -87 31.5t-34 80.5q0 44 26.5 82t78.5 63l66 -17q-31 -32 -47.5 -58.5t-16.5 -52.5z" />
    <glyph glyph-name="uni01EE" unicode="&#x1ee;" horiz-adv-x="576" 
d="M501 714v-97l-191 -201q110 -5 168 -59.5t58 -148.5q0 -62 -31.5 -111.5t-96.5 -78t-167 -28.5q-121 0 -211 39v128q47 -23 102 -35t98 -12q83 0 112.5 30t29.5 77q0 30 -16.5 51.5t-57 33t-112.5 11.5h-54v106l153 170h-231v125h447zM474 921q-16 -18 -38 -44t-43.5 -53
t-35.5 -50h-172q-13 23 -34.5 50t-43.5 53t-40 44v13h106q25 -16 48.5 -37.5t48.5 -48.5q24 27 49.5 48.5t50.5 37.5h104v-13z" />
    <glyph glyph-name="uni01EF" unicode="&#x1ef;" horiz-adv-x="558" 
d="M503 546v-97l-198 -202q76 -10 124 -44.5t70.5 -86.5t22.5 -115q0 -68 -31 -123t-96 -86.5t-167 -31.5q-64 0 -114.5 10t-95.5 29v128q45 -23 98.5 -35t102.5 -12q53 0 84 18t44 47.5t13 62.5q0 37 -14 66.5t-52 47t-111 17.5h-58v106l176 187h-260v114h462zM471 753
q-16 -18 -38 -44t-43.5 -53t-35.5 -50h-172q-13 23 -34.5 50t-43.5 53t-40 44v13h106q25 -16 48.5 -37.5t48.5 -48.5q24 27 49.5 48.5t50.5 37.5h104v-13z" />
    <glyph glyph-name="uni01F0" unicode="&#x1f0;" horiz-adv-x="296" 
d="M40 -240q-22 0 -49.5 3.5t-44.5 8.5v117q16 -4 30 -6.5t31 -2.5q25 0 43 17t18 66v583h159v-605q0 -50 -18 -91t-59 -65.5t-110 -24.5zM338 753q-16 -18 -38 -44t-43.5 -53t-35.5 -50h-172q-13 23 -34.5 50t-43.5 53t-40 44v13h106q25 -16 48.5 -37.5t48.5 -48.5
q24 27 49.5 48.5t50.5 37.5h104v-13z" />
    <glyph glyph-name="uni01F1" unicode="&#x1f1;" horiz-adv-x="1243" 
d="M642 364q0 -181 -96.5 -272.5t-263.5 -91.5h-203v714h221q161 0 251.5 -89t90.5 -261zM474 360q0 119 -43 174.5t-126 55.5h-64v-465h50q94 0 138.5 59t44.5 176zM1220 0h-511v98l306 491h-298v125h495v-98l-306 -491h314v-125z" />
    <glyph glyph-name="uni01F2" unicode="&#x1f2;" horiz-adv-x="1161" 
d="M642 364q0 -181 -96.5 -272.5t-263.5 -91.5h-203v714h221q161 0 251.5 -89t90.5 -261zM474 360q0 119 -43 174.5t-126 55.5h-64v-465h50q94 0 138.5 59t44.5 176zM1135 0h-418v88l227 344h-214v114h395v-97l-218 -335h228v-114z" />
    <glyph glyph-name="uni01F3" unicode="&#x1f3;" horiz-adv-x="1068" 
d="M230 -10q-83 0 -136 71.5t-53 210.5q0 140 54 212t140 72q54 0 87.5 -23t54.5 -57h4q-3 16 -6 46.5t-3 62.5v175h160v-760h-121l-33 71h-6q-19 -34 -53 -57.5t-89 -23.5zM291 109q50 0 71.5 36.5t21.5 109.5v16q0 80 -20 122t-75 42q-40 0 -63 -42.5t-23 -122.5
t23.5 -120.5t64.5 -40.5zM1042 0h-418v88l227 344h-214v114h395v-97l-218 -335h228v-114z" />
    <glyph glyph-name="uni01F4" unicode="&#x1f4;" horiz-adv-x="688" 
d="M341 401h277v-370q-52 -19 -114 -30t-135 -11q-148 0 -233 94t-85 274q0 112 40.5 194t119 127t192.5 45q58 0 112 -12t96 -32l-52 -121q-34 17 -73 28t-83 11q-92 0 -138.5 -66.5t-46.5 -176.5q0 -70 17.5 -124t54 -84.5t91.5 -30.5q23 0 45 3t38 7v149h-123v126z
M591 924q-15 -14 -38.5 -34t-50.5 -42t-52 -41.5t-44 -32.5h-106v13q16 19 37 44.5t42.5 53t35.5 49.5h176v-10z" />
    <glyph glyph-name="uni01F5" unicode="&#x1f5;" horiz-adv-x="600" 
d="M234 556q51 0 86.5 -20t58.5 -60h4l12 70h137v-547q0 -117 -66.5 -178t-200.5 -61q-58 0 -105.5 7t-91.5 25v119q47 -21 93 -31.5t103 -10.5q108 0 108 124v11q0 35 5 67h-5q-22 -43 -56.5 -62t-84.5 -19q-87 0 -138.5 74.5t-51.5 207.5q0 134 52.5 209t140.5 75z
M290 435q-86 0 -86 -165q0 -163 88 -163q49 0 70.5 32.5t21.5 113.5v18q0 88 -20.5 126t-73.5 38zM510 756q-15 -14 -38.5 -34t-50.5 -42t-52 -41.5t-44 -32.5h-106v13q16 19 37 44.5t42.5 53t35.5 49.5h176v-10z" />
    <glyph glyph-name="uni01F6" unicode="&#x1f6;" horiz-adv-x="1000" 
d="M82 0v714h163v-280h193v280h164v-480q0 -64 17 -93t60 -29q42 0 60.5 30t18.5 103v301h164v-303q0 -124 -58.5 -188.5t-183.5 -64.5q-128 0 -185 55t-57 175v88h-193v-308h-163z" />
    <glyph glyph-name="uni01F7" unicode="&#x1f7;" horiz-adv-x="654" 
d="M407 725q93 0 147.5 -67.5t54.5 -195.5q0 -96 -39 -185.5t-119.5 -160.5t-205.5 -112v-244h-163v954h124l25 -92h5q15 26 38 49.5t56 38.5t77 15zM356 599q-55 0 -83 -55t-28 -153v-246q56 27 101 75t71.5 110.5t26.5 130.5q0 67 -22 102.5t-66 35.5z" />
    <glyph glyph-name="uni01F8" unicode="&#x1f8;" horiz-adv-x="775" 
d="M696 0h-209l-269 540h-4q2 -51 5 -102t4 -102v-336h-144v714h208l268 -535h3q-1 50 -3.5 99t-3.5 98v338h145v-714zM380 934q15 -22 36 -49.5t42 -53t36 -44.5v-13h-106q-18 13 -43.5 32.5t-52.5 41.5t-50.5 42t-38.5 34v10h177z" />
    <glyph glyph-name="uni01F9" unicode="&#x1f9;" horiz-adv-x="624" 
d="M376 556q82 0 132.5 -47.5t50.5 -152.5v-356h-160v319q0 59 -17.5 88.5t-55.5 29.5q-58 0 -78 -46.5t-20 -133.5v-257h-160v546h121l22 -70h7q25 42 66 61t92 19zM304 766q15 -22 36 -49.5t42 -53t36 -44.5v-13h-106q-18 13 -43.5 32.5t-52.5 41.5t-50.5 42t-38.5 34v10
h177z" />
    <glyph glyph-name="Aringacute" unicode="&#x1fa;" horiz-adv-x="664" 
d="M265 864q20 19 42.5 45.5t37.5 48.5h177v-6q-10 -11 -38 -29.5t-59.5 -36.5t-53.5 -30h-106v8zM226 642q-12 29 -12 71q0 54 32.5 85t84.5 31q50 0 85.5 -31t35.5 -84q0 -42 -14 -72l227 -642h-175l-42 161h-230l-42 -161h-176zM331 667q42 0 42 46q0 22 -12 34.5
t-30 12.5t-29.5 -12.5t-11.5 -34.5q0 -21 11 -33.5t30 -12.5zM253 288h162l-40 141q-4 16 -13 44.5t-17 57t-12 44.5q-3 -11 -8.5 -32t-12 -44.5t-12 -42.5t-7.5 -27z" />
    <glyph glyph-name="aringacute" unicode="&#x1fb;" horiz-adv-x="577" 
d="M463 952q-10 -11 -36 -29.5t-56 -36.5t-52 -30h-104v8q20 19 42.5 45.5t37.5 48.5h168v-6zM294 817q50 0 85.5 -31t35.5 -84q0 -55 -35 -86t-86 -31q-52 0 -84.5 31t-32.5 85t32.5 85t84.5 31zM294 748q-17 0 -29 -12.5t-12 -34.5t10.5 -34.5t30.5 -12.5q18 0 29.5 12.5
t11.5 34.5t-11.5 34.5t-29.5 12.5zM300 557q101 0 156.5 -47.5t55.5 -145.5v-364h-111l-31 74h-4q-33 -44 -69.5 -64t-101.5 -20q-67 0 -112.5 42.5t-45.5 130.5q0 87 56.5 128.5t170.5 45.5l88 3v24q0 43 -19 63t-52 20q-34 0 -71 -11.5t-74 -28.5l-49 101q44 23 97.5 36
t115.5 13zM305 251q-58 -2 -81.5 -26t-23.5 -63q0 -34 16.5 -48.5t43.5 -14.5q38 0 65.5 28.5t27.5 80.5v45z" />
    <glyph glyph-name="AEacute" unicode="&#x1fc;" horiz-adv-x="892" 
d="M842 0h-400v170h-213l-57 -170h-174l295 714h549v-124h-238v-157h222v-124h-222v-184h238v-125zM283 297h159v288h-54zM731 924q-15 -14 -38.5 -34t-50.5 -42t-52 -41.5t-44 -32.5h-106v13q16 19 37 44.5t42.5 53t35.5 49.5h176v-10z" />
    <glyph glyph-name="aeacute" unicode="&#x1fd;" horiz-adv-x="871" 
d="M608 556q66 0 116 -29t78.5 -84t28.5 -135v-72h-326q2 -63 34 -99t90 -36q84 0 171 43v-115q-38 -20 -80.5 -29.5t-106.5 -9.5q-61 0 -112.5 25t-85.5 76q-30 -35 -58 -57.5t-64.5 -33t-91.5 -10.5q-43 0 -80.5 18.5t-60.5 57t-23 97.5q0 87 59.5 128.5t165.5 45.5l86 3
v41q0 34 -19.5 50t-49.5 16q-34 0 -70.5 -10.5t-71.5 -27.5l-48 99q42 23 94 36t107 13q97 0 155 -64q32 32 70.5 47.5t92.5 15.5zM602 450q-40 0 -65 -28t-29 -87h177q-1 50 -22 82.5t-61 32.5zM303 251q-58 -2 -80.5 -26t-22.5 -63q0 -34 16.5 -48.5t41.5 -14.5
q38 0 64 28.5t26 80.5v45zM660 767q-15 -14 -38.5 -34t-50.5 -42t-52 -41.5t-44 -32.5h-106v13q16 19 37 44.5t42.5 53t35.5 49.5h176v-10z" />
    <glyph glyph-name="Oslashacute" unicode="&#x1fe;" horiz-adv-x="749" 
d="M697 358q0 -111 -34 -193.5t-105 -128.5t-184 -46q-84 0 -148 32l-40 -66l-81 53l40 66q-48 49 -71 121t-23 163q0 111 34.5 193t106.5 127.5t183 45.5q89 0 154 -34l37 61l80 -51l-39 -64q47 -48 68.5 -119t21.5 -160zM221 358q0 -45 4.5 -83t14.5 -67l209 369
q-33 22 -74 22q-82 0 -118 -64t-36 -177zM527 358q0 44 -4 80.5t-12 64.5l-205 -367q29 -19 68 -19q83 0 118 64.5t35 176.5zM593 962q-15 -14 -38.5 -34t-50.5 -42t-52 -41.5t-44 -32.5h-106v13q16 19 37 44.5t42.5 53t35.5 49.5h176v-10z" />
    <glyph glyph-name="oslashacute" unicode="&#x1ff;" horiz-adv-x="603" 
d="M562 274q0 -136 -70 -210t-192 -74q-56 0 -106 22l-35 -49l-74 51l34 49q-37 37 -57.5 89.5t-20.5 121.5q0 136 70 209t192 73q59 0 111 -25l29 40l73 -53l-29 -41q35 -36 55 -87t20 -116zM198 274q0 -24 1.5 -44t5.5 -37l140 232q-20 11 -44 11q-55 0 -79 -40.5
t-24 -121.5zM405 274q0 20 -1.5 37t-3.5 32l-136 -226q15 -7 38 -7q56 0 79.5 41.5t23.5 122.5zM518 781q-15 -14 -38.5 -34t-50.5 -42t-52 -41.5t-44 -32.5h-106v13q16 19 37 44.5t42.5 53t35.5 49.5h176v-10z" />
    <glyph glyph-name="uni0200" unicode="&#x200;" horiz-adv-x="665" 
d="M490 0l-41 170h-231l-42 -170h-176l228 717h208l229 -717h-175zM367 463q-9 32 -18 67.5t-16 75.5q-7 -40 -16 -76.5t-17 -66.5l-46 -166h160zM406 934q14 -34 37 -76t42 -71v-13h-83q-16 14 -37.5 33.5t-43 41.5t-38.5 42t-25 33v10h148zM218 934q14 -34 37 -76t42 -71
v-13h-84q-16 14 -37 33.5t-42.5 41.5t-38.5 42t-25 33v10h148z" />
    <glyph glyph-name="uni0201" unicode="&#x201;" horiz-adv-x="577" 
d="M300 557q101 0 156.5 -47.5t55.5 -145.5v-364h-111l-31 74h-4q-33 -44 -69.5 -64t-101.5 -20q-67 0 -112.5 42.5t-45.5 130.5q0 87 57.5 128.5t169.5 45.5l88 3v24q0 43 -19 63t-52 20q-34 0 -71 -11.5t-74 -28.5l-49 101q44 23 97.5 36t115.5 13zM305 251
q-58 -2 -81.5 -26t-23.5 -63q0 -34 16.5 -48.5t43.5 -14.5q38 0 65.5 28.5t27.5 80.5v45zM362 777q14 -34 37 -76t42 -71v-13h-83q-16 14 -37.5 33.5t-43 41.5t-38.5 42t-25 33v10h148zM174 777q14 -34 37 -76t42 -71v-13h-84q-16 14 -37 33.5t-42.5 41.5t-38.5 42t-25 33
v10h148z" />
    <glyph glyph-name="uni0202" unicode="&#x202;" horiz-adv-x="665" 
d="M490 0l-41 170h-231l-42 -170h-176l228 717h208l229 -717h-175zM367 463q-9 32 -18 67.5t-16 75.5q-7 -40 -16 -76.5t-17 -66.5l-46 -166h160zM335 939q85 0 135.5 -45t54.5 -120h-87q-2 28 -16.5 41t-37.5 16.5t-49 3.5q-21 0 -44.5 -4.5t-40 -17.5t-19.5 -39h-89
q4 49 29 86t67.5 58t96.5 21z" />
    <glyph glyph-name="uni0203" unicode="&#x203;" horiz-adv-x="577" 
d="M300 557q101 0 156.5 -47.5t55.5 -145.5v-364h-111l-31 74h-4q-33 -44 -69.5 -64t-101.5 -20q-67 0 -112.5 42.5t-45.5 130.5q0 87 57.5 128.5t169.5 45.5l88 3v24q0 43 -19 63t-52 20q-34 0 -71 -11.5t-74 -28.5l-49 101q44 23 97.5 36t115.5 13zM305 251
q-58 -2 -81.5 -26t-23.5 -63q0 -34 16.5 -48.5t43.5 -14.5q38 0 65.5 28.5t27.5 80.5v45zM291 782q85 0 135.5 -45t54.5 -120h-87q-2 28 -16.5 41t-37.5 16.5t-49 3.5q-21 0 -44.5 -4.5t-40 -17.5t-19.5 -39h-89q4 49 29 86t67.5 58t96.5 21z" />
    <glyph glyph-name="uni0204" unicode="&#x204;" horiz-adv-x="521" 
d="M471 0h-392v714h392v-124h-230v-157h214v-124h-214v-184h230v-125zM351 934q14 -34 37 -76t42 -71v-13h-83q-16 14 -37.5 33.5t-43 41.5t-38.5 42t-25 33v10h148zM163 934q14 -34 37 -76t42 -71v-13h-84q-16 14 -37 33.5t-42.5 41.5t-38.5 42t-25 33v10h148z" />
    <glyph glyph-name="uni0205" unicode="&#x205;" horiz-adv-x="568" 
d="M291 556q110 0 173.5 -64.5t63.5 -183.5v-72h-325q2 -63 32.5 -99t87.5 -36q50 0 90.5 10.5t83.5 32.5v-115q-37 -20 -80.5 -29.5t-107.5 -9.5q-78 0 -138.5 30.5t-95 92.5t-34.5 156q0 143 69 215t181 72zM294 450q-36 0 -60 -28t-28 -87h175q-1 50 -22 82.5t-65 32.5z
M357 766q14 -34 37 -76t42 -71v-13h-83q-16 14 -37.5 33.5t-43 41.5t-38.5 42t-25 33v10h148zM169 766q14 -34 37 -76t42 -71v-13h-84q-16 14 -37 33.5t-42.5 41.5t-38.5 42t-25 33v10h148z" />
    <glyph glyph-name="uni0206" unicode="&#x206;" horiz-adv-x="521" 
d="M471 0h-392v714h392v-124h-230v-157h214v-124h-214v-184h230v-125zM280 939q85 0 135.5 -45t54.5 -120h-87q-2 28 -16.5 41t-37.5 16.5t-49 3.5q-21 0 -44.5 -4.5t-40 -17.5t-19.5 -39h-89q4 49 29 86t67.5 58t96.5 21z" />
    <glyph glyph-name="uni0207" unicode="&#x207;" horiz-adv-x="568" 
d="M291 556q110 0 173.5 -64.5t63.5 -183.5v-72h-325q2 -63 32.5 -99t87.5 -36q50 0 90.5 10.5t83.5 32.5v-115q-37 -20 -80.5 -29.5t-107.5 -9.5q-78 0 -138.5 30.5t-95 92.5t-34.5 156q0 143 69 215t181 72zM294 450q-36 0 -60 -28t-28 -87h175q-1 50 -22 82.5t-65 32.5z
M286 771q85 0 135.5 -45t54.5 -120h-87q-2 28 -16.5 41t-37.5 16.5t-49 3.5q-21 0 -44.5 -4.5t-40 -17.5t-19.5 -39h-89q4 49 29 86t67.5 58t96.5 21z" />
    <glyph glyph-name="uni0208" unicode="&#x208;" horiz-adv-x="389" 
d="M358 0h-327v86l83 40v462l-83 40v86h327v-86l-82 -40v-462l82 -40v-86zM268 934q14 -34 37 -76t42 -71v-13h-83q-16 14 -37.5 33.5t-43 41.5t-38.5 42t-25 33v10h148zM80 934q14 -34 37 -76t42 -71v-13h-84q-16 14 -37 33.5t-42.5 41.5t-38.5 42t-25 33v10h148z" />
    <glyph glyph-name="uni0209" unicode="&#x209;" horiz-adv-x="296" 
d="M228 0h-160v546h160v-546zM221 766q14 -34 37 -76t42 -71v-13h-83q-16 14 -37.5 33.5t-43 41.5t-38.5 42t-25 33v10h148zM33 766q14 -34 37 -76t42 -71v-13h-84q-16 14 -37 33.5t-42.5 41.5t-38.5 42t-25 33v10h148z" />
    <glyph glyph-name="uni020A" unicode="&#x20a;" horiz-adv-x="389" 
d="M358 0h-327v86l83 40v462l-83 40v86h327v-86l-82 -40v-462l82 -40v-86zM197 939q85 0 135.5 -45t54.5 -120h-87q-2 28 -16.5 41t-37.5 16.5t-49 3.5q-21 0 -44.5 -4.5t-40 -17.5t-19.5 -39h-89q4 49 29 86t67.5 58t96.5 21z" />
    <glyph glyph-name="uni020B" unicode="&#x20b;" horiz-adv-x="296" 
d="M228 0h-160v546h160v-546zM150 771q85 0 135.5 -45t54.5 -120h-87q-2 28 -16.5 41t-37.5 16.5t-49 3.5q-21 0 -44.5 -4.5t-40 -17.5t-19.5 -39h-89q4 49 29 86t67.5 58t96.5 21z" />
    <glyph glyph-name="uni020C" unicode="&#x20c;" horiz-adv-x="749" 
d="M697 358q0 -111 -34 -193.5t-105 -128.5t-184 -46q-111 0 -182.5 46t-106 129t-34.5 194t34.5 193t106.5 127.5t183 45.5q112 0 183 -45.5t105 -128t34 -193.5zM221 358q0 -112 36 -176.5t117 -64.5q83 0 118 64.5t35 176.5q0 113 -35 177t-117 64t-118 -64t-36 -177z
M447 945q14 -34 37 -76t42 -71v-13h-83q-16 14 -37.5 33.5t-43 41.5t-38.5 42t-25 33v10h148zM259 945q14 -34 37 -76t42 -71v-13h-84q-16 14 -37 33.5t-42.5 41.5t-38.5 42t-25 33v10h148z" />
    <glyph glyph-name="uni020D" unicode="&#x20d;" horiz-adv-x="590" 
d="M549 274q0 -136 -68 -210t-187 -74q-73 0 -130.5 33t-90 96.5t-32.5 154.5q0 136 68.5 209t187.5 73q73 0 130 -33t89.5 -95.5t32.5 -153.5zM204 274q0 -81 21.5 -122.5t70.5 -41.5t69.5 41.5t20.5 122.5t-20.5 121.5t-70.5 40.5q-49 0 -70 -40.5t-21 -121.5zM369 766
q14 -34 37 -76t42 -71v-13h-83q-16 14 -37.5 33.5t-43 41.5t-38.5 42t-25 33v10h148zM181 766q14 -34 37 -76t42 -71v-13h-84q-16 14 -37 33.5t-42.5 41.5t-38.5 42t-25 33v10h148z" />
    <glyph glyph-name="uni020E" unicode="&#x20e;" horiz-adv-x="749" 
d="M697 358q0 -111 -34 -193.5t-105 -128.5t-184 -46q-111 0 -182.5 46t-106 129t-34.5 194t34.5 193t106.5 127.5t183 45.5q112 0 183 -45.5t105 -128t34 -193.5zM221 358q0 -112 36 -176.5t117 -64.5q83 0 118 64.5t35 176.5q0 113 -35 177t-117 64t-118 -64t-36 -177z
M376 950q85 0 135.5 -45t54.5 -120h-87q-2 28 -16.5 41t-37.5 16.5t-49 3.5q-21 0 -44.5 -4.5t-40 -17.5t-19.5 -39h-89q4 49 29 86t67.5 58t96.5 21z" />
    <glyph glyph-name="uni020F" unicode="&#x20f;" horiz-adv-x="590" 
d="M549 274q0 -136 -68 -210t-187 -74q-73 0 -130.5 33t-90 96.5t-32.5 154.5q0 136 68.5 209t187.5 73q73 0 130 -33t89.5 -95.5t32.5 -153.5zM204 274q0 -81 21.5 -122.5t70.5 -41.5t69.5 41.5t20.5 122.5t-20.5 121.5t-70.5 40.5q-49 0 -70 -40.5t-21 -121.5zM298 771
q85 0 135.5 -45t54.5 -120h-87q-2 28 -16.5 41t-37.5 16.5t-49 3.5q-21 0 -44.5 -4.5t-40 -17.5t-19.5 -39h-89q4 49 29 86t67.5 58t96.5 21z" />
    <glyph glyph-name="uni0210" unicode="&#x210;" horiz-adv-x="628" 
d="M287 714q270 0 270 -214q0 -73 -34 -119t-85 -70l196 -311h-181l-151 274h-61v-274h-162v714h208zM280 590h-39v-193h40q113 0 113 99q0 51 -27.5 72.5t-86.5 21.5zM392 934q14 -34 37 -76t42 -71v-13h-83q-16 14 -37.5 33.5t-43 41.5t-38.5 42t-25 33v10h148zM204 934
q14 -34 37 -76t42 -71v-13h-84q-16 14 -37 33.5t-42.5 41.5t-38.5 42t-25 33v10h148z" />
    <glyph glyph-name="uni0211" unicode="&#x211;" horiz-adv-x="434" 
d="M368 556q13 0 28 -1t23 -3l-13 -140q-18 5 -51 5q-29 0 -58.5 -13.5t-49 -43.5t-19.5 -82v-278h-160v546h120l24 -92h8q22 42 61 72t87 30zM321 766q14 -34 37 -76t42 -71v-13h-83q-16 14 -37.5 33.5t-43 41.5t-38.5 42t-25 33v10h148zM133 766q14 -34 37 -76t42 -71v-13
h-84q-16 14 -37 33.5t-42.5 41.5t-38.5 42t-25 33v10h148z" />
    <glyph glyph-name="uni0212" unicode="&#x212;" horiz-adv-x="628" 
d="M287 714q270 0 270 -214q0 -73 -34 -119t-85 -70l196 -311h-181l-151 274h-61v-274h-162v714h208zM280 590h-39v-193h40q113 0 113 99q0 51 -27.5 72.5t-86.5 21.5zM321 939q85 0 135.5 -45t54.5 -120h-87q-2 28 -16.5 41t-37.5 16.5t-49 3.5q-21 0 -44.5 -4.5t-40 -17.5
t-19.5 -39h-89q4 49 29 86t67.5 58t96.5 21z" />
    <glyph glyph-name="uni0213" unicode="&#x213;" horiz-adv-x="434" 
d="M368 556q13 0 28 -1t23 -3l-13 -140q-18 5 -51 5q-29 0 -58.5 -13.5t-49 -43.5t-19.5 -82v-278h-160v546h120l24 -92h8q22 42 61 72t87 30zM250 771q85 0 135.5 -45t54.5 -120h-87q-2 28 -16.5 41t-37.5 16.5t-49 3.5q-21 0 -44.5 -4.5t-40 -17.5t-19.5 -39h-89
q4 49 29 86t67.5 58t96.5 21z" />
    <glyph glyph-name="uni0214" unicode="&#x214;" horiz-adv-x="711" 
d="M637 252q0 -74 -31.5 -133.5t-94.5 -94t-158 -34.5q-136 0 -207.5 72.5t-71.5 191.5v460h162v-437q0 -88 30.5 -124t89.5 -36q63 0 91 39t28 122v436h162v-462zM429 934q14 -34 37 -76t42 -71v-13h-83q-16 14 -37.5 33.5t-43 41.5t-38.5 42t-25 33v10h148zM241 934
q14 -34 37 -76t42 -71v-13h-84q-16 14 -37 33.5t-42.5 41.5t-38.5 42t-25 33v10h148z" />
    <glyph glyph-name="uni0215" unicode="&#x215;" horiz-adv-x="624" 
d="M556 546v-546h-121l-21 70h-9q-25 -42 -67 -61t-90 -19q-79 0 -130.5 47.5t-51.5 152.5v356h160v-319q0 -58 17 -88t55 -30q58 0 78 46.5t20 133.5v257h160zM385 766q14 -34 37 -76t42 -71v-13h-83q-16 14 -37.5 33.5t-43 41.5t-38.5 42t-25 33v10h148zM197 766
q14 -34 37 -76t42 -71v-13h-84q-16 14 -37 33.5t-42.5 41.5t-38.5 42t-25 33v10h148z" />
    <glyph glyph-name="uni0216" unicode="&#x216;" horiz-adv-x="711" 
d="M637 252q0 -74 -31.5 -133.5t-94.5 -94t-158 -34.5q-136 0 -207.5 72.5t-71.5 191.5v460h162v-437q0 -88 30.5 -124t89.5 -36q63 0 91 39t28 122v436h162v-462zM358 939q85 0 135.5 -45t54.5 -120h-87q-2 28 -16.5 41t-37.5 16.5t-49 3.5q-21 0 -44.5 -4.5t-40 -17.5
t-19.5 -39h-89q4 49 29 86t67.5 58t96.5 21z" />
    <glyph glyph-name="uni0217" unicode="&#x217;" horiz-adv-x="624" 
d="M556 546v-546h-121l-21 70h-9q-25 -42 -67 -61t-90 -19q-79 0 -130.5 47.5t-51.5 152.5v356h160v-319q0 -58 17 -88t55 -30q58 0 78 46.5t20 133.5v257h160zM314 771q85 0 135.5 -45t54.5 -120h-87q-2 28 -16.5 41t-37.5 16.5t-49 3.5q-21 0 -44.5 -4.5t-40 -17.5
t-19.5 -39h-89q4 49 29 86t67.5 58t96.5 21z" />
    <glyph glyph-name="uni0218" unicode="&#x218;" horiz-adv-x="529" 
d="M495 198q0 -95 -63.5 -151.5t-191.5 -56.5q-60 0 -107 11t-91 32v141q51 -22 104.5 -40.5t101.5 -18.5q46 0 66.5 21.5t20.5 54.5q0 40 -32 65t-94 50q-40 17 -77 42t-60.5 66.5t-23.5 106.5q0 96 65.5 149.5t174.5 53.5q59 0 109.5 -13t96.5 -37l-51 -118
q-44 20 -83.5 31t-76.5 11t-56.5 -20t-19.5 -52q0 -25 13.5 -42.5t42.5 -34t74 -39.5q50 -25 85.5 -52.5t54 -65.5t18.5 -94zM340 -71q-15 -33 -33 -71.5t-44 -78.5h-94v13q8 29 15.5 72t9.5 75h146v-10z" />
    <glyph glyph-name="uni0219" unicode="&#x219;" horiz-adv-x="477" 
d="M440 162q0 -83 -53 -127.5t-166 -44.5q-55 0 -96 7.5t-83 24.5v123q46 -20 95 -33t82 -13q36 0 51.5 13t15.5 34q0 14 -8 25t-32 25t-71 36q-46 22 -75.5 43.5t-44 52t-14.5 76.5q0 76 57.5 114t151.5 38q95 0 185 -43l-45 -107q-39 17 -75.5 28.5t-65.5 11.5
q-53 0 -53 -36q0 -13 8 -23.5t31 -23t67 -31.5q45 -19 75.5 -39.5t46.5 -51t16 -79.5zM314 -71q-15 -33 -33 -71.5t-44 -78.5h-94v13q8 29 15.5 72t9.5 75h146v-10z" />
    <glyph glyph-name="uni021A" unicode="&#x21a;" horiz-adv-x="550" 
d="M356 0h-162v588h-173v126h508v-126h-173v-588zM354 -71q-15 -33 -33 -71.5t-44 -78.5h-94v13q8 29 15.5 72t9.5 75h146v-10z" />
    <glyph glyph-name="uni021B" unicode="&#x21b;" horiz-adv-x="420" 
d="M303 109q24 0 44.5 5t42.5 12v-111q-25 -10 -58.5 -17.5t-78.5 -7.5q-48 0 -85.5 16t-58.5 55.5t-21 109.5v263h-65v63l78 50l44 115h103v-116h136v-112h-136v-263q0 -31 15 -46.5t40 -15.5zM316 -71q-15 -33 -33 -71.5t-44 -78.5h-94v13q8 29 15.5 72t9.5 75h146v-10z
" />
    <glyph glyph-name="uni021C" unicode="&#x21c;" horiz-adv-x="617" 
d="M51 -52q111 26 182 53.5t110 57.5t54.5 63t15.5 69q0 50 -19 81t-53 50q-39 -13 -81.5 -26t-88.5 -22l-23 110q87 22 140.5 39.5t78.5 40t25 59.5q0 41 -27 60.5t-74 19.5q-52 0 -99.5 -16t-89.5 -42l-64 101q55 40 125.5 59t141.5 19q116 0 181.5 -47.5t65.5 -141.5
q0 -53 -26 -90.5t-68 -62.5q52 -31 85 -75.5t33 -113.5q0 -93 -55 -163.5t-171 -122t-299 -87.5v128z" />
    <glyph glyph-name="uni021D" unicode="&#x21d;" horiz-adv-x="535" 
d="M10 -121q115 27 187.5 54.5t107 62t34.5 82.5q0 55 -58 99q-32 -11 -69 -21.5t-78 -19.5l-30 106q89 20 139 39t70.5 41.5t20.5 51.5q0 32 -26 47t-70 15q-47 0 -87.5 -10.5t-78.5 -24.5l-49 108q46 23 100.5 35t121.5 12q65 0 118 -19.5t84.5 -59t31.5 -101.5
q0 -89 -85 -144q50 -24 79 -64.5t29 -100.5q0 -73 -37.5 -123t-104.5 -84t-156.5 -57.5t-193.5 -42.5v119z" />
    <glyph glyph-name="uni021E" unicode="&#x21e;" horiz-adv-x="721" 
d="M642 0h-163v308h-238v-308h-162v714h162v-280h238v280h163v-714zM564 921q-16 -18 -38 -44t-43.5 -53t-35.5 -50h-172q-13 23 -34.5 50t-43.5 53t-40 44v13h106q25 -16 48.5 -37.5t48.5 -48.5q24 27 49.5 48.5t50.5 37.5h104v-13z" />
    <glyph glyph-name="uni021F" unicode="&#x21f;" horiz-adv-x="624" 
d="M228 605q0 -40 -2.5 -77t-4.5 -52h8q25 42 62 61t83 19q80 0 132.5 -47.5t52.5 -152.5v-356h-161v319q0 118 -72 118q-56 0 -77 -46.5t-21 -133.5v-257h-160v760h160v-155zM353 967q-16 -18 -38 -44t-43.5 -53t-35.5 -50h-172q-13 23 -34.5 50t-43.5 53t-40 44v13h106
q25 -16 48.5 -37.5t48.5 -48.5q24 27 49.5 48.5t50.5 37.5h104v-13z" />
    <glyph glyph-name="uni0220" unicode="&#x220;" horiz-adv-x="730" 
d="M436 725q61 0 110 -25t77.5 -77.5t28.5 -135.5v-727h-163v690q0 149 -106 149q-54 0 -84 -26.5t-42 -75.5t-12 -119v-378h-163v714h124l26 -92h5q33 50 86 76.5t113 26.5z" />
    <glyph glyph-name="uni0221" unicode="&#x221;" horiz-adv-x="818" 
d="M459 -100q2 36 6 67.5t10 59.5q-19 11 -29.5 25t-14.5 28h-5q-22 -34 -63 -62t-112 -28q-99 0 -155.5 70t-56.5 212q0 140 54.5 212t139.5 72q56 0 90.5 -23t53.5 -57h5q1 0 -2.5 18.5t-6.5 44t-3 46.5v175h162v-535q0 -38 6 -64q25 46 63.5 67t87.5 20q66 -1 99 -31.5
t33 -75.5q0 -37 -17.5 -69.5t-60 -52t-119.5 -19.5q-9 0 -18.5 0.5t-17.5 1.5q-4 -23 -6 -50t-4 -57zM289 109q50 0 71.5 36.5t21.5 109.5v16q0 80 -20.5 122t-75.5 42q-38 0 -61 -42.5t-23 -122.5t23.5 -120.5t63.5 -40.5zM639 100q36 0 51.5 7.5t15.5 20.5q0 10 -8 15
t-21 5q-40 0 -61 -47q5 -1 11.5 -1h11.5z" />
    <glyph glyph-name="uni0222" unicode="&#x222;" horiz-adv-x="744" 
d="M372 -10q-114 0 -185.5 32t-105 90t-33.5 136q0 69 29.5 122.5t97.5 82.5q-59 30 -77.5 78.5t-18.5 115.5v67h164v-66q0 -64 30.5 -101t100.5 -37q68 0 97 37t29 101v66h165v-66q0 -67 -19.5 -116t-76.5 -79q68 -29 97.5 -81t29.5 -123q0 -77 -34 -135.5t-105.5 -91
t-184.5 -32.5zM371 117q84 0 117.5 35.5t33.5 97.5t-33.5 97.5t-114.5 35.5q-82 0 -117 -35.5t-35 -97.5t33.5 -97.5t115.5 -35.5z" />
    <glyph glyph-name="uni0223" unicode="&#x223;" horiz-adv-x="599" 
d="M297 -10q-71 0 -130 29.5t-93.5 87.5t-34.5 141q0 76 29.5 128.5t93.5 80.5q-58 27 -76.5 78t-18.5 126v99h161v-99q0 -71 14.5 -108t57.5 -37q42 0 56 36.5t14 107.5v100h162v-100q0 -75 -20 -125.5t-78 -77.5q126 -53 126 -207q0 -84 -34 -142t-93 -88t-136 -30z
M300 110q96 0 96 142q0 144 -96 144q-97 0 -97 -145q0 -141 97 -141z" />
    <glyph glyph-name="uni0224" unicode="&#x224;" horiz-adv-x="559" 
d="M386 -240q-23 0 -50 3.5t-44 8.5v117q17 -4 29 -6.5t27 -2.5q25 0 43 17t18 66v37h-384v98l306 491h-298v125h495v-98l-306 -491h343v-184q0 -50 -17.5 -91t-57 -65.5t-104.5 -24.5z" />
    <glyph glyph-name="uni0225" unicode="&#x225;" horiz-adv-x="488" 
d="M429 546v-97l-216 -335h226v-178q0 -86 -36.5 -126t-107.5 -40q-24 0 -45 3.5t-38 9.5v104q11 -4 23 -6.5t24 -2.5q23 0 35 12.5t12 45.5v64h-283v88l225 344h-212v114h393z" />
    <glyph glyph-name="uni0226" unicode="&#x226;" horiz-adv-x="665" 
d="M490 0l-41 170h-231l-42 -170h-176l228 717h208l229 -717h-175zM367 463q-9 32 -18 67.5t-16 75.5q-7 -40 -16 -76.5t-17 -66.5l-46 -166h160zM333 928q35 0 60 -15.5t25 -57.5q0 -41 -25 -57t-60 -16q-36 0 -61 16t-25 57q0 42 25 57.5t61 15.5z" />
    <glyph glyph-name="uni0227" unicode="&#x227;" horiz-adv-x="577" 
d="M300 557q101 0 156.5 -47.5t55.5 -145.5v-364h-111l-31 74h-4q-33 -44 -69.5 -64t-101.5 -20q-67 0 -112.5 42.5t-45.5 130.5q0 87 57.5 128.5t169.5 45.5l88 3v24q0 43 -19 63t-52 20q-34 0 -71 -11.5t-74 -28.5l-49 101q44 23 97.5 36t115.5 13zM305 251
q-58 -2 -81.5 -26t-23.5 -63q0 -34 16.5 -48.5t43.5 -14.5q38 0 65.5 28.5t27.5 80.5v45zM289 771q35 0 60 -15.5t25 -57.5q0 -41 -25 -57t-60 -16q-36 0 -61 16t-25 57q0 42 25 57.5t61 15.5z" />
    <glyph glyph-name="uni0228" unicode="&#x228;" horiz-adv-x="521" 
d="M471 0h-392v714h392v-124h-230v-157h214v-124h-214v-184h230v-125zM452 -122q0 -56 -32.5 -87t-101.5 -31q-26 0 -47.5 3t-36.5 7v82q14 -4 31.5 -7t31.5 -3q16 0 26 6.5t10 23.5q0 18 -16.5 32t-55.5 21l32 75h89l-10 -30q28 -10 54 -32.5t26 -59.5z" />
    <glyph glyph-name="uni0229" unicode="&#x229;" horiz-adv-x="568" 
d="M291 556q110 0 173.5 -64.5t63.5 -183.5v-72h-325q2 -63 32.5 -99t87.5 -36q50 0 90.5 10.5t83.5 32.5v-115q-37 -20 -80.5 -29.5t-107.5 -9.5q-78 0 -138.5 30.5t-95 92.5t-34.5 156q0 143 69 215t181 72zM294 450q-36 0 -60 -28t-28 -87h175q-1 50 -22 82.5t-65 32.5z
M445 -122q0 -56 -32.5 -87t-101.5 -31q-26 0 -47.5 3t-36.5 7v82q14 -4 31.5 -7t31.5 -3q16 0 26 6.5t10 23.5q0 18 -16.5 32t-55.5 21l32 75h89l-10 -30q28 -10 54 -32.5t26 -59.5z" />
    <glyph glyph-name="uni022A" unicode="&#x22a;" horiz-adv-x="749" 
d="M559 1023v-93h-321v93h321zM303 888q29 0 47.5 -15t18.5 -46q0 -29 -18.5 -44.5t-47.5 -15.5q-30 0 -47 15.5t-17 44.5q0 31 17 46t47 15zM491 888q29 0 47.5 -15t18.5 -46q0 -29 -18.5 -44.5t-47.5 -15.5t-46.5 15.5t-17.5 44.5q0 31 17.5 46t46.5 15zM697 358
q0 -111 -34 -193.5t-105 -128.5t-184 -46q-111 0 -182.5 46t-106 129t-34.5 194t34.5 193t106.5 127.5t183 45.5q112 0 183 -45.5t105 -128t34 -193.5zM221 358q0 -112 36 -176.5t117 -64.5q83 0 118 64.5t35 176.5q0 113 -35 177t-117 64t-118 -64t-36 -177z" />
    <glyph glyph-name="uni022B" unicode="&#x22b;" horiz-adv-x="590" 
d="M471 855v-93h-321v93h321zM215 720q29 0 47.5 -15t18.5 -46q0 -29 -18.5 -44.5t-47.5 -15.5q-30 0 -47 15.5t-17 44.5q0 31 17 46t47 15zM403 720q29 0 47.5 -15t18.5 -46q0 -29 -18.5 -44.5t-47.5 -15.5t-46.5 15.5t-17.5 44.5q0 31 17.5 46t46.5 15zM549 274
q0 -136 -68 -210t-187 -74q-73 0 -130.5 33t-90 96.5t-32.5 154.5q0 136 68.5 209t187.5 73q73 0 130 -33t89.5 -95.5t32.5 -153.5zM204 274q0 -81 21.5 -122.5t70.5 -41.5t69.5 41.5t20.5 122.5t-20.5 121.5t-70.5 40.5q-49 0 -70 -40.5t-21 -121.5z" />
    <glyph glyph-name="uni022C" unicode="&#x22c;" horiz-adv-x="749" 
d="M238 930v93h322v-93h-322zM232 774q4 49 28 82t73 33q32 0 54 -10.5t40 -21.5t36 -11q30 0 38 43h63q-4 -49 -27.5 -82t-74.5 -33q-28 0 -50.5 11t-41 21.5t-34.5 10.5q-18 0 -27 -10t-14 -33h-63zM697 358q0 -111 -34 -193.5t-105 -128.5t-184 -46q-111 0 -182.5 46
t-106 129t-34.5 194t34.5 193t106.5 127.5t183 45.5q112 0 183 -45.5t105 -128t34 -193.5zM221 358q0 -112 36 -176.5t117 -64.5q83 0 118 64.5t35 176.5q0 113 -35 177t-117 64t-118 -64t-36 -177z" />
    <glyph glyph-name="uni022D" unicode="&#x22d;" horiz-adv-x="590" 
d="M150 762v93h322v-93h-322zM144 606q4 49 28 82t73 33q32 0 54 -10.5t40 -21.5t36 -11q30 0 38 43h63q-4 -49 -27.5 -82t-74.5 -33q-28 0 -50.5 11t-41 21.5t-34.5 10.5q-18 0 -27 -10t-14 -33h-63zM549 274q0 -136 -68 -210t-187 -74q-73 0 -130.5 33t-90 96.5
t-32.5 154.5q0 136 68.5 209t187.5 73q73 0 130 -33t89.5 -95.5t32.5 -153.5zM204 274q0 -81 21.5 -122.5t70.5 -41.5t69.5 41.5t20.5 122.5t-20.5 121.5t-70.5 40.5q-49 0 -70 -40.5t-21 -121.5z" />
    <glyph glyph-name="uni022E" unicode="&#x22e;" horiz-adv-x="749" 
d="M697 358q0 -111 -34 -193.5t-105 -128.5t-184 -46q-111 0 -182.5 46t-106 129t-34.5 194t34.5 193t106.5 127.5t183 45.5q112 0 183 -45.5t105 -128t34 -193.5zM221 358q0 -112 36 -176.5t117 -64.5q83 0 118 64.5t35 176.5q0 113 -35 177t-117 64t-118 -64t-36 -177z
M374 939q35 0 60 -15.5t25 -57.5q0 -41 -25 -57t-60 -16q-36 0 -61 16t-25 57q0 42 25 57.5t61 15.5z" />
    <glyph glyph-name="uni022F" unicode="&#x22f;" horiz-adv-x="590" 
d="M549 274q0 -136 -68 -210t-187 -74q-73 0 -130.5 33t-90 96.5t-32.5 154.5q0 136 68.5 209t187.5 73q73 0 130 -33t89.5 -95.5t32.5 -153.5zM204 274q0 -81 21.5 -122.5t70.5 -41.5t69.5 41.5t20.5 122.5t-20.5 121.5t-70.5 40.5q-49 0 -70 -40.5t-21 -121.5zM296 760
q35 0 60 -15.5t25 -57.5q0 -41 -25 -57t-60 -16q-36 0 -61 16t-25 57q0 42 25 57.5t61 15.5z" />
    <glyph glyph-name="uni0230" unicode="&#x230;" horiz-adv-x="749" 
d="M238 927v93h321v-93h-321zM398 885q29 0 47 -15t18 -46q0 -29 -18 -44.5t-47 -15.5q-30 0 -47.5 15.5t-17.5 44.5q0 31 17.5 46t47.5 15zM697 358q0 -111 -34 -193.5t-105 -128.5t-184 -46q-111 0 -182.5 46t-106 129t-34.5 194t34.5 193t106.5 127.5t183 45.5
q112 0 183 -45.5t105 -128t34 -193.5zM221 358q0 -112 36 -176.5t117 -64.5q83 0 118 64.5t35 176.5q0 113 -35 177t-117 64t-118 -64t-36 -177z" />
    <glyph glyph-name="uni0231" unicode="&#x231;" horiz-adv-x="590" 
d="M471 855v-93h-321v93h321zM310 720q29 0 47 -15t18 -46q0 -29 -18 -44.5t-47 -15.5q-30 0 -47.5 15.5t-17.5 44.5q0 31 17.5 46t47.5 15zM549 274q0 -136 -68 -210t-187 -74q-73 0 -130.5 33t-90 96.5t-32.5 154.5q0 136 68.5 209t187.5 73q73 0 130 -33t89.5 -95.5
t32.5 -153.5zM204 274q0 -81 21.5 -122.5t70.5 -41.5t69.5 41.5t20.5 122.5t-20.5 121.5t-70.5 40.5q-49 0 -70 -40.5t-21 -121.5z" />
    <glyph glyph-name="uni0232" unicode="&#x232;" horiz-adv-x="605" 
d="M303 420l128 294h174l-222 -436v-278h-161v273l-222 441h176zM463 877v-103h-322v103h322z" />
    <glyph glyph-name="uni0233" unicode="&#x233;" horiz-adv-x="554" 
d="M0 546h171l91 -307q7 -22 10 -45.5t4 -49.5h4q2 26 5.5 49.5t10.5 45.5l91 307h168l-214 -615q-30 -85 -85.5 -128t-143.5 -43q-24 0 -41.5 2.5t-30.5 5.5v118q10 -2 24.5 -4t30.5 -2q44 0 68 28.5t34 68.5l7 27zM438 709v-103h-322v103h322z" />
    <glyph glyph-name="uni0234" unicode="&#x234;" horiz-adv-x="434" 
d="M40 -1q22 49 47 89q-9 17 -12.5 45t-3.5 60v567h161v-533q11 9 31.5 15t40.5 6q62 0 95 -33t33 -95q0 -59 -40.5 -94.5t-124.5 -35.5q-41 0 -70.5 7.5t-48.5 25.5q-8 -13 -16.5 -27t-16.5 -33zM284 79q19 0 31 11t12 29q0 40 -43 40q-31 0 -53 -24q3 -26 16 -41t37 -15z
" />
    <glyph glyph-name="uni0235" unicode="&#x235;" horiz-adv-x="733" 
d="M348 -1q11 24 23.5 47t23.5 42q-9 17 -12.5 45t-3.5 60v126q0 118 -62 118q-51 0 -68 -46.5t-17 -133.5v-257h-161v546h123l21 -70h8q23 42 62.5 61t82.5 19q76 0 124 -47.5t48 -152.5v-129q12 9 32 15t40 6q62 0 95 -33t33 -95q0 -59 -40 -94.5t-125 -35.5
q-40 0 -70 7.5t-49 25.5q-8 -13 -16.5 -27t-16.5 -33zM593 79q19 0 30.5 11t11.5 29q0 40 -42 40q-32 0 -53 -24q2 -26 15 -41t38 -15z" />
    <glyph glyph-name="uni0236" unicode="&#x236;" horiz-adv-x="443" 
d="M58 -1q11 24 23.5 47t23.5 42q-9 17 -12.5 45t-3.5 60v241h-65v63l78 50l44 115h104v-116h143v-112h-143v-207q12 9 32 15t40 6q62 0 95 -33t33 -95q0 -59 -40 -94.5t-125 -35.5q-40 0 -70 7.5t-49 25.5q-8 -13 -16.5 -27t-16.5 -33zM303 79q19 0 30.5 11t11.5 29
q0 40 -42 40q-32 0 -53 -24q2 -26 15 -41t38 -15z" />
    <glyph glyph-name="uni0237" unicode="&#x237;" horiz-adv-x="296" 
d="M40 -240q-22 0 -49.5 3.5t-44.5 8.5v117q16 -4 30 -6.5t31 -2.5q25 0 43 17t18 66v583h159v-605q0 -50 -18 -91t-59 -65.5t-110 -24.5z" />
    <glyph glyph-name="uni0238" unicode="&#x238;" horiz-adv-x="902" 
d="M278 -10q-69 0 -123 31t-85 94t-31 158q0 140 54 211.5t136 71.5q56 0 89.5 -23.5t51.5 -57.5h6q-1 23 -3.5 49.5t-2.5 58.5v177h162v-177q0 -32 -2.5 -58.5t-4.5 -49.5h7q18 34 52 57.5t89 23.5q82 0 135.5 -71.5t53.5 -211.5q0 -95 -32.5 -158t-87.5 -94t-124 -31
q-112 0 -169 92q-28 -45 -72 -68.5t-99 -23.5zM287 110q41 0 62 37.5t21 127.5q0 83 -20 122.5t-66 39.5q-36 0 -58.5 -40.5t-22.5 -123.5q0 -87 22 -125t62 -38zM615 110q40 0 61.5 38t21.5 125q0 83 -22 123.5t-58 40.5q-46 0 -66 -39.5t-20 -122.5q0 -90 21 -127.5
t62 -37.5z" />
    <glyph glyph-name="uni0239" unicode="&#x239;" horiz-adv-x="902" 
d="M624 556q69 0 122.5 -31t84.5 -94t31 -158q0 -139 -53 -211t-136 -72q-56 0 -90 23.5t-51 57.5h-7q3 -22 5 -49t2 -59v-203h-162v203q0 32 2 59t4 49h-6q-19 -34 -52 -57.5t-89 -23.5q-82 0 -136 72t-54 211q0 95 32.5 158t88.5 94t124 31q111 0 169 -92q28 45 72 68.5
t99 23.5zM287 436q-40 0 -62 -38t-22 -125q0 -82 22.5 -123t58.5 -41q46 0 66 39.5t20 122.5q0 90 -21 127.5t-62 37.5zM615 436q-40 0 -61.5 -37.5t-21.5 -127.5q0 -83 20 -122.5t66 -39.5q36 0 58 41t22 123q0 87 -21.5 125t-61.5 38z" />
    <glyph glyph-name="uni023A" unicode="&#x23a;" horiz-adv-x="690" 
d="M490 0l-41 170h-111l-85 -245h-97l85 245h-23l-42 -170h-176l228 717h203l15 43h97l-63 -181l185 -579h-175zM254 297h31l71 205q-6 24 -12 50t-11 54q-7 -40 -16 -76.5t-17 -66.5zM414 297l-14 50l-18 -50h32z" />
    <glyph glyph-name="uni023B" unicode="&#x23b;" horiz-adv-x="637" 
d="M570 760l-25 -72q15 -7 28 -14l-51 -123q-11 6 -21 10l-154 -443q13 -2 28 -2q43 0 84.5 10t86.5 28v-127q-44 -19 -89 -28t-98 -9q-29 0 -55 4l-24 -69h-97l32 94q-84 39 -124 127t-40 210q0 108 37 191t108.5 130t174.5 47q41 0 86 -9l16 45h97zM370 598
q-73 0 -113 -65t-40 -178q0 -131 49 -191l149 429q-23 5 -45 5z" />
    <glyph glyph-name="uni023C" unicode="&#x23c;" horiz-adv-x="514" 
d="M291 -10q-21 0 -41 2l-71 -200h-97l80 225q-58 29 -89.5 91.5t-31.5 161.5q0 100 33.5 163t93 93t136.5 30q25 0 50 -3l74 207h96l-82 -229q15 -6 27 -12l-47 -112q-5 2 -10.5 4.5t-10.5 4.5l-108 -303q10 -2 21 -2q38 0 72.5 12.5t65.5 34.5v-127q-33 -22 -70.5 -31.5
t-90.5 -9.5zM204 271q0 -57 15 -95l93 260q-51 -1 -79.5 -42t-28.5 -123z" />
    <glyph glyph-name="uni023D" unicode="&#x23d;" horiz-adv-x="539" 
d="M79 0v291h-56v124h56v299h162v-299h116v-124h-116v-166h265v-125h-427z" />
    <glyph glyph-name="uni023E" unicode="&#x23e;" horiz-adv-x="579" 
d="M356 0h-162v17l-48 -92h-80l128 244v419h-173v126h459l24 46h80l-55 -105v-67h-35l-138 -263v-325zM356 588v-110l58 110h-58z" />
    <glyph glyph-name="uni023F" unicode="&#x23f;" horiz-adv-x="484" 
d="M332 -240q-56 0 -90 19.5t-54 54t-36 78.5q-14 39 -30.5 62.5t-46.5 37.5q-5 2 -13 5.5t-13 6.5v121q46 -20 95 -33t82 -13q36 0 51.5 13t15.5 34q0 14 -8 25t-31.5 25t-70.5 36q-46 22 -76 43.5t-44.5 52t-14.5 76.5q0 76 57.5 114t151.5 38q95 0 185 -43l-45 -107
q-39 17 -75.5 28.5t-65.5 11.5q-53 0 -53 -36q0 -13 8 -23.5t31 -23t67 -31.5q45 -19 75.5 -39.5t46.5 -51t16 -79.5q0 -77 -45 -121t-140 -50q6 -9 11.5 -19t9.5 -21q17 -42 35.5 -56.5t45.5 -14.5q31 0 55 9v-116q-31 -13 -87 -13z" />
    <glyph glyph-name="uni0240" unicode="&#x240;" horiz-adv-x="465" 
d="M378 -240q-63 0 -100.5 21t-58 55.5t-34.5 75.5q-13 42 -33.5 65t-66.5 23h-62v88l225 344h-212v114h393v-97l-227 -348q50 -13 77 -49t41 -73q22 -56 42.5 -77.5t48.5 -21.5q31 0 59 9v-116q-16 -6 -42.5 -9.5t-49.5 -3.5z" />
    <glyph glyph-name="uni0241" unicode="&#x241;" horiz-adv-x="465" 
d="M214 725q72 0 123.5 -27.5t79 -74.5t27.5 -107q0 -85 -38.5 -146t-130.5 -107v-263h-162v326q72 26 108 57.5t48 64.5t12 62q0 42 -24.5 68.5t-58.5 26.5q-28 0 -55 -8.5t-49.5 -19.5t-35.5 -20l-57 107q49 27 101 44t112 17z" />
    <glyph glyph-name="uni0242" unicode="&#x242;" horiz-adv-x="477" 
d="M214 556q72 0 123 -27.5t78 -74.5t27 -107q0 -85 -38.5 -145.5t-129.5 -106.5v-95h-162v158q72 26 107.5 57.5t47.5 64t12 61.5q0 42 -24.5 68.5t-58.5 26.5q-43 0 -80.5 -17.5t-57.5 -30.5l-57 107q49 27 101 44t112 17z" />
    <glyph glyph-name="uni0243" unicode="&#x243;" horiz-adv-x="633" 
d="M79 0v170h-70v97h70v447h221q140 0 205.5 -40t65.5 -141q0 -61 -30.5 -103t-74.5 -51v-5q31 -7 58 -25t44.5 -52t17.5 -90q0 -97 -67.5 -152t-183.5 -55h-256zM309 431q53 0 74.5 21t21.5 61q0 41 -24.5 59t-77.5 18h-63v-159h69zM319 125q56 0 77.5 26.5t21.5 70.5
q0 40 -22 64.5t-81 24.5h-75v-44h97v-97h-97v-45h79z" />
    <glyph glyph-name="uni0244" unicode="&#x244;" horiz-adv-x="711" 
d="M0 331v124h74v259h162v-259h239v259h162v-259h74v-124h-74v-79q0 -74 -31.5 -133.5t-94.5 -94t-158 -34.5q-136 0 -207.5 72.5t-71.5 191.5v77h-74zM236 277q0 -88 30.5 -124t89.5 -36q63 0 91 39t28 122v53h-239v-54z" />
    <glyph glyph-name="uni0245" unicode="&#x245;" horiz-adv-x="632" 
d="M408 714l224 -714h-174l-109 429q-4 14 -11 44.5t-13 62.5t-9 51q-2 -20 -8.5 -52t-13 -62t-10.5 -45l-111 -428h-173l224 714h184z" />
    <glyph glyph-name="uni0246" unicode="&#x246;" horiz-adv-x="560" 
d="M471 0h-182l-19 -75h-96l19 75h-114v714h296l12 46h96l-12 -47v-123h-31l-40 -157h55v-124h-87l-47 -184h150v-125zM241 433h63l40 157h-103v-157zM241 309v-121l31 121h-31z" />
    <glyph glyph-name="uni0247" unicode="&#x247;" horiz-adv-x="591" 
d="M291 556q28 0 53 -4l72 208h97l-83 -240q47 -30 72.5 -83.5t25.5 -128.5v-72h-196l-45 -130q16 -5 36 -5q50 0 90.5 10.5t83.5 32.5v-115q-37 -20 -80.5 -29.5t-107.5 -9.5q-32 0 -61 5l-70 -203h-97l81 233q-56 32 -88.5 92.5t-32.5 151.5q0 143 69 215t181 72zM294 450
q-36 0 -60 -28t-28 -87h63l39 114q-6 1 -14 1zM381 335q0 18 -3 34l-12 -34h15zM203 236q1 -34 10 -61l22 61h-32z" />
    <glyph glyph-name="uni0248" unicode="&#x248;" horiz-adv-x="329" 
d="M21 -210q-29 0 -50.5 3.5t-36.5 7.5v126q14 -4 30.5 -7t35.5 -3q23 0 41.5 10t30 38t11.5 80v250h-85v124h85v295h163v-295h84v-124h-84v-249q0 -92 -29 -148.5t-79.5 -82t-116.5 -25.5z" />
    <glyph glyph-name="uni0249" unicode="&#x249;" horiz-adv-x="304" 
d="M66 687q0 42 25.5 57.5t61.5 15.5q35 0 60.5 -15.5t25.5 -57.5q0 -41 -25.5 -57t-60.5 -16q-36 0 -61.5 16t-25.5 57zM36 -240q-25 0 -53.5 3.5t-45.5 8.5v117q17 -4 32 -6.5t35 -2.5q27 0 47 17t20 66v267h-72v97h72v219h162v-219h72v-97h-72v-289q0 -50 -19 -91
t-62 -65.5t-116 -24.5z" />
    <glyph glyph-name="uni024A" unicode="&#x24a;" horiz-adv-x="735" 
d="M305 725q66 0 110.5 -25t70.5 -62h4l14 76h151v-775q0 -31 13.5 -45.5t31.5 -14.5q17 0 31.5 3.5t21.5 6.5v-114q-12 -5 -35.5 -10t-48.5 -5q-82 0 -129.5 41t-47.5 135v150h-7q-29 -43 -72 -69.5t-109 -26.5q-69 0 -126 41.5t-91 123.5t-34 202q0 121 34.5 203
t91.5 123.5t126 41.5zM352 598q-55 0 -91 -62t-36 -181q0 -122 36.5 -180t94.5 -58q64 0 100 60t36 179v31q0 101 -32.5 156t-107.5 55z" />
    <glyph glyph-name="uni024B" unicode="&#x24b;" horiz-adv-x="603" 
d="M233 556q57 0 91 -23t54 -57h4l13 70h137v-607q0 -28 11.5 -44t31.5 -16q16 0 27.5 3t24.5 7v-114q-16 -8 -41.5 -11.5t-51.5 -3.5q-62 0 -98 22t-51 61.5t-15 92.5v37q0 22 2 49t4 49h-6q-18 -34 -51 -57.5t-89 -23.5q-85 0 -138 71.5t-53 210.5q0 93 25.5 156.5
t69.5 95.5t99 32zM287 435q-43 0 -63.5 -42.5t-20.5 -122.5q0 -163 87 -163q49 0 70.5 36.5t21.5 109.5v18q0 80 -20.5 122t-74.5 42z" />
    <glyph glyph-name="uni024C" unicode="&#x24c;" horiz-adv-x="628" 
d="M287 714q270 0 270 -214q0 -73 -34 -119t-85 -70l196 -311h-181l-151 274h-61v-274h-162v274h-69v123h69v317h208zM280 590h-39v-193h40q113 0 113 99q0 51 -27.5 72.5t-86.5 21.5z" />
    <glyph glyph-name="uni024D" unicode="&#x24d;" horiz-adv-x="434" 
d="M335 319v-97h-107v-222h-160v222h-68v97h68v227h120l24 -92h8q22 42 61 72t87 30q13 0 28 -1t23 -3l-13 -140q-18 5 -51 5q-38 0 -74.5 -22t-48.5 -76h103z" />
    <glyph glyph-name="uni024E" unicode="&#x24e;" horiz-adv-x="605" 
d="M605 619v-97h-98l-124 -244v-278h-161v273l-125 249h-97v97h48l-48 95h176l41 -95h173l41 95h174l-48 -95h48zM303 420l44 102h-88z" />
    <glyph glyph-name="uni024F" unicode="&#x24f;" horiz-adv-x="554" 
d="M0 546h171l48 -161h120l48 161h168l-56 -161h60v-97h-94l-124 -357q-30 -85 -85.5 -128t-143.5 -43q-24 0 -41.5 2.5t-30.5 5.5v118q10 -2 24.5 -4t30.5 -2q44 0 68 28.5t34 68.5l7 27l-107 284h-87v97h51zM276 144h4q2 26 5.5 49.5t10.5 45.5l15 49h-64l15 -49
q7 -22 10 -45.5t4 -49.5z" />
    <glyph glyph-name="uni0250" unicode="&#x250;" horiz-adv-x="577" 
d="M277 -11q-101 0 -156.5 47.5t-55.5 145.5v364h111l31 -74h4q33 44 69.5 64t101.5 20q67 0 112.5 -42.5t45.5 -130.5q0 -87 -57.5 -128.5t-169.5 -45.5l-88 -3v-24q0 -43 19 -63t52 -20q34 0 71 11.5t74 28.5l49 -101q-44 -23 -97.5 -36t-115.5 -13zM272 295q58 2 81.5 26
t23.5 63q0 34 -16.5 48.5t-43.5 14.5q-38 0 -65.5 -28.5t-27.5 -80.5v-45z" />
    <glyph glyph-name="uni0251" unicode="&#x251;" horiz-adv-x="619" 
d="M239 -10q-57 0 -101.5 32t-70.5 95t-26 155q0 140 54 212t142 72q54 0 86.5 -23t53.5 -57h4l18 70h133v-373q0 -34 11 -46t27 -12q6 0 14.5 2t12.5 3v-117q-7 -4 -30.5 -8.5t-46.5 -4.5q-47 0 -76 19.5t-46 62.5h-6q-26 -34 -60.5 -58t-92.5 -24zM293 107q91 0 91 148v16
q0 80 -21 122t-71 42q-42 0 -65.5 -41t-23.5 -124q0 -84 23.5 -123.5t66.5 -39.5z" />
    <glyph glyph-name="uni0252" unicode="&#x252;" horiz-adv-x="619" 
d="M380 556q57 0 101.5 -32t70.5 -95t26 -155q0 -140 -54 -212t-142 -72q-54 0 -86.5 23t-53.5 57h-4l-18 -70h-133v373q0 34 -11 46t-27 12q-6 0 -14.5 -2t-12.5 -3v117q7 4 30.5 8.5t46.5 4.5q47 0 76 -19.5t46 -62.5h6q26 34 60.5 58t92.5 24zM326 439q-91 0 -91 -148
v-16q0 -80 21 -122t71 -42q42 0 65.5 41t23.5 124q0 84 -23.5 123.5t-66.5 39.5z" />
    <glyph glyph-name="uni0253" unicode="&#x253;" horiz-adv-x="603" 
d="M244 765q27 0 49 -5t32 -10v-114q-7 3 -22 6.5t-32 3.5q-19 0 -29 -13t-10 -43v-7q0 -27 -2 -54.5t-4 -53.5h6q19 34 52.5 57.5t89.5 23.5q82 0 136 -71.5t54 -210.5q0 -93 -25.5 -156.5t-69.5 -95.5t-100 -32q-57 0 -87 21.5t-50 48.5h-10l-26 -60h-125v593
q0 92 48.5 132t124.5 40zM319 437q-46 0 -66.5 -37.5t-20.5 -118.5q0 -84 19 -127t70 -43q35 0 56.5 42.5t21.5 122.5t-22 120.5t-58 40.5z" />
    <glyph glyph-name="uni0254" unicode="&#x254;" horiz-adv-x="491" 
d="M203 556q114 0 181 -68.5t67 -213.5q0 -142 -67.5 -213t-183.5 -71q-54 0 -89.5 9t-69.5 28v131q33 -22 65.5 -34.5t71.5 -12.5q50 0 79.5 41t29.5 122q0 83 -28.5 122.5t-75.5 39.5q-29 0 -55.5 -9t-53.5 -23l-45 109q31 17 74 30t100 13z" />
    <glyph glyph-name="uni0255" unicode="&#x255;" horiz-adv-x="525" 
d="M309 556q60 0 99 -11.5t68 -25.5l-45 -115q-31 14 -58.5 23t-59.5 9q-55 0 -82.5 -40t-27.5 -125q0 -18 3 -44q21 26 57.5 42.5t84.5 16.5q74 0 111.5 -37.5t37.5 -101.5q0 -56 -26.5 -91t-71 -50.5t-99.5 -15.5q-96 0 -147 39q-10 -21 -18.5 -39t-16.5 -43l-77 33
q11 31 22 55.5t24 49.5q-22 38 -35 82.5t-13 102.5q0 101 34 164t95 92.5t141 29.5zM329 197q-34 0 -58.5 -17.5t-37.5 -36.5q13 -21 33 -32.5t49 -11.5q28 0 48.5 14t20.5 38q0 21 -14.5 33.5t-40.5 12.5z" />
    <glyph glyph-name="uni0256" unicode="&#x256;" horiz-adv-x="604" 
d="M535 -240q-62 0 -98 22t-51 61.5t-15 92.5v37q0 27 2 52t4 46h-6q-19 -34 -52.5 -57.5t-89.5 -23.5q-82 0 -135 71.5t-53 210.5q0 140 54 212t139 72q56 0 89 -23t52 -57h5l-2.5 18.5t-4.5 44t-2 46.5v175h161v-821q0 -28 11.5 -44t31.5 -16q16 0 27.5 3t25.5 7v-114
q-16 -8 -41 -11.5t-52 -3.5zM292 109q48 0 70 36.5t22 109.5v16q0 80 -20 122t-73 42q-42 0 -65 -42.5t-23 -122.5t24 -120.5t65 -40.5z" />
    <glyph glyph-name="uni0257" unicode="&#x257;" horiz-adv-x="603" 
d="M230 -10q-83 0 -136 71.5t-53 210.5q0 140 54 212t140 72q54 0 87.5 -23t54.5 -57h4q-3 20 -6 47.5t-3 61.5v8q0 92 45 133t121 41q32 0 58 -5t38 -10v-114q-8 3 -23 6.5t-32 3.5q-22 0 -34.5 -15t-12.5 -45v-588h-121l-33 71h-6q-19 -34 -53 -57.5t-89 -23.5zM291 109
q50 0 71.5 36.5t21.5 109.5v16q0 80 -20 122t-75 42q-40 0 -63 -42.5t-23 -122.5t23.5 -120.5t64.5 -40.5z" />
    <glyph glyph-name="uni0258" unicode="&#x258;" horiz-adv-x="568" 
d="M277 556q-110 0 -173.5 -64.5t-63.5 -183.5v-72h325q-2 -63 -32.5 -99t-87.5 -36q-50 0 -90.5 10.5t-83.5 32.5v-115q37 -20 80.5 -29.5t107.5 -9.5q78 0 138.5 30.5t95 92.5t34.5 156q0 143 -69 215t-181 72zM274 450q36 0 60 -28t28 -87h-175q1 50 22 82.5t65 32.5z
" />
    <glyph glyph-name="uni0259" unicode="&#x259;" horiz-adv-x="568" 
d="M259 556q78 0 138.5 -30.5t95 -92t34.5 -156.5q0 -143 -68.5 -215t-180.5 -72q-110 0 -174 64.5t-64 183.5v72h326q-2 63 -33 99t-88 36q-49 0 -89.5 -10.5t-84.5 -32.5v115q38 20 81 29.5t107 9.5zM187 211q1 -49 22.5 -82t64.5 -33q36 0 60 28t28 87h-175z" />
    <glyph glyph-name="uni025A" unicode="&#x25a;" horiz-adv-x="807" 
d="M280 -10q-115 0 -177.5 64.5t-62.5 183.5l336 99q-13 56 -44.5 82t-80.5 26q-104 0 -180 -43v115q33 20 82 29.5t114 9.5q95 0 163.5 -44.5t94.5 -136.5l123 37l13 -52q12 -46 23.5 -65t33.5 -19q18 0 32 8t27 18l30 -88q-18 -18 -44 -29.5t-58 -11.5q-49 0 -81 27.5
t-52 89.5l-33 -13q-2 -84 -33 -148.5t-88 -101.5t-138 -37zM282 96q44 0 72 33.5t28 110.5l-190 -59q4 -18 13.5 -37.5t28 -33.5t48.5 -14z" />
    <glyph glyph-name="uni025B" unicode="&#x25b;" horiz-adv-x="521" 
d="M385 336v-103h-72q-70 0 -96 -17t-26 -50q0 -27 22 -44t87 -17q58 0 106 13t80 29v-119q-37 -17 -86 -27.5t-118 -10.5q-134 0 -192 44t-58 117q0 60 33 90t92 41v5q-46 12 -71 44.5t-25 81.5q0 52 30.5 83.5t82.5 45.5t114 14q56 0 106 -11t93 -30l-47 -108
q-35 15 -69.5 27t-76.5 12q-86 0 -86 -51q0 -32 26.5 -45.5t87.5 -13.5h63z" />
    <glyph glyph-name="uni025C" unicode="&#x25c;" horiz-adv-x="516" 
d="M245 556q60 0 110 -15.5t80.5 -47.5t30.5 -82q0 -49 -27 -78t-71 -42v-5q55 -13 85.5 -39.5t30.5 -87.5q0 -45 -27.5 -83.5t-84 -62t-145.5 -23.5q-67 0 -112 9t-81 25v123q32 -16 77.5 -29t100.5 -13q59 0 86.5 14t27.5 49q0 33 -27 49t-96 16h-61v103h54q62 0 92.5 12
t30.5 45q0 26 -20 39.5t-67 13.5q-37 0 -75 -9t-75 -26l-46 104q46 18 95 29.5t114 11.5z" />
    <glyph glyph-name="uni025D" unicode="&#x25d;" horiz-adv-x="729" 
d="M245 556q72 0 130.5 -23t80.5 -71l107 34l13 -51q12 -46 22.5 -65t33.5 -19q20 0 34 8t27 18l36 -88q-22 -18 -48 -29.5t-60 -11.5q-49 0 -81.5 27.5t-50.5 89.5l-31 -11q-11 -28 -34.5 -46t-55.5 -27v-5q55 -13 85.5 -39.5t30.5 -87.5q0 -45 -27.5 -83.5t-84 -62
t-145.5 -23.5q-67 0 -112 9t-81 25v123q32 -16 77.5 -29t100.5 -13q59 0 86.5 14t27.5 49q0 33 -27 49t-96 16h-61v103h54q62 0 92.5 12t30.5 45q0 26 -20 39.5t-67 13.5q-37 0 -75 -9t-75 -26l-46 104q46 18 95 29.5t114 11.5z" />
    <glyph glyph-name="uni025E" unicode="&#x25e;" horiz-adv-x="603" 
d="M325 556q108 0 169.5 -37.5t61.5 -113.5q0 -49 -29 -77t-76 -42v-5q30 -6 57.5 -19.5t44.5 -36.5t17 -59q0 -82 -69.5 -129t-186.5 -47q-78 0 -140 30t-98.5 93t-36.5 161q0 91 37 153.5t102 95.5t147 33zM330 446q-59 0 -93.5 -43.5t-34.5 -128.5q0 -67 15.5 -103.5
t42.5 -51t62 -14.5q43 0 67.5 15.5t24.5 50.5q0 33 -24 45t-72 12h-33v103h31q48 0 73 13t25 47q0 26 -22.5 40.5t-61.5 14.5z" />
    <glyph glyph-name="uni025F" unicode="&#x25f;" horiz-adv-x="304" 
d="M36 -240q-25 0 -53.5 3.5t-45.5 8.5v117q17 -4 32 -6.5t35 -2.5q27 0 47 17t20 66v267h-72v97h72v219h162v-219h71v-97h-71v-289q0 -50 -19 -91t-62 -65.5t-116 -24.5z" />
    <glyph glyph-name="uni0260" unicode="&#x260;" horiz-adv-x="602" 
d="M546 767q30 0 53 -5t33 -10v-114q-7 3 -20.5 6.5t-31.5 3.5q-21 0 -34.5 -15t-13.5 -45v-589q0 -117 -69 -178t-200 -61q-54 0 -100.5 7t-93.5 25v119q99 -42 203 -42q98 0 98 124v11q0 17 0.5 33.5t1.5 33.5h-2q-25 -43 -60.5 -62t-79.5 -19q-90 0 -140.5 74.5
t-50.5 207.5q0 134 53.5 209t141.5 75q93 0 144 -80h4q-4 24 -8 52t-4 57v8q0 92 44.5 133t131.5 41zM287 435q-84 0 -84 -165q0 -163 87 -163q44 0 68 33t24 113v18q0 88 -23.5 126t-71.5 38z" />
    <glyph glyph-name="uni0261" unicode="&#x261;" horiz-adv-x="600" 
d="M234 556q51 0 86.5 -20t58.5 -60h4l12 70h137v-547q0 -117 -66.5 -178t-200.5 -61q-58 0 -105.5 7t-91.5 25v119q47 -21 93 -31.5t103 -10.5q108 0 108 124v11q0 35 5 67h-5q-22 -43 -56.5 -62t-84.5 -19q-87 0 -138.5 74.5t-51.5 207.5q0 134 52.5 209t140.5 75z
M290 435q-86 0 -86 -165q0 -163 88 -163q49 0 70.5 32.5t21.5 113.5v18q0 88 -20.5 126t-73.5 38z" />
    <glyph glyph-name="uni0262" unicode="&#x262;" horiz-adv-x="548" 
d="M319 556q47 0 91.5 -10t76.5 -24l-46 -104q-27 14 -57 21.5t-65 7.5q-68 0 -98 -49t-30 -125q0 -80 28.5 -126t83.5 -46q14 0 29.5 1.5t24.5 4.5v102h-88v105h226v-289q-40 -14 -92 -23.5t-111 -9.5q-114 0 -183 71t-69 212q0 129 71.5 205t207.5 76z" />
    <glyph glyph-name="uni0263" unicode="&#x263;" horiz-adv-x="558" 
d="M271 -240q-71 0 -108.5 40t-37.5 104q0 49 16 98t44 109l-185 435h169l80 -230q8 -23 14.5 -56t10.5 -57h3q4 25 11 55t17 58l82 230h169l-196 -447q28 -55 43.5 -105t15.5 -91q0 -61 -38.5 -102t-109.5 -41zM272 -151q28 0 28 54q0 21 -6 52.5t-22 65.5
q-16 -33 -22.5 -64.5t-6.5 -51.5q0 -56 29 -56z" />
    <glyph glyph-name="uni0264" unicode="&#x264;" horiz-adv-x="547" 
d="M475 556q44 0 72 -14v-110q-7 2 -13 3.5t-13 1.5q-26 0 -45.5 -13t-43.5 -51l-65 -100q24 -36 41.5 -71t17.5 -77q0 -56 -40 -97t-112 -41q-71 0 -110 40t-39 99q0 44 15 78t37 68l-62 98q-22 36 -41 51.5t-42 15.5q-15 0 -32 -5v110q12 6 31 10t40 4q45 0 74.5 -19.5
t53.5 -56.5l30 -45q11 -16 23 -35.5t22 -37.5h4q10 19 21.5 38t23.5 37l28 43q23 35 52 55.5t72 20.5zM276 202q-16 -23 -22.5 -44t-6.5 -38q0 -18 7.5 -31t21.5 -13q16 0 23 12.5t7 29.5q0 19 -7 40t-23 44z" />
    <glyph glyph-name="uni0265" unicode="&#x265;" horiz-adv-x="624" 
d="M396 -59q0 40 2.5 77t4.5 52h-8q-25 -42 -62 -61t-83 -19q-80 0 -132.5 47.5t-52.5 152.5v356h161v-319q0 -118 72 -118q56 0 77 46.5t21 133.5v257h160v-760h-160v155z" />
    <glyph glyph-name="uni0266" unicode="&#x266;" horiz-adv-x="624" 
d="M68 593q0 92 48 132t127 40q26 0 48 -5t32 -10v-114q-7 3 -19.5 6.5t-29.5 3.5q-20 0 -33 -13t-13 -43v-19q0 -34 -2.5 -65.5t-4.5 -39.5h8q25 42 62 61t83 19q80 0 132.5 -47.5t52.5 -152.5v-346h-161v309q0 118 -72 118q-56 0 -77 -46.5t-21 -133.5v-247h-160v593z" />
    <glyph glyph-name="uni0267" unicode="&#x267;" horiz-adv-x="630" 
d="M243 765q26 0 48 -5t32 -10v-114q-7 3 -19.5 6.5t-29.5 3.5q-20 0 -33 -13t-13 -43v-9q0 -36 -2.5 -66.5t-4.5 -38.5h8q49 80 146 80q80 0 131.5 -47.5t51.5 -152.5v-415q0 -50 -17 -91t-56 -65.5t-105 -24.5q-22 0 -48 3.5t-43 8.5v117q14 -4 26 -6.5t28 -2.5
q23 0 39 17t16 66v367q0 107 -72 107q-56 0 -77 -46.5t-21 -133.5v-257h-160v593q0 92 48 132t127 40z" />
    <glyph glyph-name="uni0268" unicode="&#x268;" horiz-adv-x="296" 
d="M149 760q35 0 60 -15.5t25 -57.5q0 -41 -25 -57t-60 -16q-36 0 -61 16t-25 57q0 42 25 57.5t61 15.5zM295 327v-97h-67v-230h-160v230h-68v97h68v219h160v-219h67z" />
    <glyph glyph-name="iotaLatin" unicode="&#x269;" horiz-adv-x="395" 
d="M227 171q0 -31 16.5 -46.5t40.5 -15.5t45.5 5t46.5 12v-111q-24 -10 -57 -17.5t-74 -7.5q-50 0 -90.5 16t-64 55.5t-23.5 109.5v375h160v-375z" />
    <glyph glyph-name="uni026A" unicode="&#x26a;" horiz-adv-x="304" 
d="M292 546v-73l-66 -29v-342l66 -27v-75h-280v75l67 27v342l-67 29v73h280z" />
    <glyph glyph-name="uni026B" unicode="&#x26b;" horiz-adv-x="453" 
d="M145 347q-9 3 -17 3q-33 0 -39 -52h-77q2 74 36 112t85 38h6.5t5.5 -1v313h162v-359q4 -1 8.5 -2.5t9.5 -1.5q30 0 39 53h77q-1 -74 -36 -112.5t-85 -38.5q-7 0 -13 2v-301h-162v347z" />
    <glyph glyph-name="uni026C" unicode="&#x26c;" horiz-adv-x="405" 
d="M153 0v292h-34q-68 0 -98 30.5t-30 77.5q0 50 30 80.5t82 30.5q27 0 50 -18v267h161v-391h93v-77h-93v-292h-161zM126 369h27v14q0 26 -10.5 38.5t-26.5 12.5q-14 0 -23 -8.5t-9 -23.5q0 -19 12 -26t30 -7z" />
    <glyph glyph-name="uni026D" unicode="&#x26d;" horiz-adv-x="304" 
d="M235 -240q-62 0 -98 22t-51 61.5t-15 92.5v824h161v-821q0 -28 12 -44t32 -16q16 0 27 3t25 7v-114q-16 -8 -41.5 -11.5t-51.5 -3.5z" />
    <glyph glyph-name="uni026E" unicode="&#x26e;" horiz-adv-x="744" 
d="M414 -240q-64 0 -114.5 10t-95.5 29v128q45 -23 98.5 -35t102.5 -12q53 0 84 18t44 47.5t13 62.5q0 37 -14 66.5t-52 47t-111 17.5h-58v106l176 187h-255v-432h-161v760h161v-214h457v-97l-198 -202q76 -10 124 -44.5t70.5 -86.5t22.5 -115q0 -68 -31 -123t-96 -86.5
t-167 -31.5z" />
    <glyph glyph-name="uni026F" unicode="&#x26f;" horiz-adv-x="931" 
d="M245 -10q-89 0 -134.5 47.5t-45.5 152.5v356h159v-319q0 -118 70 -118q50 0 70 42t20 121v274h160v-319q0 -118 69 -118q52 0 71 46.5t19 133.5v257h160v-546h-121l-23 70h-6q-22 -42 -61.5 -61t-91.5 -19q-113 0 -155 80h-9q-24 -42 -64.5 -61t-86.5 -19z" />
    <glyph glyph-name="uni0270" unicode="&#x270;" horiz-adv-x="944" 
d="M712 -11q0 18 2 40.5t5 41.5h-7q-25 -42 -61.5 -61.5t-80.5 -19.5q-55 0 -94.5 19.5t-62.5 60.5h-15q-22 -42 -64 -61t-85 -19q-88 0 -134 47.5t-46 152.5v356h162v-319q0 -118 68 -118q51 0 71 42t20 121v274h162v-319q0 -118 68 -118q54 0 73 46.5t19 133.5v257h161
v-786h-161v229z" />
    <glyph glyph-name="uni0271" unicode="&#x271;" horiz-adv-x="944" 
d="M696 556q89 0 134 -47.5t45 -152.5v-415q0 -50 -17 -91t-56 -65.5t-104 -24.5q-23 0 -49 3.5t-42 8.5v117q15 -4 27 -6.5t27 -2.5q20 0 36.5 17t16.5 66v356q0 118 -69 118q-50 0 -70.5 -42t-20.5 -121v-274h-162v319q0 118 -68 118q-54 0 -73 -46.5t-19 -133.5v-257
h-161v546h123l21 -70h8q24 42 65.5 61t85.5 19q56 0 95.5 -19.5t61.5 -60.5h15q23 42 65 61t85 19z" />
    <glyph glyph-name="uni0272" unicode="&#x272;" horiz-adv-x="632" 
d="M378 556q82 0 133.5 -47.5t51.5 -152.5v-356h-162v319q0 59 -17 88.5t-55 29.5q-57 0 -77 -46.5t-20 -133.5v-316q0 -50 -15.5 -91t-52.5 -65.5t-102 -24.5q-23 0 -46.5 3.5t-39.5 11.5v114l24.5 -7t25.5 -3q21 0 33 16t12 44v607h123l21 -70h8q25 42 67.5 61t87.5 19z
" />
    <glyph glyph-name="uni0273" unicode="&#x273;" horiz-adv-x="631" 
d="M563 -61q0 -28 12.5 -44t34.5 -16q15 0 26 3t24 7v-114q-16 -8 -41 -11.5t-51 -3.5q-63 0 -99.5 22t-52 61.5t-15.5 92.5v383q0 59 -17 88.5t-55 29.5q-57 0 -77 -46.5t-20 -133.5v-257h-161v546h123l21 -70h8q25 42 67.5 61t87.5 19q82 0 133.5 -47.5t51.5 -152.5v-417z
" />
    <glyph glyph-name="uni0274" unicode="&#x274;" horiz-adv-x="648" 
d="M70 0v546h192l190 -396l-3 63t-2 80v253h131v-546h-192l-190 401q2 -23 3.5 -65.5t1.5 -83.5v-252h-131z" />
    <glyph glyph-name="uni0275" unicode="&#x275;" horiz-adv-x="590" 
d="M549 274q0 -136 -68 -210t-187 -74q-73 0 -130.5 33t-90 96.5t-32.5 154.5q0 136 68.5 209t187.5 73q73 0 130 -33t89.5 -95.5t32.5 -153.5zM295 436q-86 0 -97 -110h194q-9 110 -97 110zM296 110q86 0 95 113h-193q12 -113 98 -113z" />
    <glyph glyph-name="uni0276" unicode="&#x276;" horiz-adv-x="826" 
d="M283 556q67 0 104 -27v17h380v-112h-223v-96h209v-112h-209v-112h223v-114h-380v19q-19 -16 -46.5 -22.5t-59.5 -6.5q-70 0 -125 33t-86 96.5t-31 154.5q0 136 64.5 209t179.5 73zM295 436q-49 0 -70.5 -40.5t-21.5 -121.5t21.5 -122.5t70.5 -41.5q50 0 71 41.5t21 122.5
t-21 121.5t-71 40.5z" />
    <glyph glyph-name="omegaclosed" unicode="&#x277;" horiz-adv-x="790" 
d="M397 556q116 0 194.5 -40.5t118 -112.5t39.5 -168q0 -113 -52 -179t-150 -66q-65 0 -100 28t-50 75h-6q-16 -47 -51 -75t-100 -28q-95 0 -148 66t-53 179q0 96 42.5 168t123 112.5t192.5 40.5zM393 436q-75 0 -120 -27t-65 -72.5t-20 -101.5q0 -61 17 -95t51 -34
q40 0 52.5 32t12.5 90v96h146v-96q0 -58 12 -90t52 -32q35 0 52 33.5t17 93.5q0 56 -20.5 102t-65.5 73.5t-121 27.5z" />
    <glyph glyph-name="uni0278" unicode="&#x278;" horiz-adv-x="790" 
d="M470 549q139 -12 209 -86.5t70 -189.5t-68 -190t-211 -87v-236h-148v236q-137 13 -209 88t-72 189q0 117 66.5 191.5t213.5 84.5v211h149v-211zM321 437q-52 -9 -85.5 -54t-33.5 -110q0 -67 32 -111.5t87 -52.5v328zM470 109q54 8 86 52.5t32 111.5q0 65 -32.5 109.5
t-85.5 52.5v-326z" />
    <glyph glyph-name="uni0279" unicode="&#x279;" horiz-adv-x="434" 
d="M66 -10q-13 0 -28 1t-23 3l13 140q18 -5 51 -5q29 0 58.5 13.5t49 43.5t19.5 82v278h160v-546h-120l-24 92h-8q-22 -42 -61 -72t-87 -30z" />
    <glyph glyph-name="uni027A" unicode="&#x27a;" horiz-adv-x="434" 
d="M66 -10q-13 0 -28 1.5t-23 2.5l13 140q18 -5 51 -5q30 0 59 13.5t48.5 44t19.5 81.5v492h160v-760h-120l-24 92h-8q-22 -42 -61 -72t-87 -30z" />
    <glyph glyph-name="uni027B" unicode="&#x27b;" horiz-adv-x="441" 
d="M371 -240q-61 0 -97 22t-51 61.5t-15 92.5v29q0 42 1.5 67.5t4.5 50.5h-5q-22 -38 -59 -65.5t-88 -27.5q-9 0 -22.5 1.5t-19.5 2.5l11 140q5 -2 17.5 -3.5t23.5 -1.5q31 0 62.5 13.5t52.5 44t21 81.5v278h161v-607q0 -28 10.5 -44t32.5 -16q17 0 28.5 3t25.5 7v-114
q-17 -8 -42.5 -11.5t-52.5 -3.5z" />
    <glyph glyph-name="uni027C" unicode="&#x27c;" horiz-adv-x="434" 
d="M368 556q13 0 28 -1t23 -3l-13 -140q-18 5 -51 5q-29 0 -58.5 -13.5t-49 -43.5t-19.5 -82v-518h-160v786h120l24 -92h8q22 42 61 72t87 30z" />
    <glyph glyph-name="uni027D" unicode="&#x27d;" horiz-adv-x="440" 
d="M373 556q10 0 25.5 -1t21.5 -3l-11 -140q-6 2 -18 3.5t-23 1.5q-32 0 -63.5 -13.5t-52 -43.5t-20.5 -82v-339q0 -28 12 -44t32 -16q16 0 27 3t25 7v-114q-16 -8 -41.5 -11.5t-51.5 -3.5q-62 0 -98 22t-51 61.5t-15 92.5v610h121l25 -92h7q21 42 59.5 72t89.5 30z" />
    <glyph glyph-name="uni027E" unicode="&#x27e;" horiz-adv-x="388" 
d="M251 558q36 0 62 -4t54 -12l-18 -121q-14 5 -27 7.5t-30 2.5q-37 0 -49 -22.5t-12 -57.5v-351h-162v359q0 102 46.5 150.5t135.5 48.5z" />
    <glyph glyph-name="uni027F" unicode="&#x27f;" horiz-adv-x="387" 
d="M136 558q89 0 135.5 -48.5t46.5 -150.5v-599h-161v591q0 35 -12 57.5t-50 22.5q-17 0 -29.5 -2.5t-26.5 -7.5l-18 121q28 8 54 12t61 4z" />
    <glyph glyph-name="uni0280" unicode="&#x280;" horiz-adv-x="531" 
d="M79 0v546h180q219 0 219 -162q0 -54 -26.5 -89.5t-71.5 -56.5l151 -238h-161l-110 205h-33v-205h-148zM253 307q35 0 56.5 17t21.5 55q0 65 -75 65h-29v-137h26z" />
    <glyph glyph-name="uni0281" unicode="&#x281;" horiz-adv-x="588" 
d="M79 546v-546h180q219 0 219 162q0 54 -26.5 89.5t-71.5 56.5l151 238h-161l-110 -205h-33v205h-148zM253 239q35 0 56.5 -17t21.5 -55q0 -65 -75 -65h-29v137h26z" />
    <glyph glyph-name="uni0282" unicode="&#x282;" horiz-adv-x="484" 
d="M447 162q0 -83 -52.5 -127.5t-164.5 -44.5q-13 0 -25.5 2t-23.5 5v-72q0 -38 14.5 -47.5t26.5 -9.5q11 0 21 2.5t22 6.5v-104q-32 -13 -80 -13q-73 0 -104.5 43.5t-31.5 121.5v220q46 -20 95 -33t82 -13q36 0 51.5 13t15.5 34q0 14 -8 25t-31.5 25t-70.5 36
q-46 22 -76 43.5t-44.5 52t-14.5 76.5q0 76 57.5 114t151.5 38q95 0 185 -43l-45 -107q-39 17 -75.5 28.5t-65.5 11.5q-53 0 -53 -36q0 -13 8 -23.5t31 -23t67 -31.5q45 -19 75.5 -39.5t46.5 -51t16 -79.5z" />
    <glyph glyph-name="uni0283" unicode="&#x283;" horiz-adv-x="304" 
d="M242 767q31 0 54.5 -5t33.5 -10v-114q-7 3 -21.5 6.5t-31.5 3.5q-19 0 -31.5 -15t-12.5 -45v-647q0 -50 -15.5 -91t-53 -65.5t-102.5 -24.5q-23 0 -46 3.5t-40 11.5v114q14 -4 25 -7t26 -3q20 0 32 16t12 44v654q0 92 43 133t128 41z" />
    <glyph glyph-name="uni0284" unicode="&#x284;" horiz-adv-x="304" 
d="M62 -240q-23 0 -46 3.5t-40 11.5v114q14 -4 25 -7t26 -3q20 0 32 16t12 44v309h-71v112h71v233q0 92 43 133t128 41q31 0 54.5 -5t33.5 -10v-114q-7 3 -21.5 6.5t-31.5 3.5q-19 0 -31.5 -15t-12.5 -45v-228h72v-112h-72v-307q0 -50 -15.5 -91t-53 -65.5t-102.5 -24.5z
" />
    </font>
</defs>
</svg>
