<svg width="157" height="65" viewBox="0 0 157 65" fill="none" xmlns="http://www.w3.org/2000/svg">
<path d="M32.1622 0C14.3926 0 0 14.5438 0 32.5C0 50.4562 14.3926 65 32.1622 65C49.9319 65 64.3245 50.4562 64.3245 32.5C64.3245 14.5438 49.9319 0 32.1622 0ZM38.8359 45.4025H27.4183C25.9067 45.4025 24.4755 44.8013 23.398 43.7288L20.3587 40.6575C19.7315 40.0238 18.8632 39.7313 17.9948 39.845L9.50394 40.9175C8.55516 38.285 8.04056 35.4575 8.04056 32.5C8.04056 29.9975 8.41043 27.5925 9.10192 25.3337H18.2199C18.9757 25.3337 19.6994 25.025 20.2301 24.4887L24.3147 20.3612C24.7971 19.8737 25.4564 19.5975 26.1479 19.5975H29.3963L23.6875 25.3663C22.7548 26.3088 22.2402 27.5763 22.2402 28.9088C22.2402 30.7775 23.2372 32.4837 24.9901 33.41C25.167 33.5075 25.3599 33.5888 25.5529 33.6538C27.3218 34.2388 29.1068 33.8488 30.4094 32.7438L40.042 42.4612C41.1034 43.55 40.3475 45.4025 38.8359 45.4025ZM54.8045 40.9175L46.3136 39.845C45.4453 39.7313 44.5769 40.04 43.9497 40.6575L43.0974 41.5188L32.4195 30.7288L34.6709 28.4538C35.2177 27.9013 35.2177 26.9913 34.6709 26.4388C34.1081 25.87 33.2075 25.87 32.6447 26.4388L28.6887 30.4363C28.2706 30.8588 27.7239 31.07 27.1771 31.07C26.6303 31.07 26.0836 30.8588 25.6655 30.4363C24.8293 29.5913 24.8293 28.2425 25.6655 27.3975L32.5482 20.4425C33.0789 19.9063 33.8025 19.5975 34.5583 19.5975H38.0479C38.8038 19.5975 39.5274 19.9063 40.0581 20.4425L44.0784 24.505C44.609 25.0413 45.3327 25.35 46.0885 25.35H55.2065C55.898 27.6088 56.2678 30.03 56.2678 32.5163C56.2839 35.4575 55.7693 38.285 54.8045 40.9175ZM75.517 39.8288C74.2626 39.8288 73.2817 39.3738 72.5419 38.4475C71.8022 37.5375 71.4484 36.2537 71.4484 34.5962C71.4484 33.7837 71.561 33.0525 71.8022 32.4025C72.0434 31.7525 72.349 31.2 72.7349 30.7613C73.1209 30.3063 73.5711 29.965 74.0697 29.7212C74.5682 29.4775 75.0988 29.3475 75.6295 29.3475C76.1924 29.3475 76.6748 29.445 77.0607 29.64C77.4467 29.835 77.8326 30.1113 78.2347 30.4363L78.1543 28.8275V25.2038H80.4699V39.5687H78.5563L78.3955 38.4962H78.3151C77.9452 38.87 77.5271 39.1788 77.0447 39.4388C76.5783 39.6988 76.0637 39.8288 75.517 39.8288ZM76.0959 37.895C76.8356 37.895 77.5271 37.5213 78.1703 36.7738V32.11C77.8165 31.8013 77.4788 31.5738 77.1572 31.46C76.8356 31.33 76.4979 31.2812 76.1602 31.2812C75.5169 31.2812 74.9702 31.5738 74.536 32.1425C74.1018 32.7113 73.8767 33.5237 73.8767 34.58C73.8767 35.6687 74.0696 36.4975 74.4556 37.05C74.8094 37.6187 75.3561 37.895 76.0959 37.895ZM84.0721 27.8363C83.654 27.8363 83.3163 27.7063 83.0429 27.4625C82.7695 27.2188 82.6409 26.8938 82.6409 26.5038C82.6409 26.1138 82.7695 25.7888 83.0429 25.545C83.3163 25.3013 83.654 25.1712 84.0721 25.1712C84.4902 25.1712 84.8279 25.3013 85.1013 25.545C85.3747 25.7888 85.5033 26.1138 85.5033 26.5038C85.5033 26.8938 85.3747 27.2188 85.1013 27.4625C84.8279 27.7225 84.4902 27.8363 84.0721 27.8363ZM82.9143 39.585V29.5913H85.2299V39.585H82.9143ZM90.4563 39.8288C89.7648 39.8288 89.0894 39.6988 88.4301 39.4388C87.7708 39.1788 87.1919 38.8375 86.7094 38.4475L87.8029 36.9362C88.2532 37.2937 88.6874 37.57 89.1216 37.765C89.5558 37.96 90.0382 38.0575 90.5367 38.0575C91.0674 38.0575 91.4694 37.9438 91.7267 37.7163C91.984 37.4888 92.1127 37.1963 92.1127 36.855C92.1127 36.6438 92.0484 36.465 91.9358 36.3187C91.8071 36.1562 91.6463 36.0262 91.4533 35.8962C91.2443 35.7662 91.0192 35.6688 90.7619 35.555C90.5046 35.4575 90.2473 35.3438 89.99 35.2463C89.6683 35.1163 89.3306 34.9863 89.009 34.8238C88.6713 34.6613 88.3819 34.4663 88.1085 34.2388C87.8512 34.0113 87.626 33.735 87.4652 33.4425C87.3044 33.1338 87.2079 32.7763 87.2079 32.3538C87.2079 31.4763 87.5295 30.745 88.1728 30.1925C88.816 29.64 89.7005 29.3637 90.8101 29.3637C91.5016 29.3637 92.1127 29.4938 92.6594 29.7375C93.2062 29.9813 93.6886 30.2575 94.0906 30.5663L93.0293 31.9962C92.6755 31.7362 92.3217 31.525 91.9679 31.3787C91.6142 31.2162 91.2443 31.1512 90.8423 31.1512C90.3437 31.1512 89.9739 31.2488 89.7487 31.46C89.5075 31.6713 89.395 31.9313 89.395 32.24C89.395 32.4513 89.4593 32.6138 89.5719 32.76C89.6844 32.9063 89.8292 33.0362 90.0221 33.1337C90.2151 33.2475 90.4242 33.345 90.6815 33.4425C90.9227 33.54 91.196 33.6375 91.4533 33.735C91.791 33.865 92.1287 33.995 92.4665 34.1575C92.8042 34.32 93.1097 34.515 93.3831 34.7425C93.6565 34.97 93.8816 35.2625 94.0424 35.5875C94.2032 35.9125 94.2997 36.3188 94.2997 36.7738C94.2997 37.2125 94.2193 37.6188 94.0424 37.9925C93.8816 38.3663 93.6243 38.6912 93.3027 38.9675C92.9811 39.2437 92.579 39.4713 92.0966 39.6338C91.6302 39.7475 91.0674 39.8288 90.4563 39.8288ZM100.201 39.8288C99.5261 39.8288 98.8989 39.715 98.32 39.4875C97.7411 39.26 97.2265 38.9188 96.7923 38.4638C96.3581 38.0088 96.0204 37.4725 95.7792 36.8225C95.5379 36.1725 95.4093 35.425 95.4093 34.5962C95.4093 33.7675 95.5379 33.0362 95.8113 32.37C96.0847 31.72 96.4385 31.1675 96.9048 30.7288C97.3551 30.2738 97.8858 29.9325 98.4808 29.705C99.0758 29.4612 99.703 29.3475 100.362 29.3475C101.006 29.3475 101.568 29.4613 102.019 29.6725C102.485 29.8838 102.887 30.16 103.257 30.4688L102.131 31.9962C101.858 31.7687 101.601 31.59 101.343 31.46C101.086 31.33 100.796 31.265 100.491 31.265C99.6869 31.265 99.0275 31.5737 98.5451 32.175C98.0466 32.7762 97.8054 33.5887 97.8054 34.6125C97.8054 35.62 98.0466 36.4163 98.5451 37.0175C99.0275 37.6188 99.6708 37.9275 100.443 37.9275C100.829 37.9275 101.199 37.8462 101.536 37.6675C101.874 37.505 102.196 37.2937 102.469 37.0662L103.418 38.61C102.951 39.0163 102.437 39.325 101.874 39.52C101.327 39.7313 100.764 39.8288 100.201 39.8288ZM107.036 39.8288C106.2 39.8288 105.621 39.585 105.283 39.0812C104.945 38.5775 104.785 37.895 104.785 37.0338V25.2363H107.1V37.1637C107.1 37.4562 107.149 37.6512 107.261 37.765C107.374 37.8787 107.486 37.9437 107.599 37.9437H107.744C107.792 37.9437 107.856 37.9275 107.953 37.895L108.258 39.65C107.969 39.7637 107.551 39.8288 107.036 39.8288ZM113.774 39.8288C113.163 39.8288 112.568 39.715 112.005 39.4875C111.442 39.26 110.944 38.9188 110.509 38.4638C110.075 38.0088 109.722 37.4725 109.48 36.8225C109.223 36.1725 109.094 35.425 109.094 34.5962C109.094 33.7675 109.223 33.0362 109.48 32.37C109.738 31.72 110.075 31.1675 110.509 30.7288C110.944 30.2738 111.442 29.9325 112.005 29.705C112.568 29.4612 113.163 29.3475 113.774 29.3475C114.385 29.3475 114.98 29.4612 115.559 29.705C116.122 29.9487 116.636 30.29 117.054 30.7288C117.489 31.1838 117.826 31.72 118.1 32.37C118.373 33.02 118.486 33.7675 118.486 34.5962C118.486 35.425 118.357 36.1563 118.1 36.8225C117.842 37.4725 117.489 38.025 117.054 38.4638C116.62 38.9188 116.122 39.2438 115.559 39.4875C114.98 39.715 114.385 39.8288 113.774 39.8288ZM113.774 37.9113C114.498 37.9113 115.077 37.6025 115.479 37.0013C115.897 36.4 116.106 35.5875 116.106 34.5962C116.106 33.5725 115.897 32.7762 115.479 32.1587C115.06 31.5575 114.498 31.2487 113.774 31.2487C113.05 31.2487 112.487 31.5575 112.069 32.1587C111.667 32.76 111.458 33.5725 111.458 34.5962C111.458 35.6037 111.667 36.4 112.069 37.0013C112.487 37.6188 113.05 37.9113 113.774 37.9113ZM123.053 39.8288C122.361 39.8288 121.686 39.6988 121.027 39.4388C120.367 39.1788 119.788 38.8375 119.306 38.4475L120.399 36.9362C120.85 37.2937 121.284 37.57 121.718 37.765C122.152 37.96 122.635 38.0575 123.133 38.0575C123.664 38.0575 124.066 37.9438 124.323 37.7163C124.58 37.4888 124.709 37.1963 124.709 36.855C124.709 36.6438 124.645 36.465 124.532 36.3187C124.404 36.1562 124.243 36.0262 124.05 35.8962C123.841 35.7662 123.616 35.6688 123.358 35.555C123.101 35.4575 122.844 35.3438 122.586 35.2463C122.265 35.1163 121.927 34.9863 121.605 34.8238C121.268 34.6613 120.978 34.4663 120.705 34.2388C120.448 34.0113 120.222 33.735 120.062 33.4425C119.901 33.1338 119.804 32.7763 119.804 32.3538C119.804 31.4763 120.126 30.745 120.769 30.1925C121.412 29.64 122.297 29.3637 123.407 29.3637C124.098 29.3637 124.709 29.4938 125.256 29.7375C125.803 29.9813 126.285 30.2575 126.687 30.5663L125.626 31.9962C125.272 31.7362 124.918 31.525 124.564 31.3787C124.211 31.2162 123.841 31.1512 123.439 31.1512C122.94 31.1512 122.57 31.2488 122.345 31.46C122.104 31.6713 121.991 31.9313 121.991 32.24C121.991 32.4513 122.056 32.6138 122.168 32.76C122.281 32.9063 122.426 33.0362 122.619 33.1337C122.812 33.2475 123.021 33.345 123.278 33.4425C123.519 33.54 123.792 33.6375 124.05 33.735C124.387 33.865 124.725 33.995 125.063 34.1575C125.401 34.32 125.706 34.515 125.98 34.7425C126.253 34.97 126.478 35.2625 126.639 35.5875C126.8 35.9125 126.896 36.3188 126.896 36.7738C126.896 37.2125 126.816 37.6188 126.639 37.9925C126.478 38.3663 126.221 38.6912 125.899 38.9675C125.577 39.2437 125.175 39.4713 124.693 39.6338C124.211 39.7963 123.664 39.8288 123.053 39.8288ZM132.894 39.8288C132.203 39.8288 131.576 39.715 130.981 39.4712C130.386 39.2275 129.871 38.8863 129.437 38.4475C128.987 37.9925 128.649 37.4563 128.408 36.8063C128.167 36.1563 128.038 35.425 128.038 34.5962C128.038 33.7837 128.167 33.0525 128.424 32.4025C128.681 31.7525 129.019 31.2 129.437 30.7613C129.855 30.3225 130.354 29.965 130.9 29.7212C131.447 29.4775 132.01 29.3475 132.589 29.3475C133.264 29.3475 133.843 29.4612 134.358 29.6887C134.872 29.9162 135.29 30.2412 135.644 30.6637C135.982 31.0862 136.239 31.59 136.416 32.175C136.593 32.76 136.673 33.3938 136.673 34.0925C136.673 34.32 136.657 34.5475 136.641 34.7425C136.625 34.9538 136.593 35.1162 136.577 35.23H130.289C130.402 36.1237 130.707 36.8225 131.222 37.2938C131.737 37.7813 132.396 38.0088 133.2 38.0088C133.634 38.0088 134.036 37.9438 134.406 37.8138C134.776 37.6838 135.146 37.505 135.5 37.2775L136.288 38.74C135.821 39.0488 135.29 39.3088 134.712 39.52C134.133 39.7313 133.522 39.8288 132.894 39.8288ZM130.257 33.6375H134.647C134.647 32.8575 134.486 32.2562 134.149 31.8175C133.827 31.3787 133.313 31.1512 132.621 31.1512C132.026 31.1512 131.511 31.3625 131.077 31.785C130.643 32.2075 130.37 32.825 130.257 33.6375ZM139.697 39.8288C139.263 39.8288 138.909 39.6825 138.619 39.3737C138.33 39.0812 138.185 38.6913 138.185 38.2363C138.185 37.7813 138.33 37.3913 138.619 37.0988C138.909 36.8063 139.263 36.6437 139.697 36.6437C140.131 36.6437 140.485 36.79 140.758 37.0988C141.048 37.3913 141.176 37.7813 141.176 38.2363C141.176 38.6913 141.031 39.0812 140.758 39.3737C140.485 39.6825 140.131 39.8288 139.697 39.8288ZM144.618 27.8363C144.199 27.8363 143.862 27.7063 143.588 27.4625C143.315 27.2188 143.186 26.8938 143.186 26.5038C143.186 26.1138 143.315 25.7888 143.588 25.545C143.862 25.3013 144.199 25.1712 144.618 25.1712C145.036 25.1712 145.373 25.3013 145.647 25.545C145.92 25.7888 146.049 26.1138 146.049 26.5038C146.049 26.8938 145.92 27.2188 145.647 27.4625C145.373 27.7225 145.036 27.8363 144.618 27.8363ZM143.444 39.585V29.5913H145.759V39.585H143.444ZM152.288 39.8288C151.677 39.8288 151.082 39.715 150.519 39.4875C149.956 39.26 149.458 38.9188 149.024 38.4638C148.59 38.0088 148.236 37.4725 147.995 36.8225C147.737 36.1725 147.609 35.425 147.609 34.5962C147.609 33.7675 147.737 33.0362 147.995 32.37C148.252 31.72 148.59 31.1675 149.024 30.7288C149.458 30.2738 149.956 29.9325 150.519 29.705C151.082 29.4612 151.677 29.3475 152.288 29.3475C152.899 29.3475 153.494 29.4612 154.073 29.705C154.636 29.9487 155.151 30.29 155.569 30.7288C156.003 31.1838 156.341 31.72 156.614 32.37C156.887 33.02 157 33.7675 157 34.5962C157 35.425 156.871 36.1563 156.614 36.8225C156.357 37.4725 156.003 38.025 155.569 38.4638C155.135 38.9188 154.636 39.2438 154.073 39.4875C153.51 39.715 152.915 39.8288 152.288 39.8288ZM152.288 37.9113C153.012 37.9113 153.591 37.6025 153.993 37.0013C154.411 36.4 154.62 35.5875 154.62 34.5962C154.62 33.5725 154.411 32.7762 153.993 32.1587C153.575 31.5575 153.012 31.2487 152.288 31.2487C151.565 31.2487 151.002 31.5575 150.584 32.1587C150.182 32.76 149.973 33.5725 149.973 34.5962C149.973 35.6037 150.182 36.4 150.584 37.0013C151.002 37.6188 151.565 37.9113 152.288 37.9113Z" fill="#673AB6"/>
</svg>
